{
.appVersion = "3151";
.formatVersion = 3;
axes = (
{
name = Weight;
tag = wght;
}
);
classes = (
{
automatic = 1;
code = "A Aacute Abreve Acircumflex Adieresis Agrave Amacron Aogonek Aring Atilde AE B C Cacute Ccaron Ccedilla Ccircumflex Cdotaccent D Eth E Eacute Ebreve Ecaron Ecircumflex Edieresis Edotaccent Egrave Emacron Eogonek Etilde F G Gbreve Gcaron Gcircumflex Gdotaccent H Hcircumflex I Iacute Icircumflex Idieresis Igrave Iogonek J K L Lslash M N Nacute Ncaron Ntilde Eng O Oacute Obreve Ocircumflex Odieresis Ograve Ohungarumlaut Omacron Oogonek Oslash Otilde OE P Thorn Q R S Scaron Germandbls T U Uacute Ubreve Ucircumflex Udieresis Ugrave Umacron Uring Utilde V W X Y Yacute Ycircumflex Ydieresis Ygrave Ymacron Ytilde Z Zacute Zcaron Zdotaccent";
name = Uppercase;
}
);
customParameters = (
{
name = fsType;
value = (
);
}
);
date = "2022-10-16 00:50:14 +0000";
familyName = Platypi_18August23;
featurePrefixes = (
{
automatic = 1;
code = "languagesystem DFLT dflt;

languagesystem latn dflt;
";
name = Languagesystems;
}
);
features = (
{
automatic = 1;
code = "feature frac;
feature case;
";
tag = aalt;
},
{
automatic = 1;
code = "lookup ccmp_Other_1 {
	@CombiningTopAccents = [acutecomb brevecomb caroncomb circumflexcomb dieresiscomb dotaccentcomb gravecomb hungarumlautcomb macroncomb ringcomb tildecomb];
	@CombiningNonTopAccents = [cedillacomb ogonekcomb slashlongcomb slashshortcomb];
	sub [i j]' @CombiningTopAccents by [idotless jdotless];
	sub [i j]' @CombiningNonTopAccents @CombiningTopAccents by [idotless jdotless];
	@Markscomb = [dieresiscomb dotaccentcomb gravecomb acutecomb hungarumlautcomb circumflexcomb caroncomb brevecomb ringcomb tildecomb macroncomb slashshortcomb slashlongcomb];
	@MarkscombCase = [dieresiscomb.case dotaccentcomb.case gravecomb.case acutecomb.case hungarumlautcomb.case circumflexcomb.case caroncomb.case brevecomb.case ringcomb.case tildecomb.case macroncomb.case slashshortcomb.case slashlongcomb.case];

glyphs = (
{
color = 5;
glyphname = A;
lastChange = "2022-12-10 01:30:18 +0000";
layers = (
{
anchors = (
{
name = bottom;
pos = (340,0);
},
{
name = ogonek;
pos = (571,0);
},
{
name = top;
pos = (315,640);
}
);
background = {
shapes = (
{
closed = 1;
nodes = (
(318,640,l),
(74,63,l),
(0,24,l),
(0,0,l),
(236,0,l),
(236,15,l),
(154,72,l),
(311,534,l),
(303,534,l),
(479,72,l),
(389,24,l),
(389,0,l),
(654,0,l),
(654,15,l),
(588,63,l),
(345,640,l)
);
}
);
};
guides = (
{
pos = (304,562);
},
{
pos = (62,62);
},
{
pos = (64,72);
}
);
layerId = m01;
shapes = (
{
closed = 1;
nodes = (
(225,0,l),
(225,24,l),
(141,72,l),
(313,562,l),
(304,562,l),
(489,72,l),
(405,15,l),
(405,0,l),
(655,0,l),
(655,24,l),
(594,62,l),
(360,640,l),
(307,640,l),
(63,62,l),
(2,15,l),
(2,0,l)
);
},
{
closed = 1;
nodes = (
(491,209,l),
(491,252,l),
(166,252,l),
(166,209,l)
);
},
{
closed = 1;
nodes = (
(343,563,l),
(343,640,l),
(216,640,l),
(216,625,l),
(303,563,l)
);
}
);
width = 657;
},
{
anchors = (
{
name = bottom;
pos = (355,0);
},
{
name = ogonek;
pos = (600,0);
},
{
name = top;
pos = (331,640);
}
);
guides = (
{
pos = (62,79);
},
{
pos = (205,88);
}
);
layerId = "778ADD7E-4752-4796-8294-609F841445EC";
shapes = (
{
closed = 1;
nodes = (
(265,0,l),
(265,35,l),
(196,88,l),
(309,527,l),
(293,527,l),
(434,88,l),
(365,22,l),
(365,0,l),
(700,0,l),
(700,35,l),
(648,79,l),
(399,640,l),
(311,640,l),
(54,79,l),
(2,22,l),
(2,0,l)
);
},
{
closed = 1;
nodes = (
(481,166,l),
(481,226,l),
(170,226,l),
(170,166,l)
);
},
{
closed = 1;
nodes = (
(360,532,l),
(360,640,l),
(210,640,l),
(210,618,l),
(295,532,l)
);
}
);
width = 702;
},
{
anchors = (
{
name = bottom;
pos = (297,0);
},
{
name = ogonek;
pos = (528,10);
},
{
name = top;
pos = (272,640);
}
);
associatedMasterId = m01;
layerId = "363390C8-C499-4EEC-A2E9-4BF428213FF3";
name = "6 Nov 22, 10:15";
shapes = (
{
closed = 1;
nodes = (
(204,0,l),
(208,28,l),
(125,62,l),
(274,562,l),
(259,562,l),
(430,65,l),
(357,17,l),
(359,0,l),
(588,0,l),
(592,28,l),
(534,55,l),
(317,640,l),
(264,640,l),
(53,56,l),
(2,17,l),
(4,0,l)
);
},
{
closed = 1;
nodes = (
(439,203,l),
(439,248,l),
(132,248,l),
(132,203,l)
);
},
{
closed = 1;
nodes = (
(300,563,l),
(300,640,l),
(187,640,l),
(185,624,l),
(260,563,l)
);
}
);
width = 594;
},
{
anchors = (
{
name = bottom;
pos = (328,0);
},
{
name = ogonek;
pos = (559,0);
},
{
name = top;
pos = (303,640);
}
);
associatedMasterId = m01;
background = {
shapes = (
{
closed = 1;
nodes = (
(304,640,l),
(63,69,l),
(-14,25,l),
(-10,0,l),
(228,0,l),
(230,16,l),
(137,63,l),
(299,519,l),
(295,519,l),
(468,63,l),
(369,25,l),
(373,0,l),
(638,0,l),
(640,14,l),
(571,69,l),
(331,640,l)
);
}
);
};
layerId = "0111EC7A-006F-4AB8-B7F6-65C39290EE5F";
name = "27 Nov 22, 15:43";
shapes = (
{
closed = 1;
nodes = (
(209,0,l),
(213,24,l),
(130,62,l),
(305,562,l),
(290,562,l),
(471,65,l),
(398,15,l),
(400,0,l),
(634,0,l),
(638,24,l),
(575,55,l),
(348,640,l),
(295,640,l),
(58,56,l),
(2,15,l),
(4,0,l)
);
},
{
closed = 1;
nodes = (
(470,213,l),
(470,258,l),
(163,258,l),
(163,213,l)
);
},
{
closed = 1;
nodes = (
(331,563,l),
(331,640,l),
(206,640,l),
(204,625,l),
(291,563,l)
);
}
);
width = 640;
}
);
metricLeft = "=V";
metricRight = "=V";
unicode = 65;
},
{
color = 5;
glyphname = AE;
lastChange = "2022-12-11 05:30:25 +0000";
layers = (
{
anchors = (
{
name = bottom;
pos = (428,0);
},
{
name = top;
pos = (496,640);
}
);
background = {
shapes = (
{
closed = 1;
nodes = (
(831,0,l),
(831,52,l),
(511,39,l),
(511,0,l)
);
},
{
closed = 1;
nodes = (
(838,0,l),
(840,183,l),
(825,188,l),
(727,47,l),
(731,0,l)
);
},
{
closed = 1;
nodes = (
(707,354,l),
(489,346,l),
(489,306,l),
(707,300,l)
);
},
{
closed = 1;
nodes = (
(715,214,l),
(722,428,l),
(701,428,l),
(645,350,l),
(637,304,l),
(700,214,l)
);
},
{
closed = 1;
nodes = (
(799,640,l),
(449,640,l),
(449,601,l),
(799,588,l)
);
},
{
closed = 1;
nodes = (
(807,490,l),
(802,646,l),
(792,646,l),
(700,640,l),
(696,593,l),
(792,485,l)
);
}
);
};
layerId = m01;
shapes = (
{
closed = 1;
nodes = (
(225,0,l),
(225,24,l),
(136,65,l),
(376,589,l),
(420,589,l),
(420,640,l),
(353,640,l),
(53,54,l),
(2,15,l),
(2,0,l)
);
},
{
closed = 1;
nodes = (
(469,221,l),
(469,266,l),
(198,266,l),
(198,221,l)
);
},
{
closed = 1;
nodes = (
(819,0,l),
(819,52,l),
(508,43,l),
(508,0,l)
);
},
{
closed = 1;
nodes = (
(550,0,l),
(458,640,l),
(379,640,l),
(436,67,l),
(359,15,l),
(359,0,l)
);
},
{
closed = 1;
nodes = (
(347,563,l),
(369,640,l),
(248,640,l),
(248,625,l),
(335,563,l)
);
},
{
closed = 1;
nodes = (
(826,0,l),
(831,183,l),
(816,183,l),
(710,47,l),
(714,0,l)
);
},
{
closed = 1;
nodes = (
(707,354,l),
(471,344,l),
(471,308,l),
(707,300,l)
);
},
{
closed = 1;
nodes = (
(713,214,l),
(722,428,l),
(698,428,l),
(645,350,l),
(637,304,l),
(698,214,l)
);
},
{
closed = 1;
nodes = (
(789,640,l),
(449,640,l),
(449,593,l),
(791,583,l)
);
},
{
closed = 1;
nodes = (
(801,495,l),
(792,646,l),
(782,646,l),
(676,640,l),
(676,593,l),
(786,495,l)
);
}
);
width = 856;
},
{
anchors = (
{
name = bottom;
pos = (475,0);
},
{
name = top;
pos = (475,640);
}
);
layerId = "778ADD7E-4752-4796-8294-609F841445EC";
shapes = (
{
closed = 1;
nodes = (
(265,0,l),
(265,35,l),
(197,87,l),
(371,561,l),
(448,561,l),
(448,640,l),
(359,640,l),
(51,76,l),
(2,22,l),
(2,0,l)
);
},
{
closed = 1;
nodes = (
(488,204,l),
(488,262,l),
(195,262,l),
(195,204,l)
);
},
{
closed = 1;
nodes = (
(899,0,l),
(899,70,l),
(539,47,l),
(539,0,l)
);
},
{
closed = 1;
nodes = (
(633,0,l),
(517,640,l),
(384,640,l),
(444,87,l),
(376,22,l),
(376,0,l)
);
},
{
closed = 1;
nodes = (
(347,532,l),
(388,640,l),
(238,640,l),
(238,618,l),
(323,532,l)
);
},
{
closed = 1;
nodes = (
(920,0,l),
(927,221,l),
(905,221,l),
(733,47,l),
(733,0,l)
);
},
{
closed = 1;
nodes = (
(748,364,l),
(553,350,l),
(553,304,l),
(748,289,l)
);
},
{
closed = 1;
nodes = (
(793,197,l),
(793,445,l),
(758,445,l),
(670,350,l),
(670,308,l),
(771,197,l)
);
},
{
closed = 1;
nodes = (
(856,640,l),
(507,640,l),
(507,591,l),
(856,572,l)
);
},
{
closed = 1;
nodes = (
(884,471,l),
(876,656,l),
(841,656,l),
(670,640,l),
(670,600,l),
(862,471,l)
);
}
);
width = 950;
}
);
metricLeft = "=A";
metricRight = "=E";
unicode = 198;
},
{
color = 5;
glyphname = B;
lastChange = "2022-11-27 09:36:05 +0000";
layers = (
{
layerId = m01;
shapes = (
{
closed = 1;
nodes = (
(274,0,ls),
(438,0,o),
(553,82,o),
(553,199,cs),
(553,281,o),
(494,338,o),
(401,349,c),
(401,355,l),
(464,374,o),
(514,436,o),
(514,496,cs),
(514,596,o),
(447,640,o),
(293,640,cs),
(161,640,l),
(161,598,l),
(254,598,ls),
(369,598,o),
(426,559,o),
(426,480,cs),
(426,406,o),
(388,362,o),
(320,359,cs),
(162,351,l),
(162,315,l),
(289,315,ls),
(400,315,o),
(455,272,o),
(455,170,cs),
(455,86,o),
(403,45,o),
(297,45,cs),
(169,45,l),
(169,0,l)
);
},
{
closed = 1;
nodes = (
(200,0,l),
(200,640,l),
(40,640,l),
(40,625,l),
(110,575,l),
(110,65,l),
(40,15,l),
(40,0,l)
);
}
);
width = 589;
},
{
layerId = "778ADD7E-4752-4796-8294-609F841445EC";
shapes = (
{
closed = 1;
nodes = (
(301,0,ls),
(472,0,o),
(606,84,o),
(606,192,cs),
(606,281,o),
(537,344,o),
(426,355,c),
(426,361,l),
(508,387,o),
(566,448,o),
(566,510,cs),
(566,597,o),
(478,640,o),
(301,640,c),
(185,640,l),
(185,591,l),
(280,591,ls),
(359,591,o),
(403,545,o),
(403,473,cs),
(403,410,o),
(377,375,o),
(326,366,cs),
(220,348,l),
(220,310,l),
(292,310,ls),
(367,310,o),
(420,253,o),
(420,173,cs),
(420,101,o),
(382,54,o),
(315,54,cs),
(206,54,l),
(206,0,l)
);
},
{
closed = 1;
nodes = (
(263,0,l),
(263,640,l),
(23,640,l),
(23,618,l),
(80,548,l),
(80,92,l),
(23,22,l),
(23,0,l)
);
}
);
width = 634;
}
);
metricLeft = "=H";
metricRight = "=O*0.8";
unicode = 66;
},
{
color = 5;
glyphname = C;
lastChange = "2022-12-12 05:10:31 +0000";
layers = (
{
anchors = (
{
name = bottom;
pos = (355,0);
},
{
name = top;
pos = (369,640);
}
);
background = {
shapes = (
{
closed = 1;
nodes = (
(540,-16,o),
(670,131,o),
(670,341,cs),
(670,526,o),
(546,656,o),
(369,656,cs),
(185,656,o),
(55,509,o),
(55,299,cs),
(55,114,o),
(179,-16,o),
(356,-16,cs)
);
},
{
closed = 1;
nodes = (
(243,41,o),
(151,164,o),
(151,338,cs),
(151,512,o),
(218,599,o),
(352,599,cs),
(482,599,o),
(574,476,o),
(574,302,cs),
(574,128,o),
(507,41,o),
(373,41,cs)
);
}
);
};
layerId = m01;
shapes = (
{
closed = 1;
nodes = (
(479,-16,o),
(582,45,o),
(623,142,c),
(599,157,l),
(547,84,o),
(481,52,o),
(383,52,cs),
(241,52,o),
(141,178,o),
(141,358,cs),
(141,513,o),
(232,599,o),
(367,599,cs),
(417,599,o),
(455,588,o),
(504,560,c),
(504,621,l),
(423,621,l),
(535,471,l),
(550,471,l),
(609,593,l),
(552,633,o),
(466,656,o),
(369,656,cs),
(188,656,o),
(45,499,o),
(45,299,cs),
(45,114,o),
(173,-16,o),
(356,-16,cs)
);
}
);
width = 658;
},
{
anchors = (
{
name = bottom;
pos = (386,0);
},
{
name = top;
pos = (404,640);
}
);
background = {
shapes = (
{
closed = 1;
nodes = (
(551,-16,o),
(700,141,o),
(700,341,cs),
(700,535,o),
(574,656,o),
(374,656,cs),
(184,656,o),
(35,499,o),
(35,299,cs),
(35,105,o),
(161,-16,o),
(361,-16,cs)
);
},
{
closed = 1;
nodes = (
(285,55,o),
(220,191,o),
(220,408,cs),
(220,526,o),
(262,585,o),
(347,585,cs),
(450,585,o),
(515,449,o),
(515,232,cs),
(515,114,o),
(473,55,o),
(388,55,cs)
);
}
);
};
layerId = "778ADD7E-4752-4796-8294-609F841445EC";
shapes = (
{
closed = 1;
nodes = (
(512,-16,o),
(615,51,o),
(653,159,c),
(614,183,l),
(564,105,o),
(511,71,o),
(439,71,cs),
(293,71,o),
(220,179,o),
(220,398,cs),
(220,513,o),
(284,585,o),
(387,585,cs),
(417,585,o),
(441,580,o),
(467,567,c),
(467,602,l),
(409,602,l),
(562,428,l),
(584,428,l),
(644,593,l),
(580,637,o),
(507,656,o),
(404,656,cs),
(197,656,o),
(35,503,o),
(35,309,cs),
(35,101,o),
(161,-16,o),
(386,-16,cs)
);
}
);
width = 678;
},
{
anchors = (
{
name = bottom;
pos = (345,0);
},
{
name = top;
pos = (327,640);
}
);
associatedMasterId = m01;
layerId = "0CF4DF91-703F-41F2-9D65-CF6EB55C6607";
name = "17 Nov 22, 21:38";
shapes = (
{
closed = 1;
nodes = (
(469,-16,o),
(572,45,o),
(613,142,c),
(580,163,l),
(523,83,o),
(465,52,o),
(373,52,cs),
(230,52,o),
(141,166,o),
(141,348,cs),
(141,502,o),
(224,599,o),
(357,599,cs),
(419,599,o),
(466,584,o),
(514,550,c),
(534,453,l),
(579,457,l),
(599,593,l),
(537,637,o),
(468,656,o),
(374,656,cs),
(190,656,o),
(45,503,o),
(45,309,cs),
(45,118,o),
(169,-16,o),
(346,-16,cs)
);
}
);
width = 658;
},
{
anchors = (
{
name = bottom;
pos = (376,0);
},
{
name = top;
pos = (332,640);
}
);
associatedMasterId = "778ADD7E-4752-4796-8294-609F841445EC";
layerId = "7983C030-C1D3-4BED-B0BD-BBC146612F5B";
name = "17 Nov 22, 21:56";
shapes = (
{
closed = 1;
nodes = (
(502,-16,o),
(605,51,o),
(643,159,c),
(593,190,l),
(541,107,o),
(496,75,o),
(429,75,cs),
(295,75,o),
(220,191,o),
(220,398,cs),
(220,509,o),
(281,579,o),
(377,579,cs),
(416,579,o),
(447,571,o),
(480,553,c),
(540,411,l),
(582,417,l),
(634,593,l),
(570,637,o),
(497,656,o),
(394,656,cs),
(187,656,o),
(25,503,o),
(25,309,cs),
(25,109,o),
(160,-16,o),
(376,-16,cs)
);
}
);
width = 668;
}
);
metricLeft = "=O";
metricRight = "=O-10";
unicode = 67;
},
{
color = 5;
glyphname = D;
lastChange = "2022-12-10 09:22:29 +0000";
layers = (
{
anchors = (
{
name = bottom;
pos = (340,0);
},
{
name = center;
pos = (153,320);
},
{
name = top;
pos = (340,640);
}
);
layerId = m01;
shapes = (
{
closed = 1;
nodes = (
(305,0,ls),
(503,0,o),
(642,141,o),
(642,341,cs),
(642,533,o),
(525,640,o),
(316,640,c),
(175,640,l),
(175,595,l),
(287,595,ls),
(452,595,o),
(544,486,o),
(544,292,cs),
(544,127,o),
(467,45,o),
(312,45,c),
(175,45,l),
(175,0,l)
);
},
{
closed = 1;
nodes = (
(200,0,l),
(200,640,l),
(40,640,l),
(40,625,l),
(110,575,l),
(110,65,l),
(40,15,l),
(40,0,l)
);
}
);
width = 687;
},
{
anchors = (
{
name = bottom;
pos = (353,0);
},
{
name = center;
pos = (168,320);
},
{
name = top;
pos = (353,640);
}
);
layerId = "778ADD7E-4752-4796-8294-609F841445EC";
shapes = (
{
closed = 1;
nodes = (
(332,0,ls),
(532,0,o),
(682,154,o),
(682,351,cs),
(682,536,o),
(548,640,o),
(308,640,cs),
(176,640,l),
(176,585,l),
(312,585,ls),
(424,585,o),
(495,474,o),
(495,296,cs),
(495,148,o),
(437,55,o),
(345,55,c),
(176,55,l),
(176,0,l)
);
},
{
closed = 1;
nodes = (
(263,0,l),
(263,640,l),
(23,640,l),
(23,618,l),
(80,548,l),
(80,92,l),
(23,22,l),
(23,0,l)
);
}
);
width = 717;
}
);
metricLeft = "=H";
metricRight = "=O";
unicode = 68;
},
{
color = 5;
glyphname = E;
lastChange = "2022-12-10 01:32:10 +0000";
layers = (
{
anchors = (
{
name = bottom;
pos = (290,0);
},
{
name = ogonek;
pos = (479,0);
},
{
name = top;
pos = (290,640);
},
{
name = topleft;
pos = (21,640);
}
);
layerId = m01;
shapes = (
{
closed = 1;
nodes = (
(200,0,l),
(200,640,l),
(40,640,l),
(40,625,l),
(110,575,l),
(110,65,l),
(40,15,l),
(40,0,l)
);
},
{
closed = 1;
nodes = (
(545,0,l),
(545,52,l),
(185,37,l),
(185,0,l)
);
},
{
closed = 1;
nodes = (
(552,0,l),
(557,183,l),
(542,183,l),
(436,47,l),
(440,0,l)
);
},
{
closed = 1;
nodes = (
(423,354,l),
(177,343,l),
(177,309,l),
(423,300,l)
);
},
{
closed = 1;
nodes = (
(429,214,l),
(438,428,l),
(414,428,l),
(361,350,l),
(353,304,l),
(414,214,l)
);
},
{
closed = 1;
nodes = (
(525,640,l),
(185,640,l),
(185,603,l),
(525,588,l)
);
},
{
closed = 1;
nodes = (
(537,495,l),
(528,646,l),
(518,646,l),
(412,640,l),
(412,593,l),
(522,495,l)
);
}
);
width = 582;
},
{
anchors = (
{
name = bottom;
pos = (291,0);
},
{
name = ogonek;
pos = (508,0);
},
{
name = top;
pos = (291,640);
},
{
name = topleft;
pos = (1,640);
}
);
layerId = "778ADD7E-4752-4796-8294-609F841445EC";
shapes = (
{
closed = 1;
nodes = (
(263,0,l),
(263,640,l),
(23,640,l),
(23,618,l),
(80,548,l),
(80,92,l),
(23,22,l),
(23,0,l)
);
},
{
closed = 1;
nodes = (
(558,0,l),
(558,70,l),
(188,42,l),
(188,0,l)
);
},
{
closed = 1;
nodes = (
(579,0,l),
(586,221,l),
(564,221,l),
(392,47,l),
(392,0,l)
);
},
{
closed = 1;
nodes = (
(416,364,l),
(237,350,l),
(237,304,l),
(416,289,l)
);
},
{
closed = 1;
nodes = (
(461,197,l),
(461,445,l),
(426,445,l),
(338,350,l),
(338,308,l),
(439,197,l)
);
},
{
closed = 1;
nodes = (
(534,640,l),
(184,640,l),
(184,600,l),
(534,572,l)
);
},
{
closed = 1;
nodes = (
(562,461,l),
(554,656,l),
(519,656,l),
(348,640,l),
(348,600,l),
(540,461,l)
);
}
);
width = 609;
},
{
anchors = (
{
name = bottom;
pos = (294,0);
},
{
name = ogonek;
pos = (483,10);
},
{
name = top;
pos = (294,640);
},
{
name = topleft;
pos = (25,640);
}
);
associatedMasterId = m01;
layerId = "FA479D06-7CB8-42D7-916F-D972B725C066";
name = "17 Nov 22, 21:33";
shapes = (
{
closed = 1;
nodes = (
(204,0,l),
(204,640,l),
(47,640,l),
(45,623,l),
(114,575,l),
(114,65,l),
(45,17,l),
(47,0,l)
);
},
{
closed = 1;
nodes = (
(539,0,l),
(539,52,l),
(189,39,l),
(189,0,l)
);
},
{
closed = 1;
nodes = (
(546,0,l),
(548,177,l),
(512,184,l),
(455,47,l),
(409,0,l)
);
},
{
closed = 1;
nodes = (
(417,300,l),
(417,354,l),
(181,346,l),
(181,306,l)
);
},
{
closed = 1;
nodes = (
(425,214,l),
(432,428,l),
(400,428,l),
(365,350,l),
(357,304,l),
(405,214,l)
);
},
{
closed = 1;
nodes = (
(519,640,l),
(189,640,l),
(189,601,l),
(519,588,l)
);
},
{
closed = 1;
nodes = (
(529,493,l),
(522,646,l),
(512,646,l),
(390,640,l),
(436,593,l),
(493,486,l)
);
}
);
width = 587;
}
);
metricLeft = "=H";
metricRight = "=H";
unicode = 69;
},
{
color = 5;
glyphname = F;
lastChange = "2022-12-10 01:32:16 +0000";
layers = (
{
background = {
shapes = (
{
closed = 1;
nodes = (
(200,0,l),
(200,640,l),
(40,640,l),
(40,625,l),
(110,575,l),
(110,65,l),
(40,15,l),
(40,0,l)
);
},
{
closed = 1;
nodes = (
(535,0,l),
(535,52,l),
(185,37,l),
(185,0,l)
);
},
{
closed = 1;
nodes = (
(542,0,l),
(547,183,l),
(532,183,l),
(426,47,l),
(430,0,l)
);
},
{
closed = 1;
nodes = (
(413,354,l),
(177,343,l),
(177,309,l),
(413,300,l)
);
},
{
closed = 1;
nodes = (
(419,214,l),
(428,428,l),
(404,428,l),
(351,350,l),
(343,304,l),
(404,214,l)
);
},
{
closed = 1;
nodes = (
(515,640,l),
(185,640,l),
(185,603,l),
(515,588,l)
);
},
{
closed = 1;
nodes = (
(527,495,l),
(518,646,l),
(508,646,l),
(406,640,l),
(402,593,l),
(512,495,l)
);
}
);
};
layerId = m01;
shapes = (
{
closed = 1;
nodes = (
(300,0,l),
(300,24,l),
(200,63,l),
(200,640,l),
(40,640,l),
(40,625,l),
(110,575,l),
(110,65,l),
(40,15,l),
(40,0,l)
);
},
{
closed = 1;
nodes = (
(427,339,l),
(177,328,l),
(177,294,l),
(427,285,l)
);
},
{
closed = 1;
nodes = (
(433,199,l),
(442,413,l),
(418,413,l),
(365,335,l),
(357,289,l),
(418,199,l)
);
},
{
closed = 1;
nodes = (
(506,640,l),
(166,640,l),
(166,603,l),
(506,588,l)
);
},
{
closed = 1;
nodes = (
(515,489,l),
(509,646,l),
(499,646,l),
(396,640,l),
(396,593,l),
(500,489,l)
);
}
);
width = 540;
},
{
layerId = "778ADD7E-4752-4796-8294-609F841445EC";
shapes = (
{
closed = 1;
nodes = (
(360,0,l),
(360,35,l),
(263,83,l),
(263,640,l),
(23,640,l),
(23,618,l),
(80,548,l),
(80,92,l),
(23,22,l),
(23,0,l)
);
},
{
closed = 1;
nodes = (
(405,342,l),
(226,328,l),
(226,282,l),
(405,267,l)
);
},
{
closed = 1;
nodes = (
(450,175,l),
(450,423,l),
(415,423,l),
(327,328,l),
(327,286,l),
(428,175,l)
);
},
{
closed = 1;
nodes = (
(519,640,l),
(169,640,l),
(169,600,l),
(519,574,l)
);
},
{
closed = 1;
nodes = (
(537,450,l),
(529,656,l),
(494,656,l),
(327,640,l),
(327,600,l),
(515,450,l)
);
}
);
width = 560;
},
{
associatedMasterId = m01;
layerId = "A6A1025C-04E5-4557-9211-3D902AF2500E";
name = "17 Nov 22, 21:34";
shapes = (
{
closed = 1;
nodes = (
(304,0,l),
(308,28,l),
(204,63,l),
(204,640,l),
(47,640,l),
(45,623,l),
(114,575,l),
(114,65,l),
(45,17,l),
(47,0,l)
);
},
{
closed = 1;
nodes = (
(418,290,l),
(418,344,l),
(177,336,l),
(177,295,l)
);
},
{
closed = 1;
nodes = (
(426,199,l),
(433,414,l),
(401,414,l),
(366,340,l),
(358,294,l),
(406,199,l)
);
},
{
closed = 1;
nodes = (
(513,640,l),
(183,640,l),
(183,601,l),
(513,588,l)
);
},
{
closed = 1;
nodes = (
(515,495,l),
(516,646,l),
(506,646,l),
(384,640,l),
(430,593,l),
(476,488,l)
);
}
);
width = 535;
}
);
metricLeft = "=H";
metricRight = "=H";
unicode = 70;
},
{
color = 5;
glyphname = G;
lastChange = "2022-12-12 05:10:26 +0000";
layers = (
{
anchors = (
{
name = bottom;
pos = (371,0);
},
{
name = top;
pos = (369,640);
}
);
layerId = m01;
shapes = (
{
closed = 1;
nodes = (
(466,-16,o),
(564,63,o),
(593,176,c),
(570,183,l),
(536,92,o),
(479,52,o),
(383,52,cs),
(241,52,o),
(141,178,o),
(141,358,cs),
(141,513,o),
(232,599,o),
(367,599,cs),
(427,599,o),
(468,587,o),
(517,555,c),
(517,610,l),
(441,610,l),
(558,473,l),
(573,473,l),
(623,596,l),
(552,638,o),
(475,656,o),
(369,656,cs),
(188,656,o),
(45,499,o),
(45,299,cs),
(45,114,o),
(173,-16,o),
(356,-16,cs)
);
},
{
closed = 1;
nodes = (
(619,-16,l),
(619,243,l),
(696,274,l),
(696,298,l),
(448,298,l),
(448,283,l),
(525,225,l),
(525,75,l),
(531,75,l),
(604,-16,l)
);
}
);
width = 721;
},
{
anchors = (
{
name = bottom;
pos = (387,0);
},
{
name = top;
pos = (404,640);
}
);
layerId = "778ADD7E-4752-4796-8294-609F841445EC";
shapes = (
{
closed = 1;
nodes = (
(466,-16,o),
(522,10,o),
(572,71,c),
(542,101,l),
(503,79,o),
(477,71,o),
(439,71,cs),
(293,71,o),
(220,179,o),
(220,398,cs),
(220,513,o),
(284,585,o),
(387,585,cs),
(440,585,o),
(462,572,o),
(487,552,c),
(487,620,l),
(405,620,l),
(577,427,l),
(599,427,l),
(676,589,l),
(600,636,o),
(517,656,o),
(404,656,cs),
(197,656,o),
(35,503,o),
(35,309,cs),
(35,101,o),
(161,-16,o),
(386,-16,cs)
);
},
{
closed = 1;
nodes = (
(668,-16,l),
(668,230,l),
(742,280,l),
(742,315,l),
(418,315,l),
(418,293,l),
(485,221,l),
(485,71,l),
(534,71,l),
(633,-16,l)
);
}
);
width = 765;
},
{
anchors = (
{
name = bottom;
pos = (361,0);
},
{
name = top;
pos = (361,640);
}
);
associatedMasterId = m01;
layerId = "F7EC8CBB-DD1C-4AE6-991D-53893B2FDE3C";
name = "10 Nov 22, 12:51";
shapes = (
{
closed = 1;
nodes = (
(452,-16,o),
(541,53,o),
(593,176,c),
(560,183,l),
(505,88,o),
(453,52,o),
(373,52,cs),
(234,52,o),
(136,174,o),
(136,348,cs),
(136,502,o),
(221,599,o),
(357,599,cs),
(425,599,o),
(477,580,o),
(529,538,c),
(546,454,l),
(588,460,l),
(614,594,l),
(547,637,o),
(474,656,o),
(374,656,cs),
(187,656,o),
(40,503,o),
(40,309,cs),
(40,118,o),
(166,-16,o),
(346,-16,cs)
);
},
{
closed = 1;
nodes = (
(609,-16,l),
(609,238,l),
(686,270,l),
(682,298,l),
(438,298,l),
(438,276,l),
(515,239,l),
(515,75,l),
(584,-16,l)
);
}
);
width = 715;
},
{
anchors = (
{
name = bottom;
pos = (361,0);
},
{
name = top;
pos = (361,640);
}
);
associatedMasterId = m01;
layerId = "335F377F-5C47-4168-86B7-DA6228DF6504";
name = "17 Nov 22, 21:40";
shapes = (
{
closed = 1;
nodes = (
(452,-16,o),
(541,53,o),
(593,176,c),
(560,183,l),
(505,88,o),
(453,52,o),
(373,52,cs),
(230,52,o),
(141,166,o),
(141,348,cs),
(141,502,o),
(224,599,o),
(357,599,cs),
(425,599,o),
(477,580,o),
(529,538,c),
(546,454,l),
(588,460,l),
(614,594,l),
(547,637,o),
(474,656,o),
(374,656,cs),
(190,656,o),
(45,503,o),
(45,309,cs),
(45,118,o),
(169,-16,o),
(346,-16,cs)
);
},
{
closed = 1;
nodes = (
(609,-16,l),
(609,238,l),
(686,270,l),
(682,298,l),
(438,298,l),
(438,276,l),
(515,239,l),
(515,75,l),
(584,-16,l)
);
}
);
width = 715;
},
{
anchors = (
{
name = bottom;
pos = (361,0);
},
{
name = top;
pos = (361,640);
}
);
associatedMasterId = m01;
layerId = "FDE2FF97-862F-4E7E-8630-6FED5EE54729";
name = "18 Nov 22, 19:33";
shapes = (
{
closed = 1;
nodes = (
(452,-16,o),
(541,53,o),
(593,176,c),
(560,183,l),
(505,88,o),
(453,52,o),
(373,52,cs),
(230,52,o),
(141,166,o),
(141,348,cs),
(141,502,o),
(224,599,o),
(357,599,cs),
(398,599,o),
(420,595,o),
(445,584,c),
(554,458,l),
(575,460,l),
(618,601,l),
(548,641,o),
(480,656,o),
(374,656,cs),
(190,656,o),
(45,503,o),
(45,309,cs),
(45,118,o),
(169,-16,o),
(346,-16,cs)
);
},
{
closed = 1;
nodes = (
(609,-16,l),
(609,238,l),
(686,270,l),
(682,298,l),
(438,298,l),
(438,276,l),
(515,239,l),
(515,75,l),
(584,-16,l)
);
}
);
width = 715;
}
);
metricLeft = "=O";
metricRight = "=H";
unicode = 71;
},
{
color = 5;
glyphname = H;
lastChange = "2022-12-10 07:08:36 +0000";
layers = (
{
anchors = (
{
name = bottom;
pos = (363,0);
},
{
name = center;
pos = (363,476);
},
{
name = top;
pos = (363,640);
},
{
name = topleft;
pos = (21,640);
}
);
guides = (
{
angle = 90;
pos = (285,24);
},
{
angle = 90;
pos = (41,15);
}
);
layerId = m01;
shapes = (
{
closed = 1;
nodes = (
(701,0,l),
(701,24,l),
(616,63,l),
(616,577,l),
(701,616,l),
(701,640,l),
(456,640,l),
(456,625,l),
(526,575,l),
(526,65,l),
(456,15,l),
(456,0,l)
);
},
{
closed = 1;
nodes = (
(285,0,l),
(285,24,l),
(200,63,l),
(200,577,l),
(285,616,l),
(285,640,l),
(40,640,l),
(40,625,l),
(110,575,l),
(110,65,l),
(40,15,l),
(40,0,l)
);
},
{
closed = 1;
nodes = (
(549,311,l),
(549,359,l),
(177,359,l),
(177,311,l)
);
}
);
width = 726;
},
{
anchors = (
{
name = bottom;
pos = (374,0);
},
{
name = center;
pos = (374,478);
},
{
name = top;
pos = (379,640);
},
{
name = topleft;
pos = (-4,640);
}
);
layerId = "778ADD7E-4752-4796-8294-609F841445EC";
shapes = (
{
closed = 1;
nodes = (
(729,0,l),
(729,35,l),
(672,83,l),
(672,557,l),
(729,605,l),
(729,640,l),
(432,640,l),
(432,618,l),
(489,548,l),
(489,92,l),
(432,22,l),
(432,0,l)
);
},
{
closed = 1;
nodes = (
(320,0,l),
(320,35,l),
(263,83,l),
(263,557,l),
(320,605,l),
(320,640,l),
(23,640,l),
(23,618,l),
(80,548,l),
(80,92,l),
(23,22,l),
(23,0,l)
);
},
{
closed = 1;
nodes = (
(573,294,l),
(573,364,l),
(152,364,l),
(152,294,l)
);
}
);
width = 752;
},
{
anchors = (
{
name = bottom;
pos = (363,0);
},
{
name = center;
pos = (363,320);
},
{
name = top;
pos = (363,640);
},
{
name = topleft;
pos = (21,640);
}
);
associatedMasterId = m01;
guides = (
{
angle = 90;
pos = (285,24);
},
{
angle = 90;
pos = (41,15);
}
);
layerId = "226845E8-4F3E-40B1-9EB6-0581B7C337AE";
name = "27 Nov 22, 08:44";
shapes = (
{
closed = 1;
nodes = (
(697,0,l),
(701,24,l),
(616,63,l),
(616,577,l),
(701,616,l),
(697,640,l),
(459,640,l),
(457,625,l),
(526,575,l),
(526,65,l),
(457,15,l),
(459,0,l)
);
},
{
closed = 1;
nodes = (
(281,0,l),
(285,24,l),
(200,63,l),
(200,577,l),
(285,616,l),
(281,640,l),
(43,640,l),
(41,625,l),
(110,575,l),
(110,65,l),
(41,15,l),
(43,0,l)
);
},
{
closed = 1;
nodes = (
(549,311,l),
(549,359,l),
(177,359,l),
(177,311,l)
);
}
);
width = 726;
}
);
unicode = 72;
},
{
color = 5;
glyphname = I;
lastChange = "2022-11-27 07:25:34 +0000";
layers = (
{
anchors = (
{
name = bottom;
pos = (155,0);
},
{
name = ogonek;
pos = (241,10);
},
{
name = top;
pos = (155,640);
},
{
name = topleft;
pos = (21,640);
}
);
layerId = m01;
shapes = (
{
closed = 1;
nodes = (
(285,0,l),
(285,24,l),
(200,63,l),
(200,577,l),
(285,616,l),
(285,640,l),
(40,640,l),
(40,625,l),
(110,575,l),
(110,65,l),
(40,15,l),
(40,0,l)
);
}
);
width = 310;
},
{
anchors = (
{
name = bottom;
pos = (169,0);
},
{
name = ogonek;
pos = (275,10);
},
{
name = top;
pos = (169,640);
},
{
name = topleft;
pos = (1,640);
}
);
layerId = "778ADD7E-4752-4796-8294-609F841445EC";
shapes = (
{
closed = 1;
nodes = (
(320,0,l),
(320,35,l),
(263,83,l),
(263,557,l),
(320,605,l),
(320,640,l),
(23,640,l),
(23,618,l),
(80,548,l),
(80,92,l),
(23,22,l),
(23,0,l)
);
}
);
width = 343;
}
);
metricLeft = "=H";
metricRight = "=H";
unicode = 73;
},
{
color = 5;
glyphname = J;
lastChange = "2022-11-27 07:57:31 +0000";
layers = (
{
layerId = m01;
shapes = (
{
closed = 1;
nodes = (
(131,-176,o),
(200,-57,o),
(200,73,cs),
(200,577,l),
(285,616,l),
(285,640,l),
(40,640,l),
(40,625,l),
(110,575,l),
(110,-102,l),
(128,-85,l),
(-1,-123,l),
(-2,-128,l),
(19,-207,l),
(33,-214,l)
);
}
);
width = 310;
},
{
layerId = "778ADD7E-4752-4796-8294-609F841445EC";
shapes = (
{
closed = 1;
nodes = (
(186,-150,o),
(263,-32,o),
(263,116,cs),
(263,557,l),
(320,605,l),
(320,640,l),
(23,640,l),
(23,618,l),
(80,548,l),
(80,-127,l),
(99,-77,l),
(-63,-104,l),
(-74,-118,l),
(-26,-256,l),
(10,-271,l)
);
}
);
width = 343;
}
);
metricLeft = "=H@100";
metricRight = "=H";
unicode = 74;
},
{
color = 5;
glyphname = K;
lastChange = "2022-12-02 04:50:27 +0000";
layers = (
{
layerId = m01;
shapes = (
{
closed = 1;
nodes = (
(297,336,l),
(569,598,l),
(503,640,l),
(168,247,l),
(168,185,l)
);
},
{
closed = 1;
nodes = (
(285,0,l),
(285,24,l),
(200,63,l),
(200,577,l),
(285,616,l),
(285,640,l),
(40,640,l),
(40,625,l),
(110,575,l),
(110,65,l),
(40,15,l),
(40,0,l)
);
},
{
closed = 1;
nodes = (
(670,0,l),
(670,24,l),
(547,85,l),
(506,85,l),
(444,15,l),
(444,0,l)
);
},
{
closed = 1;
nodes = (
(639,0,l),
(324,398,l),
(268,334,l),
(524,0,l)
);
},
{
closed = 1;
nodes = (
(517,558,l),
(647,616,l),
(647,640,l),
(410,640,l),
(410,625,l),
(497,558,l)
);
}
);
width = 680;
},
{
layerId = "778ADD7E-4752-4796-8294-609F841445EC";
shapes = (
{
closed = 1;
nodes = (
(407,401,l),
(675,591,l),
(515,640,l),
(198,246,l),
(218,204,l)
);
},
{
closed = 1;
nodes = (
(320,0,l),
(320,35,l),
(263,83,l),
(263,557,l),
(320,605,l),
(320,640,l),
(23,640,l),
(23,618,l),
(80,548,l),
(80,92,l),
(23,22,l),
(23,0,l)
);
},
{
closed = 1;
nodes = (
(739,0,l),
(739,35,l),
(634,101,l),
(460,101,l),
(422,22,l),
(422,0,l)
);
},
{
closed = 1;
nodes = (
(725,0,l),
(413,433,l),
(303,326,l),
(484,0,l)
);
},
{
closed = 1;
nodes = (
(598,547,l),
(714,605,l),
(714,640,l),
(430,640,l),
(430,618,l),
(491,547,l)
);
}
);
width = 744;
},
{
associatedMasterId = "778ADD7E-4752-4796-8294-609F841445EC";
layerId = "30E3F906-B940-48EE-B88B-508FFF6F859D";
name = "5 Nov 22, 16:54";
shapes = (
{
closed = 1;
nodes = (
(396,412,l),
(664,591,l),
(514,640,l),
(179,240,l),
(192,203,l)
);
},
{
closed = 1;
nodes = (
(316,0,l),
(320,43,l),
(262,70,l),
(262,570,l),
(328,601,l),
(324,640,l),
(37,640,l),
(35,608,l),
(79,570,l),
(79,70,l),
(35,32,l),
(37,0,l)
);
},
{
closed = 1;
nodes = (
(724,0,l),
(728,43,l),
(650,86,l),
(432,64,l),
(398,32,l),
(400,0,l)
);
},
{
closed = 1;
nodes = (
(714,0,l),
(399,443,l),
(282,336,l),
(463,0,l)
);
},
{
closed = 1;
nodes = (
(703,597,l),
(699,640,l),
(412,640,l),
(410,601,l),
(469,563,l),
(602,550,l)
);
}
);
width = 738;
}
);
metricLeft = "=H";
unicode = 75;
},
{
color = 5;
glyphname = L;
lastChange = "2022-12-10 09:18:17 +0000";
layers = (
{
anchors = (
{
name = bottom;
pos = (278,0);
},
{
name = center;
pos = (158,320);
},
{
name = top;
pos = (278,640);
},
{
name = topright;
pos = (289,640);
}
);
background = {
shapes = (
{
closed = 1;
nodes = (
(200,0,l),
(200,640,l),
(40,640,l),
(40,625,l),
(110,575,l),
(110,65,l),
(40,15,l),
(40,0,l)
);
},
{
closed = 1;
nodes = (
(535,0,l),
(535,52,l),
(185,37,l),
(185,0,l)
);
},
{
closed = 1;
nodes = (
(542,0,l),
(547,183,l),
(532,183,l),
(426,47,l),
(430,0,l)
);
},
{
closed = 1;
nodes = (
(413,354,l),
(177,343,l),
(177,309,l),
(413,300,l)
);
},
{
closed = 1;
nodes = (
(419,214,l),
(428,428,l),
(404,428,l),
(351,350,l),
(343,304,l),
(404,214,l)
);
},
{
closed = 1;
nodes = (
(515,640,l),
(185,640,l),
(185,603,l),
(515,588,l)
);
},
{
closed = 1;
nodes = (
(527,495,l),
(518,646,l),
(508,646,l),
(402,640,l),
(402,593,l),
(512,495,l)
);
}
);
};
layerId = m01;
shapes = (
{
closed = 1;
nodes = (
(525,0,l),
(525,53,l),
(175,38,l),
(175,0,l)
);
},
{
closed = 1;
nodes = (
(532,0,l),
(542,234,l),
(527,234,l),
(403,38,l),
(403,0,l)
);
},
{
closed = 1;
nodes = (
(200,577,l),
(289,616,l),
(289,640,l),
(40,640,l),
(40,625,l),
(110,575,l),
(110,65,l),
(40,15,l),
(40,0,l),
(200,0,l)
);
}
);
width = 567;
},
{
anchors = (
{
name = bottom;
pos = (286,0);
},
{
name = center;
pos = (166,320);
},
{
name = top;
pos = (286,640);
},
{
name = topright;
pos = (336,640);
}
);
layerId = "778ADD7E-4752-4796-8294-609F841445EC";
shapes = (
{
closed = 1;
nodes = (
(552,0,l),
(552,65,l),
(154,42,l),
(154,0,l)
);
},
{
closed = 1;
nodes = (
(569,0,l),
(576,304,l),
(554,304,l),
(378,47,l),
(422,0,l)
);
},
{
closed = 1;
nodes = (
(263,557,l),
(336,605,l),
(336,640,l),
(23,640,l),
(23,618,l),
(80,548,l),
(80,92,l),
(23,22,l),
(23,0,l),
(263,0,l)
);
}
);
width = 599;
},
{
associatedMasterId = "778ADD7E-4752-4796-8294-609F841445EC";
layerId = "E0E377F9-615E-41D6-AD0F-7384315B7DC2";
name = "17 Nov 22, 21:46";
shapes = (
{
closed = 1;
nodes = (
(282,0,l),
(282,570,l),
(364,597,l),
(360,640,l),
(42,640,l),
(40,608,l),
(99,570,l),
(99,70,l),
(40,32,l),
(42,0,l)
);
},
{
closed = 1;
nodes = (
(543,0,l),
(543,70,l),
(173,47,l),
(173,0,l)
);
},
{
closed = 1;
nodes = (
(560,0,l),
(573,304,l),
(531,308,l),
(409,47,l),
(413,0,l)
);
}
);
width = 603;
}
);
metricLeft = "=H";
metricRight = "=H";
unicode = 76;
},
{
color = 5;
glyphname = M;
lastChange = "2022-12-10 01:26:33 +0000";
layers = (
{
guides = (
{
pos = (57,570);
}
);
layerId = m01;
shapes = (
{
closed = 1;
nodes = (
(451,-3,l),
(706,640,l),
(630,640,l),
(455,104,l),
(469,104,l),
(265,640,l),
(153,640,l),
(423,-3,l)
);
},
{
closed = 1;
nodes = (
(264,0,l),
(264,24,l),
(179,63,l),
(181,583,l),
(181,640,l),
(59,640,l),
(59,625,l),
(129,575,l),
(110,65,l),
(40,15,l),
(40,0,l)
);
},
{
closed = 1;
nodes = (
(869,0,l),
(869,24,l),
(784,63,l),
(769,577,l),
(854,616,l),
(854,640,l),
(679,640,l),
(694,65,l),
(624,15,l),
(624,0,l)
);
}
);
width = 894;
},
{
guides = (
{
pos = (454,514);
}
);
layerId = "778ADD7E-4752-4796-8294-609F841445EC";
shapes = (
{
closed = 1;
nodes = (
(488,0,l),
(702,640,l),
(581,640,l),
(475,110,l),
(505,110,l),
(341,640,l),
(134,640,l),
(388,0,l)
);
},
{
closed = 1;
nodes = (
(255,0,l),
(255,35,l),
(198,83,l),
(178,587,l),
(178,640,l),
(68,640,l),
(68,618,l),
(132,554,l),
(80,92,l),
(23,22,l),
(23,0,l)
);
},
{
closed = 1;
nodes = (
(932,0,l),
(932,35,l),
(875,83,l),
(840,556,l),
(899,605,l),
(899,640,l),
(656,640,l),
(692,92,l),
(635,22,l),
(635,0,l)
);
}
);
width = 955;
},
{
associatedMasterId = "778ADD7E-4752-4796-8294-609F841445EC";
layerId = "3D604388-4AE7-4ED6-A603-B9E905BE34B0";
name = "20 Oct 22, 10:53";
shapes = (
{
closed = 1;
nodes = (
(461,0,l),
(649,640,l),
(541,640,l),
(450,129,l),
(466,129,l),
(323,640,l),
(129,640,l),
(352,0,l)
);
},
{
closed = 1;
nodes = (
(246,0,l),
(250,38,l),
(184,65,l),
(184,640,l),
(37,640,l),
(35,613,l),
(94,575,l),
(94,65,l),
(35,27,l),
(37,0,l)
);
},
{
closed = 1;
nodes = (
(860,0,l),
(864,38,l),
(792,65,l),
(792,575,l),
(864,602,l),
(860,640,l),
(604,640,l),
(604,65,l),
(560,27,l),
(562,0,l)
);
}
);
width = 886;
},
{
associatedMasterId = m01;
layerId = "20323A22-5084-4C8C-B21A-C62E4B12804A";
name = "20 Oct 22, 10:53";
shapes = (
{
closed = 1;
nodes = (
(426,-3,l),
(681,640,l),
(591,640,l),
(432,127,l),
(439,127,l),
(255,640,l),
(139,640,l),
(398,-3,l)
);
},
{
closed = 1;
nodes = (
(240,0,l),
(244,28,l),
(169,63,l),
(169,640,l),
(42,640,l),
(40,623,l),
(109,575,l),
(109,65,l),
(40,17,l),
(42,0,l)
);
},
{
closed = 1;
nodes = (
(823,0,l),
(827,28,l),
(742,63,l),
(742,577,l),
(827,612,l),
(823,640,l),
(652,640,l),
(652,65,l),
(587,17,l),
(589,0,l)
);
}
);
width = 851;
}
);
metricLeft = "=H";
metricRight = "=H";
unicode = 77;
},
{
color = 5;
glyphname = N;
lastChange = "2022-12-10 01:32:47 +0000";
layers = (
{
anchors = (
{
name = bottom;
pos = (354,0);
},
{
name = top;
pos = (354,640);
}
);
layerId = m01;
shapes = (
{
closed = 1;
nodes = (
(619,-6,l),
(631,577,l),
(715,616,l),
(715,640,l),
(490,640,l),
(490,625,l),
(560,575,l),
(573,90,l),
(609,93,l),
(206,640,l),
(86,640,l),
(585,-6,l)
);
},
{
closed = 1;
nodes = (
(265,0,l),
(265,24,l),
(180,63,l),
(165,575,l),
(170,640,l),
(41,640,l),
(41,625,l),
(113,575,l),
(110,65,l),
(40,15,l),
(40,0,l)
);
}
);
width = 740;
},
{
anchors = (
{
name = bottom;
pos = (367,0);
},
{
name = top;
pos = (398,640);
}
);
layerId = "778ADD7E-4752-4796-8294-609F841445EC";
shapes = (
{
closed = 1;
nodes = (
(634,0,l),
(666,558,l),
(722,605,l),
(722,640,l),
(495,640,l),
(495,618,l),
(552,548,l),
(590,97,l),
(620,97,l),
(292,640,l),
(78,640,l),
(521,0,l)
);
},
{
closed = 1;
nodes = (
(255,0,l),
(255,35,l),
(198,83,l),
(156,575,l),
(156,640,l),
(41,640,l),
(41,618,l),
(108,551,l),
(80,92,l),
(23,22,l),
(23,0,l)
);
}
);
width = 745;
},
{
associatedMasterId = "778ADD7E-4752-4796-8294-609F841445EC";
layerId = "EB96AABD-D24B-4C7D-9D5C-A4395984F93C";
name = "20 Oct 22, 08:33";
shapes = (
{
closed = 1;
nodes = (
(600,0,l),
(600,640,l),
(510,640,l),
(510,68,l),
(572,117,l),
(291,640,l),
(77,640,l),
(485,0,l)
);
},
{
closed = 1;
nodes = (
(254,0,l),
(258,38,l),
(184,65,l),
(184,640,l),
(37,640,l),
(35,613,l),
(94,575,l),
(94,65,l),
(35,27,l),
(37,0,l)
);
},
{
closed = 1;
nodes = (
(600,575,l),
(672,602,l),
(668,640,l),
(463,640,l),
(461,613,l),
(510,575,l)
);
}
);
width = 679;
},
{
associatedMasterId = m01;
layerId = "9D5B240E-6BFB-46A8-B7EF-5B5E3DEF1B62";
name = "20 Oct 22, 08:33";
shapes = (
{
closed = 1;
nodes = (
(604,-6,l),
(604,640,l),
(544,640,l),
(544,141,l),
(556,141,l),
(206,640,l),
(82,640,l),
(572,-6,l)
);
},
{
closed = 1;
nodes = (
(254,0,l),
(258,28,l),
(169,63,l),
(169,640,l),
(42,640,l),
(40,623,l),
(109,575,l),
(109,65,l),
(40,17,l),
(42,0,l)
);
},
{
closed = 1;
nodes = (
(604,577,l),
(689,612,l),
(685,640,l),
(473,640,l),
(471,623,l),
(544,575,l)
);
}
);
width = 698;
}
);
metricLeft = "=H";
metricRight = "=H";
unicode = 78;
},
{
color = 5;
glyphname = Eng;
lastChange = "2022-12-10 09:19:02 +0000";
layers = (
{
anchors = (
{
name = bottom;
pos = (354,0);
},
{
name = top;
pos = (354,640);
}
);
layerId = m01;
shapes = (
{
closed = 1;
nodes = (
(616,577,l),
(700,616,l),
(700,640,l),
(475,640,l),
(475,625,l),
(545,575,l),
(558,90,l),
(594,93,l),
(206,640,l),
(86,640,l),
(570,-6,l),
(519,114,l),
(519,-102,l),
(533,-85,l),
(404,-123,l),
(403,-128,l),
(424,-207,l),
(438,-214,l),
(533,-177,o),
(602,-59,o),
(605,73,cs)
);
},
{
closed = 1;
nodes = (
(265,0,l),
(265,24,l),
(180,63,l),
(165,575,l),
(170,640,l),
(41,640,l),
(41,625,l),
(113,575,l),
(110,65,l),
(40,15,l),
(40,0,l)
);
}
);
width = 725;
},
{
anchors = (
{
name = bottom;
pos = (367,0);
},
{
name = top;
pos = (398,640);
}
);
layerId = "778ADD7E-4752-4796-8294-609F841445EC";
shapes = (
{
closed = 1;
nodes = (
(646,558,l),
(702,605,l),
(702,640,l),
(475,640,l),
(475,618,l),
(532,548,l),
(570,97,l),
(600,97,l),
(292,640,l),
(78,640,l),
(501,0,l),
(446,224,l),
(446,-127,l),
(454,-77,l),
(292,-104,l),
(281,-118,l),
(329,-256,l),
(365,-271,l),
(531,-157,o),
(608,-39,o),
(618,116,cs)
);
},
{
closed = 1;
nodes = (
(255,0,l),
(255,35,l),
(198,83,l),
(156,575,l),
(156,640,l),
(41,640,l),
(41,618,l),
(108,551,l),
(80,92,l),
(23,22,l),
(23,0,l)
);
}
);
width = 725;
}
);
metricLeft = "=H";
metricRight = "=H";
unicode = 330;
},
{
color = 5;
glyphname = O;
lastChange = "2022-12-12 05:10:13 +0000";
layers = (
{
anchors = (
{
name = bottom;
pos = (363,0);
},
{
name = center;
pos = (363,320);
},
{
name = ogonek;
pos = (453,0);
},
{
name = qtail;
pos = (410,0);
},
{
name = top;
pos = (369,640);
},
{
name = topleft;
pos = (35,640);
},
{
name = topright;
pos = (690,640);
}
);
background = {
shapes = (
{
closed = 1;
nodes = (
(690,0,l),
(690,24,l),
(605,63,l),
(605,577,l),
(690,616,l),
(690,640,l),
(445,640,l),
(445,625,l),
(515,575,l),
(515,65,l),
(445,15,l),
(445,0,l)
);
},
{
closed = 1;
nodes = (
(274,0,l),
(274,24,l),
(189,63,l),
(189,577,l),
(274,616,l),
(274,640,l),
(29,640,l),
(29,625,l),
(99,575,l),
(99,65,l),
(29,15,l),
(29,0,l)
);
},
{
closed = 1;
nodes = (
(538,311,l),
(538,359,l),
(166,359,l),
(166,311,l)
);
}
);
};
layerId = m01;
shapes = (
{
closed = 1;
nodes = (
(537,-16,o),
(680,141,o),
(680,341,cs),
(680,526,o),
(552,656,o),
(369,656,cs),
(188,656,o),
(45,499,o),
(45,299,cs),
(45,114,o),
(173,-16,o),
(356,-16,cs)
);
},
{
closed = 1;
nodes = (
(243,41,o),
(141,180,o),
(141,358,cs),
(141,513,o),
(217,599,o),
(352,599,cs),
(482,599,o),
(584,460,o),
(584,282,cs),
(584,127,o),
(508,41,o),
(373,41,cs)
);
}
);
width = 725;
},
{
anchors = (
{
name = bottom;
pos = (378,0);
},
{
name = center;
pos = (378,320);
},
{
name = ogonek;
pos = (475,0);
},
{
name = qtail;
pos = (408,0);
},
{
name = top;
pos = (384,640);
},
{
name = topleft;
pos = (40,640);
},
{
name = topright;
pos = (715,640);
}
);
layerId = "778ADD7E-4752-4796-8294-609F841445EC";
shapes = (
{
closed = 1;
nodes = (
(566,-16,o),
(720,141,o),
(720,341,cs),
(720,535,o),
(590,656,o),
(384,656,cs),
(189,656,o),
(35,499,o),
(35,299,cs),
(35,105,o),
(165,-16,o),
(371,-16,cs)
);
},
{
closed = 1;
nodes = (
(293,55,o),
(220,201,o),
(220,408,cs),
(220,526,o),
(265,585,o),
(357,585,cs),
(462,585,o),
(535,439,o),
(535,232,cs),
(535,114,o),
(490,55,o),
(398,55,cs)
);
}
);
width = 755;
},
{
anchors = (
{
name = bottom;
pos = (353,0);
},
{
name = center;
pos = (353,320);
},
{
name = ogonek;
pos = (447,0);
},
{
name = top;
pos = (353,640);
},
{
name = topleft;
pos = (25,640);
},
{
name = topright;
pos = (680,640);
}
);
associatedMasterId = m01;
layerId = "55D636DD-17C5-4DD6-AE2F-F2984AACD55F";
name = "10 Nov 22, 12:50";
shapes = (
{
closed = 1;
nodes = (
(533,-16,o),
(665,131,o),
(665,341,cs),
(665,526,o),
(543,656,o),
(359,656,cs),
(172,656,o),
(40,509,o),
(40,299,cs),
(40,114,o),
(162,-16,o),
(346,-16,cs)
);
},
{
closed = 1;
nodes = (
(230,41,o),
(136,164,o),
(136,338,cs),
(136,512,o),
(204,599,o),
(342,599,cs),
(475,599,o),
(569,476,o),
(569,302,cs),
(569,128,o),
(501,41,o),
(363,41,cs)
);
}
);
width = 705;
}
);
unicode = 79;
},
{
color = 5;
glyphname = OE;
lastChange = "2022-12-10 01:33:37 +0000";
layers = (
{
layerId = m01;
shapes = (
{
closed = 1;
nodes = (
(895,0,l),
(895,52,l),
(535,35,l),
(535,0,l)
);
},
{
closed = 1;
nodes = (
(560,0,l),
(560,640,l),
(470,640,l),
(470,0,l)
);
},
{
closed = 1;
nodes = (
(902,0,l),
(907,183,l),
(892,183,l),
(786,47,l),
(790,0,l)
);
},
{
closed = 1;
nodes = (
(773,354,l),
(527,343,l),
(527,309,l),
(773,300,l)
);
},
{
closed = 1;
nodes = (
(779,214,l),
(788,428,l),
(764,428,l),
(711,350,l),
(703,304,l),
(764,214,l)
);
},
{
closed = 1;
nodes = (
(875,640,l),
(535,640,l),
(535,605,l),
(875,588,l)
);
},
{
closed = 1;
nodes = (
(887,495,l),
(878,646,l),
(868,646,l),
(762,640,l),
(762,593,l),
(872,495,l)
);
},
{
closed = 1;
nodes = (
(382,640,ls),
(184,640,o),
(45,499,o),
(45,299,cs),
(45,107,o),
(162,0,o),
(371,0,c),
(502,0,l),
(502,45,l),
(400,45,ls),
(235,45,o),
(143,154,o),
(143,348,cs),
(143,513,o),
(220,595,o),
(375,595,c),
(502,595,l),
(502,640,l)
);
}
);
width = 932;
},
{
layerId = "778ADD7E-4752-4796-8294-609F841445EC";
shapes = (
{
closed = 1;
nodes = (
(930,0,l),
(930,70,l),
(560,41,l),
(560,0,l)
);
},
{
closed = 1;
nodes = (
(653,0,l),
(653,640,l),
(470,640,l),
(470,0,l)
);
},
{
closed = 1;
nodes = (
(951,0,l),
(958,221,l),
(936,221,l),
(764,47,l),
(764,0,l)
);
},
{
closed = 1;
nodes = (
(788,364,l),
(609,349,l),
(609,305,l),
(788,289,l)
);
},
{
closed = 1;
nodes = (
(833,197,l),
(833,445,l),
(798,445,l),
(710,350,l),
(710,308,l),
(811,197,l)
);
},
{
closed = 1;
nodes = (
(906,640,l),
(556,640,l),
(556,601,l),
(906,572,l)
);
},
{
closed = 1;
nodes = (
(934,471,l),
(926,656,l),
(891,656,l),
(720,640,l),
(720,600,l),
(912,471,l)
);
},
{
closed = 1;
nodes = (
(385,640,ls),
(185,640,o),
(35,486,o),
(35,289,cs),
(35,104,o),
(169,0,o),
(409,0,cs),
(541,0,l),
(541,55,l),
(405,55,ls),
(293,55,o),
(222,166,o),
(222,344,cs),
(222,492,o),
(280,585,o),
(372,585,c),
(541,585,l),
(541,640,l)
);
}
);
width = 981;
},
{
associatedMasterId = "778ADD7E-4752-4796-8294-609F841445EC";
layerId = "6FCD727D-B762-44CE-BAF0-1118847CC0AC";
name = "20 Nov 22, 10:46";
shapes = (
{
closed = 1;
nodes = (
(472,-16,o),
(549,31,o),
(635,152,c),
(639,471,l),
(567,595,o),
(478,656,o),
(369,656,cs),
(176,656,o),
(25,499,o),
(25,299,cs),
(25,105,o),
(153,-16,o),
(356,-16,cs)
);
},
{
closed = 1;
nodes = (
(275,61,o),
(220,185,o),
(220,408,cs),
(220,527,o),
(260,579,o),
(352,579,cs),
(416,579,o),
(472,522,o),
(506,420,c),
(499,164,l),
(485,92,o),
(447,61,o),
(373,61,cs)
);
},
{
closed = 1;
nodes = (
(954,0,l),
(954,75,l),
(594,47,l),
(594,0,l)
);
},
{
closed = 1;
nodes = (
(669,0,l),
(669,640,l),
(481,640,l),
(481,0,l)
);
},
{
closed = 1;
nodes = (
(967,0,l),
(974,215,l),
(935,223,l),
(810,47,l),
(824,0,l)
);
},
{
closed = 1;
nodes = (
(822,367,l),
(653,353,l),
(653,301,l),
(822,286,l)
);
},
{
closed = 1;
nodes = (
(850,207,l),
(857,435,l),
(806,435,l),
(774,359,l),
(766,295,l),
(811,207,l)
);
},
{
closed = 1;
nodes = (
(930,640,l),
(590,640,l),
(590,593,l),
(930,565,l)
);
},
{
closed = 1;
nodes = (
(948,471,l),
(940,656,l),
(916,656,l),
(734,640,l),
(806,577,l),
(913,460,l)
);
}
);
width = 1007;
},
{
associatedMasterId = m01;
layerId = "08FED0D2-71F0-4AC7-B6DD-4D8D47805CB9";
name = "3 Dec 22, 09:58";
shapes = (
{
closed = 1;
nodes = (
(409,-16,o),
(455,-10,o),
(484,0,c),
(476,57,l),
(447,46,o),
(415,41,o),
(373,41,cs),
(243,41,o),
(141,180,o),
(141,358,cs),
(141,513,o),
(217,599,o),
(352,599,cs),
(417,599,o),
(475,564,o),
(517,508,c),
(531,622,l),
(485,646,o),
(435,656,o),
(369,656,cs),
(188,656,o),
(45,499,o),
(45,299,cs),
(45,114,o),
(173,-16,o),
(356,-16,cs)
);
},
{
closed = 1;
nodes = (
(891,0,l),
(891,52,l),
(541,35,l),
(541,0,l)
);
},
{
closed = 1;
nodes = (
(566,0,l),
(566,640,l),
(476,640,l),
(476,0,l)
);
},
{
closed = 1;
nodes = (
(898,0,l),
(903,183,l),
(888,183,l),
(782,47,l),
(786,0,l)
);
},
{
closed = 1;
nodes = (
(769,354,l),
(533,343,l),
(533,309,l),
(769,300,l)
);
},
{
closed = 1;
nodes = (
(775,214,l),
(784,428,l),
(760,428,l),
(707,350,l),
(699,304,l),
(760,214,l)
);
},
{
closed = 1;
nodes = (
(871,640,l),
(541,640,l),
(541,605,l),
(871,588,l)
);
},
{
closed = 1;
nodes = (
(883,495,l),
(874,646,l),
(864,646,l),
(758,640,l),
(758,593,l),
(868,495,l)
);
}
);
width = 928;
}
);
metricLeft = "=O";
metricRight = "=E";
unicode = 338;
},
{
color = 5;
glyphname = P;
lastChange = "2022-11-27 09:52:03 +0000";
layers = (
{
layerId = m01;
shapes = (
{
closed = 1;
nodes = (
(230,240,ls),
(410,240,o),
(536,328,o),
(536,454,cs),
(536,578,o),
(451,640,o),
(279,640,cs),
(142,640,l),
(142,595,l),
(260,595,ls),
(375,595,o),
(439,532,o),
(439,420,cs),
(439,335,o),
(376,285,o),
(263,280,cs),
(143,275,l),
(143,240,l)
);
},
{
closed = 1;
nodes = (
(300,0,l),
(300,24,l),
(200,63,l),
(200,640,l),
(40,640,l),
(40,625,l),
(110,575,l),
(110,65,l),
(40,15,l),
(40,0,l)
);
}
);
width = 566;
},
{
layerId = "778ADD7E-4752-4796-8294-609F841445EC";
shapes = (
{
closed = 1;
nodes = (
(270,205,ls),
(458,205,o),
(606,309,o),
(606,442,cs),
(606,569,o),
(504,640,o),
(321,640,c),
(195,640,l),
(195,584,l),
(275,584,ls),
(366,584,o),
(423,510,o),
(423,393,cs),
(423,303,o),
(386,262,o),
(302,256,cs),
(202,249,l),
(202,205,l)
);
},
{
closed = 1;
nodes = (
(360,0,l),
(360,35,l),
(263,83,l),
(263,640,l),
(23,640,l),
(23,618,l),
(80,548,l),
(80,92,l),
(23,22,l),
(23,0,l)
);
}
);
width = 626;
}
);
metricLeft = "=H";
metricRight = "=D-15";
unicode = 80;
},
{
color = 5;
glyphname = Thorn;
lastChange = "2022-11-27 09:52:03 +0000";
layers = (
{
layerId = m01;
shapes = (
{
closed = 1;
nodes = (
(300,0,l),
(300,24,l),
(200,63,l),
(200,577,l),
(300,616,l),
(300,640,l),
(40,640,l),
(40,625,l),
(110,575,l),
(110,65,l),
(40,15,l),
(40,0,l)
);
},
{
closed = 1;
nodes = (
(236,145,ls),
(405,145,o),
(511,220,o),
(511,339,cs),
(511,441,o),
(416,505,o),
(264,505,cs),
(147,505,l),
(147,461,l),
(226,461,ls),
(352,461,o),
(414,410,o),
(414,308,cs),
(414,225,o),
(363,189,o),
(248,189,c),
(148,189,l),
(148,145,l)
);
}
);
width = 541;
},
{
layerId = "778ADD7E-4752-4796-8294-609F841445EC";
shapes = (
{
closed = 1;
nodes = (
(360,0,l),
(360,35,l),
(263,83,l),
(263,557,l),
(360,605,l),
(360,640,l),
(23,640,l),
(23,618,l),
(80,548,l),
(80,92,l),
(23,22,l),
(23,0,l)
);
},
{
closed = 1;
nodes = (
(291,136,ls),
(465,136,o),
(587,221,o),
(587,343,cs),
(587,455,o),
(500,511,o),
(326,511,c),
(200,511,l),
(200,454,l),
(282,454,ls),
(359,454,o),
(408,397,o),
(408,306,cs),
(408,218,o),
(378,184,o),
(300,184,cs),
(200,184,l),
(200,136,l)
);
}
);
width = 607;
}
);
metricLeft = "=H";
metricRight = "=D-15";
unicode = 222;
},
{
color = 5;
glyphname = Q;
lastChange = "2022-12-02 23:52:01 +0000";
layers = (
{
guides = (
{
},
{
angle = 90;
pos = (680,345);
}
);
layerId = m01;
shapes = (
{
ref = O;
},
{
pos = (3,0);
ref = _tail.Q;
}
);
width = 725;
},
{
layerId = "778ADD7E-4752-4796-8294-609F841445EC";
shapes = (
{
ref = O;
},
{
pos = (12,0);
ref = _tail.Q;
}
);
width = 755;
},
{
associatedMasterId = "778ADD7E-4752-4796-8294-609F841445EC";
layerId = "6F7FA902-61D5-40FA-8137-6C21FB09CE7B";
name = "20 Oct 22, 09:16";
shapes = (
{
ref = O;
},
{
closed = 1;
nodes = (
(665,-213,o),
(713,-174,o),
(735,-96,c),
(724,-79,l),
(655,-106,o),
(590,-95,o),
(487,-39,cs),
(436,-11,l),
(436,21,l),
(354,0,l),
(392,-74,ls),
(443,-174,o),
(498,-213,o),
(588,-213,cs)
);
}
);
width = 705;
},
{
associatedMasterId = m01;
layerId = "5A8DA049-EFB6-4278-8648-B6E51B45B1C0";
name = "18 Nov 22, 22:09";
shapes = (
{
ref = O;
},
{
closed = 1;
nodes = (
(652,-167,o),
(682,-156,o),
(710,-130,c),
(703,-113,l),
(673,-119,o),
(610,-94,o),
(498,-33,cs),
(447,-5,l),
(447,28,l),
(361,7,l),
(434,-67,ls),
(503,-137,o),
(556,-167,o),
(610,-167,cs)
);
}
);
width = 705;
},
{
associatedMasterId = "778ADD7E-4752-4796-8294-609F841445EC";
layerId = "B046AD19-393C-40D3-B878-4DB30A4CAF1A";
name = "18 Nov 22, 22:09";
shapes = (
{
ref = O;
},
{
closed = 1;
nodes = (
(664,-223,o),
(710,-182,o),
(740,-76,c),
(729,-59,l),
(678,-79,o),
(618,-71,o),
(492,-29,cs),
(438,-11,l),
(438,21,l),
(359,0,l),
(397,-74,ls),
(452,-182,o),
(501,-223,o),
(573,-223,cs)
);
}
);
width = 715;
}
);
metricLeft = "=O";
metricRight = "=O@345";
unicode = 81;
},
{
color = 5;
glyphname = R;
lastChange = "2022-12-10 06:10:07 +0000";
layers = (
{
anchors = (
{
name = bottom;
pos = (299,0);
},
{
name = top;
pos = (299,640);
}
);
layerId = m01;
shapes = (
{
closed = 1;
nodes = (
(285,0,l),
(285,24,l),
(200,63,l),
(200,640,l),
(40,640,l),
(40,625,l),
(110,575,l),
(110,65,l),
(40,15,l),
(40,0,l)
);
},
{
closed = 1;
nodes = (
(563,0,l),
(365,287,l),
(365,302,l),
(263,291,l),
(443,0,l)
);
},
{
closed = 1;
nodes = (
(588,0,l),
(588,24,l),
(503,63,l),
(503,0,l)
);
},
{
closed = 1;
nodes = (
(303,274,l),
(303,287,l),
(430,287,o),
(530,366,o),
(530,467,cs),
(530,578,o),
(439,640,o),
(277,640,cs),
(163,640,l),
(163,595,l),
(248,595,ls),
(377,595,o),
(433,546,o),
(433,433,cs),
(433,367,o),
(392,324,o),
(326,320,cs),
(166,311,l),
(166,274,l)
);
}
);
width = 598;
},
{
anchors = (
{
name = bottom;
pos = (341,0);
},
{
name = top;
pos = (341,640);
}
);
layerId = "778ADD7E-4752-4796-8294-609F841445EC";
shapes = (
{
closed = 1;
nodes = (
(320,0,l),
(320,35,l),
(263,83,l),
(263,640,l),
(23,640,l),
(23,618,l),
(80,548,l),
(80,92,l),
(23,22,l),
(23,0,l)
);
},
{
closed = 1;
nodes = (
(670,0,l),
(469,301,l),
(469,333,l),
(296,294,l),
(433,0,l)
);
},
{
closed = 1;
nodes = (
(677,0,l),
(677,35,l),
(577,117,l),
(577,0,l)
);
},
{
closed = 1;
nodes = (
(356,256,l),
(356,287,l),
(491,287,o),
(613,370,o),
(613,467,cs),
(613,574,o),
(508,640,o),
(316,640,c),
(200,640,l),
(200,582,l),
(277,582,ls),
(371,582,o),
(430,523,o),
(430,428,cs),
(430,369,o),
(406,326,o),
(358,319,cs),
(200,297,l),
(200,256,l)
);
}
);
width = 682;
}
);
metricLeft = "=H";
metricRight = "=K";
unicode = 82;
},
{
color = 5;
glyphname = S;
lastChange = "2022-12-12 05:10:16 +0000";
layers = (
{
anchors = (
{
name = bottom;
pos = (276,0);
},
{
name = top;
pos = (265,640);
}
);
background = {
shapes = (
{
closed = 1;
nodes = (
(384,-16,o),
(478,74,o),
(478,188,c),
(478,280,o),
(432,329,o),
(293,383,cs),
(187,423,o),
(155,456,o),
(155,514,cs),
(155,574,o),
(190,608,o),
(253,608,cs),
(293,608,o),
(320,599,o),
(353,575,c),
(289,631,l),
(402,489,l),
(417,489,l),
(456,611,l),
(401,642,o),
(339,656,o),
(265,656,cs),
(161,656,o),
(79,581,o),
(79,485,c),
(79,393,o),
(121,345,o),
(254,292,cs),
(364,248,o),
(401,214,o),
(401,156,cs),
(401,82,o),
(353,36,o),
(276,36,cs),
(233,36,o),
(205,43,o),
(176,62,c),
(101,181,l),
(86,178,l),
(50,54,l),
(125,5,o),
(191,-16,o),
(265,-16,cs)
);
}
);
};
layerId = m01;
shapes = (
{
closed = 1;
nodes = (
(384,-16,o),
(478,74,o),
(478,188,cs),
(478,412,o),
(155,355,o),
(155,518,cs),
(155,576,o),
(190,608,o),
(253,608,cs),
(293,608,o),
(320,599,o),
(353,575,c),
(353,631,l),
(289,631,l),
(402,489,l),
(417,489,l),
(456,611,l),
(401,642,o),
(339,656,o),
(265,656,cs),
(161,656,o),
(79,581,o),
(79,485,cs),
(79,260,o),
(401,324,o),
(401,156,cs),
(401,80,o),
(353,33,o),
(276,33,cs),
(224,33,o),
(189,45,o),
(151,78,c),
(151,24,l),
(200,24,l),
(101,181,l),
(86,181,l),
(50,54,l),
(125,5,o),
(190,-16,o),
(265,-16,cs)
);
}
);
width = 528;
},
{
anchors = (
{
name = bottom;
pos = (292,0);
},
{
name = top;
pos = (283,640);
}
);
background = {
shapes = (
{
closed = 1;
nodes = (
(426,-16,o),
(530,72,o),
(530,198,c),
(530,308,o),
(467,376,o),
(323,420,cs),
(233,448,o),
(198,474,o),
(198,514,cs),
(198,561,o),
(227,587,o),
(279,587,cs),
(294,587,o),
(307,583,o),
(323,575,c),
(423,447,l),
(451,450,l),
(500,603,l),
(443,638,o),
(371,656,o),
(283,656,cs),
(161,656,o),
(65,567,o),
(65,453,cs),
(65,351,o),
(124,285,o),
(260,237,cs),
(364,198,o),
(399,170,o),
(399,123,cs),
(399,82,o),
(365,54,o),
(303,54,cs),
(261,54,o),
(237,59,o),
(214,73,c),
(114,226,l),
(87,230,l),
(40,51,l),
(109,6,o),
(188,-16,o),
(279,-16,cs)
);
}
);
};
layerId = "778ADD7E-4752-4796-8294-609F841445EC";
shapes = (
{
closed = 1;
nodes = (
(426,-16,o),
(530,72,o),
(530,198,cs),
(530,439,o),
(198,394,o),
(198,514,cs),
(198,563,o),
(229,593,o),
(279,593,cs),
(305,593,o),
(327,584,o),
(359,560,c),
(359,620,l),
(285,620,l),
(429,450,l),
(451,450,l),
(500,603,l),
(445,637,o),
(367,656,o),
(283,656,cs),
(161,656,o),
(65,567,o),
(65,453,cs),
(65,211,o),
(399,271,o),
(399,123,cs),
(399,82,o),
(365,48,o),
(303,48,cs),
(253,48,o),
(213,63,o),
(172,98,c),
(192,35,l),
(247,35,l),
(109,222,l),
(87,222,l),
(40,51,l),
(109,6,o),
(188,-16,o),
(279,-16,cs)
);
}
);
width = 570;
},
{
anchors = (
{
name = bottom;
pos = (278,0);
},
{
name = top;
pos = (278,640);
}
);
associatedMasterId = m01;
layerId = "8D65D12E-36DD-4862-8991-9B1603AE615E";
name = "5 Nov 22, 19:53";
shapes = (
{
closed = 1;
nodes = (
(406,-16,o),
(510,60,o),
(510,169,c),
(510,263,o),
(448,325,o),
(305,373,cs),
(183,413,o),
(142,449,o),
(142,514,cs),
(142,570,o),
(182,602,o),
(254,602,cs),
(308,602,o),
(348,588,o),
(397,550,c),
(415,464,l),
(453,468,l),
(475,598,l),
(427,634,o),
(348,656,o),
(272,656,cs),
(154,656,o),
(61,581,o),
(61,485,c),
(61,394,o),
(114,336,o),
(235,294,cs),
(365,250,o),
(429,199,o),
(429,140,cs),
(429,77,o),
(371,38,o),
(279,38,cs),
(215,38,o),
(166,53,o),
(129,84,c),
(114,184,l),
(74,190,l),
(45,41,l),
(104,1,o),
(170,-16,o),
(259,-16,cs)
);
}
);
width = 555;
},
{
anchors = (
{
name = bottom;
pos = (278,0);
},
{
name = top;
pos = (278,640);
}
);
associatedMasterId = m01;
layerId = "7D25DB1E-62F2-42FD-9E37-B3998C5B0A1B";
name = "10 Nov 22, 21:35";
shapes = (
{
closed = 1;
nodes = (
(403,-16,o),
(504,60,o),
(504,169,c),
(504,269,o),
(449,326,o),
(305,375,cs),
(196,410,o),
(160,445,o),
(160,514,cs),
(160,568,o),
(196,602,o),
(254,602,cs),
(309,602,o),
(344,589,o),
(393,551,c),
(411,465,l),
(449,469,l),
(471,599,l),
(424,634,o),
(348,656,o),
(272,656,cs),
(164,656,o),
(79,581,o),
(79,485,c),
(79,390,o),
(126,332,o),
(235,294,cs),
(371,247,o),
(423,205,o),
(423,140,cs),
(423,80,o),
(364,38,o),
(279,38,cs),
(218,38,o),
(181,50,o),
(129,85,c),
(114,191,l),
(74,197,l),
(45,48,l),
(106,3,o),
(171,-16,o),
(259,-16,cs)
);
}
);
width = 549;
},
{
anchors = (
{
name = bottom;
pos = (271,0);
},
{
name = top;
pos = (271,640);
}
);
associatedMasterId = m01;
layerId = "0C632628-1E74-4862-A545-0E2F10F55B0C";
name = "12 Nov 22, 12:03";
shapes = (
{
closed = 1;
nodes = (
(400,-16,o),
(497,60,o),
(497,169,c),
(497,269,o),
(442,326,o),
(298,375,cs),
(198,407,o),
(159,446,o),
(159,514,cs),
(159,568,o),
(195,602,o),
(252,602,cs),
(301,602,o),
(338,588,o),
(386,551,c),
(404,465,l),
(442,469,l),
(462,588,l),
(409,633,o),
(343,656,o),
(265,656,cs),
(161,656,o),
(80,581,o),
(80,485,c),
(80,388,o),
(125,330,o),
(228,294,cs),
(364,247,o),
(416,205,o),
(416,140,cs),
(416,83,o),
(357,38,o),
(283,38,cs),
(218,38,o),
(175,55,o),
(128,98,c),
(117,204,l),
(77,210,l),
(50,72,l),
(100,13,o),
(170,-16,o),
(262,-16,cs)
);
}
);
width = 547;
},
{
anchors = (
{
name = bottom;
pos = (261,0);
},
{
name = top;
pos = (261,640);
}
);
associatedMasterId = m01;
layerId = "F45CE8CE-E35F-4823-AA90-135B68582C9E";
name = "17 Nov 22, 09:43";
shapes = (
{
closed = 1;
nodes = (
(395,-16,o),
(477,55,o),
(477,169,c),
(477,271,o),
(425,328,o),
(288,375,cs),
(189,407,o),
(151,445,o),
(151,514,cs),
(151,573,o),
(187,606,o),
(252,606,cs),
(301,606,o),
(335,591,o),
(373,552,c),
(390,478,l),
(428,482,l),
(448,610,l),
(393,641,o),
(332,656,o),
(264,656,cs),
(158,656,o),
(75,581,o),
(75,485,c),
(75,392,o),
(120,335,o),
(223,299,cs),
(350,254,o),
(399,207,o),
(399,129,cs),
(399,64,o),
(361,36,o),
(275,36,cs),
(208,36,o),
(162,54,o),
(127,96,c),
(116,173,l),
(76,179,l),
(50,45,l),
(111,1,o),
(170,-16,o),
(264,-16,cs)
);
}
);
width = 527;
},
{
anchors = (
{
name = bottom;
pos = (261,0);
},
{
name = top;
pos = (261,640);
}
);
associatedMasterId = m01;
background = {
shapes = (
{
closed = 1;
nodes = (
(380,-16,o),
(477,65,o),
(477,179,c),
(477,312,o),
(377,345,o),
(285,377,cs),
(188,410,o),
(151,446,o),
(151,512,cs),
(151,573,o),
(195,606,o),
(253,606,cs),
(302,606,o),
(345,584,o),
(373,562,c),
(390,488,l),
(428,492,l),
(448,610,l),
(393,641,o),
(332,656,o),
(264,656,cs),
(158,656,o),
(75,581,o),
(75,485,cs),
(75,387,o),
(127,329,o),
(252,287,cs),
(330,261,o),
(401,240,o),
(401,160,cs),
(401,85,o),
(346,36,o),
(275,36,cs),
(214,36,o),
(164,65,o),
(127,96,c),
(116,173,l),
(76,179,l),
(50,45,l),
(114,12,o),
(176,-16,o),
(264,-16,cs)
);
}
);
};
layerId = "680E9A61-04F4-4CD7-98C9-FFEEE6A7B869";
name = "17 Nov 22, 21:48";
shapes = (
{
closed = 1;
nodes = (
(383,-16,o),
(477,70,o),
(477,179,c),
(477,278,o),
(432,327,o),
(298,374,cs),
(188,412,o),
(151,447,o),
(151,514,cs),
(151,571,o),
(190,606,o),
(252,606,cs),
(295,606,o),
(332,593,o),
(373,562,c),
(398,478,l),
(415,480,l),
(448,610,l),
(393,641,o),
(332,656,o),
(264,656,cs),
(158,656,o),
(75,581,o),
(75,485,c),
(75,382,o),
(120,333,o),
(254,288,cs),
(364,250,o),
(400,216,o),
(400,151,cs),
(400,83,o),
(348,36,o),
(275,36,cs),
(217,36,o),
(172,54,o),
(127,96,c),
(103,186,l),
(86,189,l),
(50,45,l),
(132,1,o),
(191,-16,o),
(264,-16,cs)
);
}
);
width = 527;
}
);
metricLeft = "=O+5";
metricRight = "=O+5";
unicode = 83;
},
{
color = 5;
glyphname = Germandbls;
lastChange = "2022-12-03 00:02:41 +0000";
layers = (
{
background = {
shapes = (
{
closed = 1;
nodes = (
(274,0,ls),
(438,0,o),
(553,82,o),
(553,199,cs),
(553,281,o),
(494,338,o),
(401,349,c),
(401,355,l),
(464,374,o),
(514,436,o),
(514,496,cs),
(514,596,o),
(447,640,o),
(293,640,cs),
(161,640,l),
(161,598,l),
(254,598,ls),
(369,598,o),
(426,559,o),
(426,480,cs),
(426,406,o),
(388,362,o),
(320,359,cs),
(162,351,l),
(162,315,l),
(289,315,ls),
(400,315,o),
(455,272,o),
(455,170,cs),
(455,86,o),
(403,45,o),
(297,45,cs),
(169,45,l),
(169,0,l)
);
},
{
closed = 1;
nodes = (
(200,0,l),
(200,640,l),
(40,640,l),
(40,625,l),
(110,575,l),
(110,65,l),
(40,15,l),
(40,0,l)
);
}
);
};
layerId = m01;
shapes = (
{
closed = 1;
nodes = (
(575,-16,o),
(676,77,o),
(676,195,cs),
(676,313,o),
(587,387,o),
(444,387,c),
(479,365,l),
(612,624,l),
(605,640,l),
(497,640,ls),
(238,640,o),
(110,527,o),
(110,299,cs),
(110,65,l),
(40,15,l),
(40,0,l),
(200,0,l),
(200,348,ls),
(200,517,o),
(281,591,o),
(467,591,c),
(559,591,l),
(509,616,l),
(385,362,l),
(393,352,l),
(419,352,l),
(507,352,o),
(577,270,o),
(577,165,cs),
(577,76,o),
(522,20,o),
(434,20,cs),
(378,20,l),
(438,10,l),
(365,139,l),
(351,139,l),
(297,45,l),
(341,4,o),
(391,-16,o),
(447,-16,cs)
);
}
);
width = 721;
},
{
layerId = "778ADD7E-4752-4796-8294-609F841445EC";
shapes = (
{
closed = 1;
nodes = (
(645,-16,o),
(762,81,o),
(762,205,cs),
(762,310,o),
(657,376,o),
(489,376,c),
(577,341,l),
(695,608,l),
(674,640,l),
(468,640,ls),
(230,640,o),
(80,505,o),
(80,289,cs),
(80,92,l),
(23,22,l),
(23,0,l),
(264,0,l),
(264,344,ls),
(264,502,o),
(335,581,o),
(478,581,cs),
(586,581,l),
(507,633,l),
(417,373,l),
(441,344,l),
(452,342,ls),
(531,328,o),
(581,266,o),
(581,182,cs),
(581,96,o),
(531,29,o),
(455,29,cs),
(399,29,l),
(533,5,l),
(431,179,l),
(409,179,l),
(334,52,l),
(390,5,o),
(439,-16,o),
(496,-16,cs)
);
}
);
width = 797;
},
{
associatedMasterId = m01;
layerId = "588BDE71-2337-4899-AC6F-BB110C9C8E8A";
name = "3 Dec 22, 09:24";
shapes = (
{
closed = 1;
nodes = (
(400,355,l),
(580,640,l),
(573,656,l),
(457,656,ls),
(222,656,o),
(90,524,o),
(90,289,cs),
(90,65,l),
(20,15,l),
(20,0,l),
(180,0,l),
(180,348,ls),
(180,519,o),
(255,605,o),
(427,616,cs),
(517,622,l),
(500,638,l),
(315,381,l),
(315,377,l),
(324,342,l),
(334,342,l),
(427,342,o),
(502,263,o),
(502,150,cs),
(502,69,o),
(444,24,o),
(359,24,cs),
(303,24,l),
(363,10,l),
(290,135,l),
(276,135,l),
(233,40,l),
(271,4,o),
(329,-16,o),
(394,-16,cs),
(504,-16,o),
(601,77,o),
(601,195,cs),
(601,300,o),
(489,383,o),
(359,383,c)
);
}
);
width = 646;
},
{
associatedMasterId = m01;
background = {
shapes = (
{
closed = 1;
nodes = (
(254,0,ls),
(418,0,o),
(533,82,o),
(533,199,cs),
(533,281,o),
(474,338,o),
(381,349,c),
(381,355,l),
(444,374,o),
(494,436,o),
(494,496,cs),
(494,596,o),
(427,640,o),
(273,640,cs),
(141,640,l),
(141,598,l),
(234,598,ls),
(349,598,o),
(406,559,o),
(406,480,cs),
(406,406,o),
(368,362,o),
(300,359,cs),
(142,351,l),
(142,315,l),
(269,315,ls),
(380,315,o),
(435,272,o),
(435,170,cs),
(435,86,o),
(383,45,o),
(277,45,cs),
(149,45,l),
(149,0,l)
);
},
{
closed = 1;
nodes = (
(180,0,l),
(180,640,l),
(20,640,l),
(20,625,l),
(90,575,l),
(90,65,l),
(20,15,l),
(20,0,l)
);
}
);
};
layerId = "FFBCBE0A-3BD6-494A-A903-DDBED740D012";
name = "3 Dec 22, 09:28";
shapes = (
{
closed = 1;
nodes = (
(455,355,l),
(580,640,l),
(573,656,l),
(457,656,ls),
(222,656,o),
(90,524,o),
(90,289,cs),
(90,65,l),
(20,15,l),
(20,0,l),
(180,0,l),
(180,348,ls),
(180,519,o),
(255,605,o),
(427,616,cs),
(517,622,l),
(500,638,l),
(370,381,l),
(370,377,l),
(379,342,l),
(389,342,l),
(482,342,o),
(557,263,o),
(557,150,cs),
(557,69,o),
(499,24,o),
(414,24,cs),
(358,24,l),
(418,10,l),
(345,135,l),
(331,135,l),
(288,40,l),
(326,4,o),
(384,-16,o),
(449,-16,cs),
(559,-16,o),
(656,77,o),
(656,195,cs),
(656,300,o),
(544,383,o),
(414,383,c)
);
}
);
width = 646;
},
{
associatedMasterId = m01;
background = {
shapes = (
{
closed = 1;
nodes = (
(254,0,ls),
(418,0,o),
(533,82,o),
(533,199,cs),
(533,281,o),
(474,338,o),
(381,349,c),
(381,355,l),
(444,374,o),
(494,436,o),
(494,496,cs),
(494,596,o),
(427,640,o),
(273,640,cs),
(141,640,l),
(141,598,l),
(234,598,ls),
(349,598,o),
(406,559,o),
(406,480,cs),
(406,406,o),
(368,362,o),
(300,359,cs),
(142,351,l),
(142,315,l),
(269,315,ls),
(380,315,o),
(435,272,o),
(435,170,cs),
(435,86,o),
(383,45,o),
(277,45,cs),
(149,45,l),
(149,0,l)
);
},
{
closed = 1;
nodes = (
(180,0,l),
(180,640,l),
(20,640,l),
(20,625,l),
(90,575,l),
(90,65,l),
(20,15,l),
(20,0,l)
);
}
);
};
layerId = "AD9CA0F3-F8CF-4E71-A537-606A1399ABB5";
name = "3 Dec 22, 09:53";
shapes = (
{
closed = 1;
nodes = (
(555,-16,o),
(656,77,o),
(656,195,cs),
(656,313,o),
(567,387,o),
(424,387,c),
(459,365,l),
(600,640,l),
(593,656,l),
(491,656,ls),
(212,656,o),
(90,556,o),
(90,329,cs),
(90,65,l),
(20,15,l),
(20,0,l),
(180,0,l),
(180,388,ls),
(180,530,o),
(262,605,o),
(427,616,cs),
(517,622,l),
(500,638,l),
(365,362,l),
(373,352,l),
(399,352,l),
(487,352,o),
(557,270,o),
(557,165,cs),
(557,76,o),
(502,20,o),
(414,20,cs),
(358,20,l),
(418,10,l),
(345,139,l),
(331,139,l),
(277,45,l),
(321,4,o),
(371,-16,o),
(427,-16,cs)
);
}
);
width = 701;
},
{
associatedMasterId = "778ADD7E-4752-4796-8294-609F841445EC";
layerId = "E50801D3-1FDE-4F50-B249-D6ED36A72013";
name = "3 Dec 22, 09:55";
shapes = (
{
closed = 1;
nodes = (
(633,-16,o),
(750,81,o),
(750,205,cs),
(750,310,o),
(645,376,o),
(477,376,c),
(565,341,l),
(691,624,l),
(670,656,l),
(559,656,ls),
(246,656,o),
(68,546,o),
(68,349,cs),
(68,92,l),
(11,22,l),
(11,0,l),
(252,0,l),
(252,408,ls),
(252,515,o),
(314,576,o),
(440,590,cs),
(561,603,l),
(495,633,l),
(405,373,l),
(429,344,l),
(440,342,ls),
(519,328,o),
(569,266,o),
(569,182,cs),
(569,96,o),
(519,29,o),
(443,29,cs),
(387,29,l),
(521,5,l),
(419,179,l),
(397,179,l),
(322,52,l),
(378,5,o),
(427,-16,o),
(484,-16,cs)
);
}
);
width = 785;
}
);
metricLeft = "=H";
metricRight = "=O";
unicode = 7838;
},
{
color = 5;
glyphname = T;
lastChange = "2022-12-12 03:40:58 +0000";
layers = (
{
anchors = (
{
name = bottom;
pos = (304,0);
},
{
name = center;
pos = (304,320);
},
{
name = top;
pos = (304,640);
}
);
background = {
shapes = (
{
closed = 1;
nodes = (
(636,0,l),
(636,24,l),
(551,63,l),
(551,577,l),
(636,616,l),
(636,640,l),
(391,640,l),
(391,625,l),
(461,575,l),
(461,65,l),
(391,15,l),
(391,0,l)
);
},
{
closed = 1;
nodes = (
(220,0,l),
(220,24,l),
(135,63,l),
(135,577,l),
(220,616,l),
(220,640,l),
(-25,640,l),
(-25,625,l),
(45,575,l),
(45,65,l),
(-25,15,l),
(-25,0,l)
);
},
{
closed = 1;
nodes = (
(484,311,l),
(484,359,l),
(112,359,l),
(112,311,l)
);
}
);
};
layerId = m01;
shapes = (
{
closed = 1;
nodes = (
(434,0,l),
(434,24,l),
(349,63,l),
(349,640,l),
(259,640,l),
(259,65,l),
(189,15,l),
(189,0,l)
);
},
{
closed = 1;
nodes = (
(37,456,l),
(138,603,l),
(118,640,l),
(12,646,l),
(2,646,l),
(22,456,l)
);
},
{
closed = 1;
nodes = (
(304,603,l),
(304,640,l),
(20,640,l),
(20,588,l)
);
},
{
closed = 1;
nodes = (
(588,640,l),
(304,640,l),
(304,603,l),
(588,588,l)
);
},
{
closed = 1;
nodes = (
(586,456,l),
(606,646,l),
(596,646,l),
(490,640,l),
(470,603,l),
(571,456,l)
);
}
);
width = 608;
},
{
anchors = (
{
name = bottom;
pos = (367,0);
},
{
name = center;
pos = (367,320);
},
{
name = top;
pos = (367,640);
}
);
background = {
shapes = (
{
closed = 1;
nodes = (
(100,384,l),
(218,592,l),
(254,640,l),
(69,656,l),
(45,656,l),
(68,388,l)
);
},
{
closed = 1;
nodes = (
(367,588,l),
(367,640,l),
(58,640,l),
(58,565,l)
);
},
{
closed = 1;
nodes = (
(676,640,l),
(367,640,l),
(367,588,l),
(676,565,l)
);
},
{
closed = 1;
nodes = (
(665,390,l),
(689,656,l),
(665,656,l),
(480,640,l),
(516,592,l),
(634,385,l)
);
}
);
};
layerId = "778ADD7E-4752-4796-8294-609F841445EC";
shapes = (
{
closed = 1;
nodes = (
(516,0,l),
(516,35,l),
(459,83,l),
(459,640,l),
(276,640,l),
(276,92,l),
(219,22,l),
(219,0,l)
);
},
{
closed = 1;
nodes = (
(78,433,l),
(218,600,l),
(208,640,l),
(37,656,l),
(2,656,l),
(56,433,l)
);
},
{
closed = 1;
nodes = (
(367,600,l),
(367,640,l),
(37,640,l),
(37,572,l)
);
},
{
closed = 1;
nodes = (
(697,640,l),
(367,640,l),
(367,600,l),
(697,572,l)
);
},
{
closed = 1;
nodes = (
(678,433,l),
(732,656,l),
(697,656,l),
(526,640,l),
(516,600,l),
(656,433,l)
);
}
);
width = 734;
}
);
metricLeft = "=V";
metricRight = "=V";
unicode = 84;
},
{
color = 5;
glyphname = U;
lastChange = "2022-12-10 07:37:57 +0000";
layers = (
{
anchors = (
{
name = bottom;
pos = (319,0);
},
{
name = ogonek;
pos = (418,0);
},
{
name = top;
pos = (340,640);
},
{
name = topright;
pos = (613,640);
}
);
layerId = m01;
shapes = (
{
closed = 1;
nodes = (
(475,-16,o),
(560,85,o),
(563,266,cs),
(568,582,l),
(642,616,l),
(642,640,l),
(429,640,l),
(429,625,l),
(499,575,l),
(504,280,l),
(504,244,ls),
(504,114,o),
(452,49,o),
(346,49,cs),
(224,49,o),
(170,124,o),
(170,297,cs),
(170,577,l),
(255,616,l),
(255,640,l),
(10,640,l),
(10,625,l),
(80,575,l),
(80,226,ls),
(80,71,o),
(167,-16,o),
(323,-16,cs)
);
}
);
width = 652;
},
{
anchors = (
{
name = bottom;
pos = (341,0);
},
{
name = ogonek;
pos = (434,0);
},
{
name = top;
pos = (370,640);
},
{
name = topright;
pos = (667,640);
}
);
guides = (
{
angle = 90;
pos = (510,83);
}
);
layerId = "778ADD7E-4752-4796-8294-609F841445EC";
shapes = (
{
closed = 1;
nodes = (
(495,-16,o),
(575,90,o),
(587,303,cs),
(601,557,l),
(658,605,l),
(658,640,l),
(436,640,l),
(436,618,l),
(495,548,l),
(500,254,l),
(500,252,l),
(500,125,o),
(463,70,o),
(378,70,cs),
(281,70,o),
(244,138,o),
(244,317,cs),
(244,557,l),
(301,605,l),
(301,640,l),
(4,640,l),
(4,618,l),
(61,548,l),
(61,248,ls),
(61,64,o),
(147,-16,o),
(343,-16,cs)
);
}
);
width = 672;
},
{
associatedMasterId = m01;
layerId = "8E1E38BD-EEF0-460B-9499-F3153D66540E";
name = "20 Oct 22, 11:21";
shapes = (
{
closed = 1;
nodes = (
(480,-16,o),
(553,74,o),
(553,280,cs),
(553,584,l),
(626,611,l),
(622,640,l),
(408,640,l),
(406,622,l),
(498,572,l),
(498,283,ls),
(498,112,o),
(451,47,o),
(330,47,cs),
(215,47,o),
(165,113,o),
(165,265,cs),
(165,574,l),
(264,611,l),
(260,640,l),
(4,640,l),
(2,622,l),
(75,568,l),
(75,262,ls),
(75,69,o),
(147,-16,o),
(313,-16,cs)
);
}
);
width = 628;
},
{
associatedMasterId = "778ADD7E-4752-4796-8294-609F841445EC";
layerId = "2EBD1482-0582-4D24-BB25-B55B697A3F1A";
name = "20 Oct 22, 11:21";
shapes = (
{
closed = 1;
nodes = (
(522,-16,o),
(600,77,o),
(600,264,cs),
(600,575,l),
(672,602,l),
(668,640,l),
(448,640,l),
(446,609,l),
(515,575,l),
(515,252,ls),
(515,110,o),
(482,62,o),
(383,62,cs),
(283,62,o),
(249,109,o),
(249,251,cs),
(249,575,l),
(321,609,l),
(317,640,l),
(4,640,l),
(2,613,l),
(61,575,l),
(61,279,ls),
(61,82,o),
(162,-16,o),
(366,-16,cs)
);
}
);
width = 674;
}
);
unicode = 85;
},
{
color = 5;
glyphname = V;
lastChange = "2022-11-27 06:00:44 +0000";
layers = (
{
guides = (
{
pos = (386,568);
},
{
pos = (386,577);
}
);
layerId = m01;
shapes = (
{
closed = 1;
nodes = (
(341,0,l),
(585,577,l),
(654,616,l),
(654,640,l),
(415,640,l),
(415,625,l),
(505,568,l),
(348,106,l),
(356,106,l),
(180,568,l),
(270,616,l),
(270,640,l),
(2,640,l),
(2,625,l),
(71,577,l),
(314,0,l)
);
}
);
width = 656;
},
{
guides = (
{
pos = (309,543);
},
{
pos = (365,558);
}
);
layerId = "778ADD7E-4752-4796-8294-609F841445EC";
shapes = (
{
closed = 1;
nodes = (
(384,0,l),
(627,558,l),
(679,605,l),
(679,640,l),
(422,640,l),
(422,618,l),
(484,543,l),
(388,126,l),
(403,126,l),
(271,543,l),
(333,605,l),
(333,640,l),
(2,640,l),
(2,618,l),
(54,558,l),
(296,0,l)
);
}
);
width = 681;
}
);
unicode = 86;
},
{
color = 5;
glyphname = W;
lastChange = "2022-12-10 07:36:26 +0000";
layers = (
{
anchors = (
{
name = bottom;
pos = (486,0);
},
{
name = top;
pos = (486,640);
}
);
layerId = m01;
shapes = (
{
closed = 1;
nodes = (
(670,0,l),
(901,577,l),
(970,616,l),
(970,640,l),
(735,640,l),
(735,625,l),
(819,570,l),
(668,88,l),
(692,88,l),
(521,568,l),
(607,616,l),
(607,640,l),
(360,640,l),
(360,625,l),
(421,577,l),
(465,462,l),
(465,442,l),
(643,0,l)
);
},
{
closed = 1;
nodes = (
(328,0,l),
(521,480,l),
(464,530,l),
(332,105,l),
(345,105,l),
(180,568,l),
(266,616,l),
(266,640,l),
(2,640,l),
(2,625,l),
(71,577,l),
(301,0,l)
);
}
);
width = 972;
},
{
anchors = (
{
name = bottom;
pos = (501,0);
},
{
name = top;
pos = (501,640);
}
);
guides = (
{
pos = (271,544);
}
);
layerId = "778ADD7E-4752-4796-8294-609F841445EC";
shapes = (
{
closed = 1;
nodes = (
(714,0,l),
(947,559,l),
(999,605,l),
(999,640,l),
(742,640,l),
(742,618,l),
(804,544,l),
(718,123,l),
(740,123,l),
(616,544,l),
(662,605,l),
(662,640,l),
(405,640,l),
(405,618,l),
(457,543,l),
(507,457,l),
(476,417,l),
(632,0,l)
);
},
{
closed = 1;
nodes = (
(368,0,l),
(552,458,l),
(466,587,l),
(370,119,l),
(395,119,l),
(271,544,l),
(323,605,l),
(323,640,l),
(2,640,l),
(2,618,l),
(54,559,l),
(286,0,l)
);
}
);
width = 1001;
}
);
metricLeft = "=V";
metricRight = "=V";
unicode = 87;
},
{
color = 5;
glyphname = X;
lastChange = "2022-11-27 11:41:22 +0000";
layers = (
{
layerId = m01;
shapes = (
{
closed = 1;
nodes = (
(707,0,l),
(707,24,l),
(626,69,l),
(398,357,l),
(334,314,l),
(511,64,l),
(434,15,l),
(434,0,l)
);
},
{
closed = 1;
nodes = (
(280,0,l),
(280,24,l),
(203,65,l),
(376,341,l),
(330,341,l),
(123,73,l),
(40,15,l),
(40,0,l)
);
},
{
closed = 1;
nodes = (
(411,338,l),
(249,575,l),
(322,616,l),
(322,640,l),
(58,640,l),
(58,625,l),
(132,573,l),
(339,295,l)
);
},
{
closed = 1;
nodes = (
(395,319,l),
(581,567,l),
(669,616,l),
(669,640,l),
(434,640,l),
(434,625,l),
(507,576,l),
(348,319,l)
);
}
);
width = 732;
},
{
guides = (
{
pos = (349,543);
}
);
layerId = "778ADD7E-4752-4796-8294-609F841445EC";
shapes = (
{
closed = 1;
nodes = (
(773,0,l),
(773,35,l),
(696,83,l),
(458,375,l),
(279,373,l),
(456,97,l),
(404,22,l),
(404,0,l)
);
},
{
closed = 1;
nodes = (
(303,0,l),
(303,35,l),
(251,97,l),
(385,338,l),
(342,339,l),
(90,82,l),
(23,22,l),
(23,0,l)
);
},
{
closed = 1;
nodes = (
(504,284,l),
(334,543,l),
(386,605,l),
(386,640,l),
(41,640,l),
(41,618,l),
(103,558,l),
(308,284,l)
);
},
{
closed = 1;
nodes = (
(419,314,l),
(668,558,l),
(745,605,l),
(745,640,l),
(456,640,l),
(456,618,l),
(508,543,l),
(385,313,l)
);
}
);
width = 796;
}
);
metricLeft = "=H";
metricRight = "=H";
unicode = 88;
},
{
color = 5;
glyphname = Y;
lastChange = "2022-12-10 01:33:05 +0000";
layers = (
{
anchors = (
{
name = bottom;
pos = (310,0);
},
{
name = top;
pos = (321,640);
},
{
name = topleft;
pos = (38,640);
}
);
layerId = m01;
shapes = (
{
closed = 1;
nodes = (
(316,190,l),
(538,575,l),
(608,616,l),
(608,640,l),
(373,640,l),
(373,625,l),
(456,571,l),
(318,262,l),
(341,262,l),
(180,568,l),
(266,616,l),
(266,640,l),
(2,640,l),
(2,625,l),
(71,577,l),
(293,190,l)
);
},
{
closed = 1;
nodes = (
(435,0,l),
(435,24,l),
(350,63,l),
(350,279,l),
(260,279,l),
(260,65,l),
(190,15,l),
(190,0,l)
);
}
);
width = 610;
},
{
anchors = (
{
name = bottom;
pos = (332,0);
},
{
name = top;
pos = (369,640);
},
{
name = topleft;
pos = (25,640);
}
);
layerId = "778ADD7E-4752-4796-8294-609F841445EC";
shapes = (
{
closed = 1;
nodes = (
(399,232,l),
(609,558,l),
(661,605,l),
(661,640,l),
(404,640,l),
(404,618,l),
(466,543,l),
(383,284,l),
(393,284,l),
(271,543,l),
(333,605,l),
(333,640,l),
(2,640,l),
(2,618,l),
(63,558,l),
(262,232,l)
);
},
{
closed = 1;
nodes = (
(480,0,l),
(480,35,l),
(423,83,l),
(423,287,l),
(240,287,l),
(240,92,l),
(183,22,l),
(183,0,l)
);
}
);
width = 663;
}
);
metricLeft = "=V";
metricRight = "=V";
unicode = 89;
},
{
color = 5;
glyphname = Z;
lastChange = "2023-02-18 02:39:28 +0000";
layers = (
{
anchors = (
{
name = bottom;
pos = (281,0);
},
{
name = center;
pos = (281,320);
},
{
name = top;
pos = (281,640);
}
);
layerId = m01;
shapes = (
{
closed = 1;
nodes = (
(116,0,l),
(540,614,l),
(524,640,l),
(464,640,l),
(20,16,l),
(20,0,l)
);
},
{
closed = 1;
nodes = (
(521,0,l),
(521,62,l),
(71,37,l),
(71,0,l)
);
},
{
closed = 1;
nodes = (
(529,0,l),
(543,219,l),
(528,219,l),
(400,38,l),
(400,0,l)
);
},
{
closed = 1;
nodes = (
(55,475,l),
(175,593,l),
(165,640,l),
(59,646,l),
(49,646,l),
(40,475,l)
);
},
{
closed = 1;
nodes = (
(501,603,l),
(501,640,l),
(65,640,l),
(65,581,l)
);
}
);
width = 572;
},
{
anchors = (
{
name = bottom;
pos = (315,0);
},
{
name = center;
pos = (315,320);
},
{
name = top;
pos = (315,640);
}
);
layerId = "778ADD7E-4752-4796-8294-609F841445EC";
shapes = (
{
closed = 1;
nodes = (
(221,0,l),
(605,606,l),
(595,640,l),
(445,640,l),
(15,34,l),
(26,0,l)
);
},
{
closed = 1;
nodes = (
(577,0,l),
(577,70,l),
(193,47,l),
(193,0,l)
);
},
{
closed = 1;
nodes = (
(594,0,l),
(601,262,l),
(579,262,l),
(385,47,l),
(385,0,l)
);
},
{
closed = 1;
nodes = (
(69,422,l),
(258,600,l),
(258,640,l),
(87,656,l),
(52,656,l),
(47,422,l)
);
},
{
closed = 1;
nodes = (
(511,598,l),
(511,640,l),
(99,640,l),
(99,565,l)
);
}
);
width = 624;
},
{
anchors = (
{
name = bottom;
pos = (281,0);
},
{
name = center;
pos = (281,320);
},
{
name = top;
pos = (281,640);
}
);
associatedMasterId = m01;
layerId = "5439F151-69B3-47A5-8E52-D6071ED5F9E0";
name = "17 Nov 22, 21:51";
shapes = (
{
closed = 1;
nodes = (
(122,0,l),
(537,614,l),
(517,640,l),
(464,640,l),
(20,16,l),
(25,0,l)
);
},
{
closed = 1;
nodes = (
(531,0,l),
(531,62,l),
(71,42,l),
(71,0,l)
);
},
{
closed = 1;
nodes = (
(546,0,l),
(552,196,l),
(514,200,l),
(454,47,l),
(401,0,l)
);
},
{
closed = 1;
nodes = (
(113,589,l),
(173,640,l),
(51,646,l),
(38,646,l),
(34,470,l),
(65,463,l)
);
},
{
closed = 1;
nodes = (
(501,600,l),
(501,640,l),
(55,640,l),
(55,581,l)
);
}
);
width = 572;
}
);
unicode = 90;
},
{
color = 5;
glyphname = a;
lastChange = "2023-02-16 07:07:04 +0000";
layers = (
{
anchors = (
{
name = bottom;
pos = (237,0);
},
{
name = ogonek;
pos = (380,0);
},
{
name = top;
pos = (237,430);
}
);
layerId = m01;
shapes = (
{
closed = 1;
nodes = (
(200,401,ls),
(274,401,o),
(310,358,o),
(310,270,cs),
(310,58,l),
(318,58,l),
(340,-12,l),
(355,-12,l),
(455,36,l),
(455,49,l),
(368,108,l),
(396,48,l),
(396,285,ls),
(396,390,o),
(343,442,o),
(236,442,cs),
(169,442,o),
(102,417,o),
(49,372,c),
(94,290,l),
(107,290,l),
(208,420,l),
(141,401,l)
);
},
{
closed = 1;
nodes = (
(216,-12,o),
(275,15,o),
(310,58,c),
(321,58,l),
(321,111,l),
(278,64,o),
(243,46,o),
(194,46,cs),
(153,46,o),
(127,72,o),
(127,113,cs),
(127,159,o),
(168,192,o),
(252,214,cs),
(341,237,l),
(341,273,l),
(247,255,ls),
(109,229,o),
(40,175,o),
(40,92,cs),
(40,34,o),
(92,-12,o),
(159,-12,cs)
);
}
);
width = 475;
},
{
anchors = (
{
name = bottom;
pos = (266,0);
},
{
name = ogonek;
pos = (409,0);
},
{
name = top;
pos = (258,454);
}
);
background = {
shapes = (
{
closed = 1;
nodes = (
(-80,431,l),
(-82,403,l),
(3,349,l),
(-11,393,l),
(-11,137,ls),
(-11,24,o),
(40,-39,o),
(131,-39,cs),
(198,-39,o),
(253,-12,o),
(313,50,c),
(321,50,l),
(321,100,l),
(291,79,o),
(259,68,o),
(224,68,cs),
(182,68,o),
(159,104,o),
(159,166,cs),
(159,393,l),
(129,330,l),
(206,416,l),
(204,431,l)
);
},
{
closed = 1;
nodes = (
(252,431,l),
(250,403,l),
(321,349,l),
(305,393,l),
(305,49,l),
(321,49,l),
(315,-22,l),
(343,-31,l),
(552,39,l),
(552,58,l),
(459,142,l),
(475,106,l),
(475,393,l),
(445,330,l),
(533,416,l),
(531,431,l)
);
}
);
};
layerId = "778ADD7E-4752-4796-8294-609F841445EC";
shapes = (
{
closed = 1;
nodes = (
(195,426,ls),
(267,426,o),
(302,381,o),
(302,290,c),
(302,48,l),
(321,48,l),
(349,-16,l),
(377,-16,l),
(529,52,l),
(529,70,l),
(432,146,l),
(472,63,l),
(472,292,ls),
(472,406,o),
(402,470,o),
(277,470,cs),
(182,470,o),
(115,449,o),
(38,395,c),
(93,279,l),
(111,279,l),
(238,440,l),
(108,426,l)
);
},
{
closed = 1;
nodes = (
(216,-16,o),
(268,5,o),
(310,48,c),
(383,48,l),
(340,112,l),
(311,85,o),
(286,73,o),
(259,73,cs),
(215,73,o),
(193,93,o),
(193,132,cs),
(193,180,o),
(223,209,o),
(292,227,cs),
(391,253,l),
(338,290,l),
(209,262,ls),
(91,236,o),
(25,178,o),
(25,101,cs),
(25,35,o),
(81,-16,o),
(152,-16,cs)
);
}
);
width = 537;
},
{
associatedMasterId = m01;
layerId = "37C8B204-8596-47B0-AAA8-6AD21C8AD271";
name = "25 Oct 22, 08:49";
shapes = (
{
closed = 1;
nodes = (
(404,-12,o),
(433,0,o),
(449,18,c),
(449,34,l),
(404,26,o),
(381,43,o),
(381,86,c),
(381,285,ls),
(381,390,o),
(328,442,o),
(221,442,cs),
(139,442,o),
(91,417,o),
(42,366,c),
(79,284,l),
(110,292,l),
(118,360,l),
(146,380,o),
(170,388,o),
(205,388,cs),
(268,388,o),
(295,352,o),
(295,270,cs),
(295,68,l),
(298,68,l),
(303,21,o),
(335,-12,o),
(375,-12,cs)
);
},
{
closed = 1;
nodes = (
(210,-12,o),
(249,12,o),
(292,68,c),
(306,68,l),
(306,123,l),
(260,70,o),
(228,50,o),
(190,50,cs),
(143,50,o),
(117,72,o),
(117,110,cs),
(117,166,o),
(147,192,o),
(238,217,cs),
(327,241,l),
(326,272,l),
(201,249,ls),
(88,228,o),
(32,179,o),
(32,101,cs),
(32,32,o),
(82,-12,o),
(162,-12,cs)
);
}
);
width = 457;
},
{
associatedMasterId = "778ADD7E-4752-4796-8294-609F841445EC";
layerId = "AEC59B5A-BA53-4C94-B9D7-A869E7231066";
name = "25 Oct 22, 08:52";
shapes = (
{
closed = 1;
nodes = (
(469,-16,o),
(496,-7,o),
(525,14,c),
(525,46,l),
(487,40,o),
(472,54,o),
(472,98,c),
(472,292,ls),
(472,406,o),
(399,470,o),
(268,470,cs),
(189,470,o),
(122,450,o),
(49,404,c),
(108,279,l),
(154,292,l),
(175,381,l),
(190,392,o),
(208,397,o),
(227,397,cs),
(279,397,o),
(302,364,o),
(302,290,c),
(302,58,l),
(315,58,l),
(330,11,o),
(374,-16,o),
(436,-16,cs)
);
},
{
closed = 1;
nodes = (
(243,-16,o),
(284,7,o),
(310,59,c),
(310,71,l),
(302,100,l),
(286,82,o),
(266,73,o),
(242,73,cs),
(207,73,o),
(188,90,o),
(188,120,cs),
(188,177,o),
(218,205,o),
(297,226,cs),
(396,252,l),
(343,290,l),
(208,261,ls),
(89,235,o),
(30,182,o),
(30,101,cs),
(30,32,o),
(90,-16,o),
(175,-16,cs)
);
}
);
width = 530;
},
{
anchors = (
{
name = bottom;
pos = (236,0);
},
{
name = ogonek;
pos = (439,0);
},
{
name = top;
pos = (236,430);
}
);
associatedMasterId = m01;
layerId = "E6B211CA-FC05-4BF0-BFF7-6EF23D986220";
name = "1 Nov 22, 09:03";
shapes = (
{
closed = 1;
nodes = (
(418,-12,o),
(447,0,o),
(463,18,c),
(463,34,l),
(418,26,o),
(395,43,o),
(395,86,c),
(395,285,ls),
(395,386,o),
(335,442,o),
(229,442,cs),
(153,442,o),
(97,419,o),
(46,366,c),
(83,284,l),
(114,292,l),
(122,360,l),
(149,379,o),
(177,388,o),
(213,388,cs),
(280,388,o),
(309,352,o),
(309,270,cs),
(309,68,l),
(312,68,l),
(317,21,o),
(349,-12,o),
(389,-12,cs)
);
},
{
closed = 1;
nodes = (
(220,-12,o),
(265,15,o),
(306,68,c),
(320,68,l),
(320,123,l),
(278,74,o),
(237,50,o),
(197,50,cs),
(146,50,o),
(117,72,o),
(117,110,cs),
(117,162,o),
(156,194,o),
(246,217,cs),
(341,241,l),
(340,276,l),
(209,253,ls),
(95,233,o),
(32,179,o),
(32,101,cs),
(32,32,o),
(85,-12,o),
(169,-12,cs)
);
}
);
width = 471;
},
{
anchors = (
{
name = bottom;
pos = (241,0);
},
{
name = ogonek;
pos = (444,0);
},
{
name = top;
pos = (231,430);
}
);
associatedMasterId = m01;
layerId = "3D553E42-C943-42E2-828F-2451A6F20224";
name = "15 Nov 22, 07:30";
shapes = (
{
closed = 1;
nodes = (
(423,-12,o),
(452,0,o),
(468,18,c),
(468,34,l),
(423,26,o),
(400,43,o),
(400,86,c),
(400,285,ls),
(400,381,o),
(338,442,o),
(238,442,cs),
(168,442,o),
(107,415,o),
(54,360,c),
(88,279,l),
(127,289,l),
(127,368,l),
(155,385,o),
(180,391,o),
(218,391,cs),
(282,391,o),
(314,351,o),
(314,270,cs),
(314,68,l),
(317,68,l),
(322,21,o),
(354,-12,o),
(394,-12,cs)
);
},
{
closed = 1;
nodes = (
(212,-12,o),
(268,17,o),
(311,68,c),
(325,68,l),
(325,123,l),
(285,76,o),
(238,50,o),
(193,50,cs),
(147,50,o),
(122,74,o),
(122,118,cs),
(122,162,o),
(165,195,o),
(251,217,cs),
(346,241,l),
(345,279,l),
(171,238,ls),
(85,218,o),
(37,169,o),
(37,101,cs),
(37,35,o),
(85,-12,o),
(154,-12,cs)
);
}
);
width = 485;
},
{
anchors = (
{
name = bottom;
pos = (265,0);
},
{
name = ogonek;
pos = (495,0);
},
{
name = top;
pos = (257,454);
}
);
associatedMasterId = "778ADD7E-4752-4796-8294-609F841445EC";
layerId = "90881857-D446-4E28-8232-6210EACD1FC4";
name = "17 Nov 22, 11:00";
shapes = (
{
closed = 1;
nodes = (
(466,-16,o),
(502,-3,o),
(531,24,c),
(531,56,l),
(491,50,o),
(471,64,o),
(471,98,c),
(471,292,ls),
(471,401,o),
(390,470,o),
(262,470,cs),
(172,470,o),
(103,440,o),
(36,372,c),
(95,270,l),
(151,286,l),
(156,382,l),
(173,394,o),
(198,401,o),
(226,401,cs),
(278,401,o),
(301,367,o),
(301,290,c),
(301,58,l),
(314,58,l),
(324,11,o),
(362,-16,o),
(421,-16,cs)
);
},
{
closed = 1;
nodes = (
(219,-16,o),
(272,9,o),
(311,58,c),
(309,71,l),
(301,100,l),
(285,82,o),
(265,73,o),
(241,73,cs),
(207,73,o),
(188,92,o),
(188,127,cs),
(188,178,o),
(218,206,o),
(296,226,cs),
(395,252,l),
(342,283,l),
(167,245,ls),
(75,225,o),
(30,177,o),
(30,101,cs),
(30,32,o),
(80,-16,o),
(151,-16,cs)
);
}
);
width = 538;
},
{
anchors = (
{
name = bottom;
pos = (265,0);
},
{
name = ogonek;
pos = (495,0);
},
{
name = top;
pos = (257,454);
}
);
associatedMasterId = "778ADD7E-4752-4796-8294-609F841445EC";
layerId = "9617BD86-7FBF-48E1-A155-ED0667A6F9B1";
name = "17 Nov 22, 11:32";
shapes = (
{
closed = 1;
nodes = (
(466,-16,o),
(502,-3,o),
(531,24,c),
(531,56,l),
(491,50,o),
(471,64,o),
(471,98,c),
(471,292,ls),
(471,401,o),
(390,470,o),
(262,470,cs),
(172,470,o),
(103,440,o),
(36,372,c),
(95,270,l),
(151,286,l),
(156,382,l),
(173,394,o),
(198,401,o),
(226,401,cs),
(278,401,o),
(301,367,o),
(301,290,c),
(301,58,l),
(314,58,l),
(324,11,o),
(362,-16,o),
(421,-16,cs)
);
},
{
closed = 1;
nodes = (
(219,-16,o),
(272,9,o),
(311,58,c),
(309,71,l),
(301,100,l),
(285,82,o),
(265,73,o),
(241,73,cs),
(207,73,o),
(188,92,o),
(188,127,cs),
(188,178,o),
(218,206,o),
(296,226,cs),
(395,252,l),
(342,283,l),
(167,245,ls),
(75,225,o),
(30,177,o),
(30,101,cs),
(30,32,o),
(80,-16,o),
(151,-16,cs)
);
}
);
width = 538;
},
{
anchors = (
{
name = bottom;
pos = (227,0);
},
{
name = ogonek;
pos = (430,0);
},
{
name = top;
pos = (217,430);
}
);
associatedMasterId = m01;
background = {
shapes = (
{
closed = 1;
nodes = (
(-52,430,l),
(-54,409,l),
(38,372,l),
(22,396,l),
(22,157,ls),
(22,49,o),
(68,-12,o),
(149,-12,cs),
(213,-12,o),
(267,14,o),
(329,75,c),
(343,75,l),
(343,144,l),
(313,90,o),
(253,52,o),
(199,52,cs),
(138,52,o),
(108,95,o),
(108,182,cs),
(108,383,l),
(94,365,l),
(166,417,l),
(164,430,l)
);
}
);
};
layerId = "63F48114-5D37-41F3-A354-DF50916E4BD9";
name = "17 Nov 22, 13:25";
shapes = (
{
closed = 1;
nodes = (
(345,-12,l),
(438,36,l),
(438,48,l),
(370,90,l),
(386,61,l),
(386,285,ls),
(386,386,o),
(336,442,o),
(246,442,cs),
(166,442,o),
(106,418,o),
(48,363,c),
(99,283,l),
(115,284,l),
(129,370,l),
(152,385,o),
(178,391,o),
(215,391,cs),
(272,391,o),
(300,351,o),
(300,270,cs),
(300,58,l),
(308,58,l),
(330,-12,l)
);
},
{
closed = 1;
nodes = (
(210,-12,o),
(265,15,o),
(300,58,c),
(311,58,l),
(311,117,l),
(276,74,o),
(232,50,o),
(189,50,cs),
(150,50,o),
(126,74,o),
(126,113,cs),
(126,159,o),
(166,192,o),
(247,214,cs),
(332,237,l),
(331,273,l),
(212,249,ls),
(109,228,o),
(44,166,o),
(44,89,cs),
(44,32,o),
(94,-12,o),
(157,-12,cs)
);
}
);
width = 450;
},
{
anchors = (
{
name = bottom;
pos = (228,0);
},
{
name = ogonek;
pos = (371,0);
},
{
name = top;
pos = (218,430);
}
);
associatedMasterId = m01;
background = {
shapes = (
{
closed = 1;
nodes = (
(-51,430,l),
(-53,409,l),
(39,372,l),
(23,396,l),
(23,157,ls),
(23,49,o),
(69,-12,o),
(150,-12,cs),
(214,-12,o),
(268,14,o),
(330,75,c),
(344,75,l),
(344,144,l),
(314,90,o),
(254,52,o),
(200,52,cs),
(139,52,o),
(109,95,o),
(109,182,cs),
(109,383,l),
(95,365,l),
(167,417,l),
(165,430,l)
);
}
);
};
layerId = "B1BAF75A-8201-46CA-B504-47D351930975";
name = "19 Nov 22, 20:58";
shapes = (
{
closed = 1;
nodes = (
(346,-12,l),
(446,36,l),
(446,48,l),
(371,100,l),
(387,71,l),
(387,285,ls),
(387,386,o),
(333,442,o),
(237,442,cs),
(166,442,o),
(102,418,o),
(45,369,c),
(92,287,l),
(105,288,l),
(176,384,l),
(188,390,o),
(200,392,o),
(216,392,cs),
(273,392,o),
(301,352,o),
(301,270,cs),
(301,58,l),
(309,58,l),
(331,-12,l)
);
},
{
closed = 1;
nodes = (
(208,-12,o),
(266,15,o),
(301,58,c),
(312,58,l),
(312,117,l),
(277,74,o),
(231,50,o),
(185,50,cs),
(146,50,o),
(122,74,o),
(122,113,cs),
(122,160,o),
(162,193,o),
(243,214,cs),
(333,237,l),
(332,273,l),
(238,255,ls),
(106,230,o),
(40,175,o),
(40,92,cs),
(40,34,o),
(88,-12,o),
(150,-12,cs)
);
}
);
width = 477;
},
{
anchors = (
{
name = bottom;
pos = (228,0);
},
{
name = ogonek;
pos = (371,0);
},
{
name = top;
pos = (231,430);
}
);
associatedMasterId = m01;
background = {
shapes = (
{
closed = 1;
nodes = (
(336,-12,o),
(440,94,o),
(440,230,cs),
(440,354,o),
(351,442,o),
(225,442,cs),
(92,442,o),
(-12,336,o),
(-12,200,cs),
(-12,76,o),
(77,-12,o),
(203,-12,cs)
);
},
{
closed = 1;
nodes = (
(138,33,o),
(75,121,o),
(75,233,cs),
(75,343,o),
(119,397,o),
(209,397,cs),
(290,397,o),
(353,309,o),
(353,197,cs),
(353,87,o),
(309,33,o),
(219,33,cs)
);
}
);
};
layerId = "AF6BB1AC-371D-4012-827B-77A06C5D4AE2";
name = "23 Nov 22, 09:07";
shapes = (
{
closed = 1;
nodes = (
(346,-12,l),
(446,36,l),
(446,48,l),
(371,100,l),
(387,71,l),
(387,285,ls),
(387,386,o),
(333,442,o),
(237,442,cs),
(166,442,o),
(102,418,o),
(45,369,c),
(92,287,l),
(105,288,l),
(176,384,l),
(188,390,o),
(200,392,o),
(216,392,cs),
(273,392,o),
(301,352,o),
(301,270,cs),
(301,58,l),
(309,58,l),
(331,-12,l)
);
},
{
closed = 1;
nodes = (
(208,-12,o),
(266,15,o),
(301,58,c),
(312,58,l),
(312,117,l),
(277,74,o),
(231,50,o),
(185,50,cs),
(146,50,o),
(122,74,o),
(122,113,cs),
(122,160,o),
(162,193,o),
(243,214,cs),
(333,237,l),
(332,273,l),
(238,255,ls),
(106,230,o),
(40,175,o),
(40,92,cs),
(40,34,o),
(88,-12,o),
(150,-12,cs)
);
}
);
width = 477;
},
{
anchors = (
{
name = bottom;
pos = (270,0);
},
{
name = ogonek;
pos = (413,0);
},
{
name = top;
pos = (262,454);
}
);
associatedMasterId = "778ADD7E-4752-4796-8294-609F841445EC";
layerId = "95D10D8B-E114-4AF1-96D1-A99F52A3539B";
name = "23 Nov 22, 09:10";
shapes = (
{
closed = 1;
nodes = (
(374,-16,l),
(535,46,l),
(531,70,l),
(460,127,l),
(476,91,l),
(476,292,ls),
(476,401,o),
(401,470,o),
(281,470,cs),
(186,470,o),
(119,449,o),
(42,395,c),
(102,275,l),
(131,278,l),
(221,399,l),
(226,401,o),
(229,401,o),
(235,401,cs),
(281,401,o),
(306,361,o),
(306,290,c),
(306,51,l),
(325,51,l),
(350,-16,l)
);
},
{
closed = 1;
nodes = (
(224,-16,o),
(277,6,o),
(314,51,c),
(314,71,l),
(306,92,l),
(289,82,o),
(270,78,o),
(245,78,cs),
(215,78,o),
(198,97,o),
(198,132,cs),
(198,178,o),
(230,209,o),
(296,226,cs),
(395,252,l),
(342,290,l),
(213,262,ls),
(102,238,o),
(40,180,o),
(40,101,cs),
(40,32,o),
(88,-16,o),
(156,-16,cs)
);
}
);
width = 566;
}
);
metricLeft = "=o";
metricRight = "=|b";
unicode = 97;
},
{
color = 5;
glyphname = ae;
lastChange = "2022-12-10 06:04:52 +0000";
layers = (
{
anchors = (
{
name = bottom;
pos = (376,0);
},
{
name = top;
pos = (376,430);
}
);
layerId = m01;
shapes = (
{
closed = 1;
nodes = (
(604,-12,o),
(660,12,o),
(709,68,c),
(690,93,l),
(646,57,o),
(607,43,o),
(551,43,cs),
(455,43,o),
(394,116,o),
(394,233,cs),
(394,338,o),
(437,397,o),
(514,397,cs),
(573,397,o),
(617,350,o),
(620,283,c),
(358,261,l),
(358,228,l),
(711,228,l),
(711,365,o),
(648,442,o),
(536,442,cs),
(450,442,o),
(376,395,o),
(337,323,c),
(306,323,l),
(306,200,ls),
(306,76,o),
(396,-12,o),
(525,-12,cs)
);
},
{
closed = 1;
nodes = (
(241,-12,o),
(298,15,o),
(342,68,c),
(353,68,l),
(353,127,l),
(315,79,o),
(253,46,o),
(204,46,cs),
(155,46,o),
(127,70,o),
(127,113,cs),
(127,160,o),
(167,193,o),
(248,214,cs),
(337,237,l),
(337,273,l),
(243,255,ls),
(107,229,o),
(40,175,o),
(40,92,cs),
(40,28,o),
(90,-12,o),
(169,-12,cs)
);
},
{
closed = 1;
nodes = (
(392,246,l),
(392,285,ls),
(392,390,o),
(339,442,o),
(232,442,cs),
(165,442,o),
(98,417,o),
(45,372,c),
(90,290,l),
(103,290,l),
(204,420,l),
(137,401,l),
(196,401,ls),
(270,401,o),
(306,358,o),
(306,270,c),
(306,246,l)
);
}
);
width = 751;
},
{
anchors = (
{
name = bottom;
pos = (400,0);
},
{
name = top;
pos = (400,454);
}
);
layerId = "778ADD7E-4752-4796-8294-609F841445EC";
shapes = (
{
closed = 1;
nodes = (
(639,-16,o),
(725,31,o),
(761,97,c),
(729,123,l),
(692,93,o),
(654,80,o),
(605,80,cs),
(508,80,o),
(465,148,o),
(465,302,cs),
(465,365,o),
(492,405,o),
(534,405,cs),
(578,405,o),
(609,362,o),
(609,301,c),
(409,256,l),
(409,224,l),
(774,224,l),
(774,375,o),
(699,470,o),
(579,470,cs),
(481,470,o),
(413,435,o),
(357,354,c),
(302,354,l),
(302,212,ls),
(302,72,o),
(398,-16,o),
(552,-16,cs)
);
},
{
closed = 1;
nodes = (
(240,-16,o),
(304,10,o),
(350,57,c),
(423,57,l),
(369,123,l),
(339,88,o),
(306,73,o),
(259,73,cs),
(215,73,o),
(193,93,o),
(193,132,cs),
(193,180,o),
(223,209,o),
(292,227,cs),
(391,253,l),
(338,290,l),
(209,262,ls),
(91,236,o),
(25,178,o),
(25,101,cs),
(25,35,o),
(101,-16,o),
(172,-16,cs)
);
},
{
closed = 1;
nodes = (
(459,249,l),
(459,292,ls),
(459,406,o),
(394,470,o),
(277,470,cs),
(182,470,o),
(115,449,o),
(38,395,c),
(93,279,l),
(111,279,l),
(238,449,l),
(108,426,l),
(195,426,ls),
(267,426,o),
(302,381,o),
(302,290,c),
(302,249,l)
);
}
);
width = 799;
}
);
metricLeft = "=a";
unicode = 230;
},
{
color = 5;
glyphname = b;
lastChange = "2022-12-09 09:40:54 +0000";
layers = (
{
layerId = m01;
shapes = (
{
closed = 1;
nodes = (
(411,-12,o),
(514,99,o),
(514,240,cs),
(514,353,o),
(433,442,o),
(330,442,cs),
(276,442,o),
(232,421,o),
(171,365,c),
(158,365,l),
(158,307,l),
(201,356,o),
(245,378,o),
(300,378,cs),
(378,378,o),
(427,311,o),
(427,205,cs),
(427,98,o),
(372,31,o),
(284,31,cs),
(206,31,o),
(167,55,o),
(131,128,c),
(131,28,l),
(170,1,o),
(220,-12,o),
(280,-12,cs)
);
},
{
closed = 1;
nodes = (
(99,-8,l),
(164,56,l),
(171,56,l),
(171,365,l),
(166,365,l),
(173,541,l),
(173,735,l),
(150,735,l),
(20,679,l),
(20,666,l),
(124,588,l),
(87,662,l),
(87,-8,l)
);
}
);
width = 554;
},
{
layerId = "778ADD7E-4752-4796-8294-609F841445EC";
shapes = (
{
closed = 1;
nodes = (
(474,-16,o),
(584,97,o),
(584,257,cs),
(584,382,o),
(513,470,o),
(413,470,cs),
(361,470,o),
(310,447,o),
(246,394,c),
(230,394,l),
(230,338,l),
(253,355,o),
(282,365,o),
(312,365,cs),
(380,365,o),
(409,310,o),
(409,185,cs),
(409,95,o),
(374,44,o),
(312,44,cs),
(269,44,o),
(239,66,o),
(219,111,c),
(128,55,l),
(185,8,o),
(248,-16,o),
(318,-16,cs)
);
},
{
closed = 1;
nodes = (
(94,-12,l),
(178,62,l),
(246,62,l),
(246,394,l),
(237,394,l),
(246,589,l),
(246,739,l),
(215,749,l),
(8,665,l),
(8,647,l),
(106,570,l),
(76,638,l),
(76,-12,l)
);
}
);
width = 609;
},
{
associatedMasterId = "778ADD7E-4752-4796-8294-609F841445EC";
layerId = "F6C60770-868A-4056-9C95-915EA9477561";
name = "22 Oct 22, 10:59";
shapes = (
{
closed = 1;
nodes = (
(475,-16,o),
(584,88,o),
(584,254,cs),
(584,375,o),
(502,470,o),
(398,470,cs),
(346,470,o),
(296,447,o),
(233,396,c),
(225,396,l),
(233,334,l),
(262,363,o),
(290,376,o),
(325,376,cs),
(385,376,o),
(419,310,o),
(419,192,cs),
(419,104,o),
(380,49,o),
(317,49,cs),
(284,49,o),
(259,58,o),
(241,76,c),
(208,97,l),
(123,49,l),
(174,7,o),
(238,-16,o),
(302,-16,cs)
);
},
{
closed = 1;
nodes = (
(106,-12,l),
(173,54,l),
(241,62,l),
(241,402,l),
(236,402,l),
(239,435,o),
(241,487,o),
(241,573,cs),
(241,717,l),
(213,732,l),
(7,661,l),
(10,639,l),
(87,592,l),
(71,618,l),
(71,-12,l)
);
}
);
width = 614;
},
{
associatedMasterId = m01;
layerId = "0C3977BD-DC67-441E-B70E-3DC1ABFAC8B2";
name = "25 Oct 22, 08:40";
shapes = (
{
closed = 1;
nodes = (
(417,-12,o),
(523,94,o),
(523,228,cs),
(523,359,o),
(443,442,o),
(316,442,cs),
(262,442,o),
(217,422,o),
(168,375,c),
(155,375,l),
(155,303,l),
(203,356,o),
(249,383,o),
(294,383,cs),
(384,383,o),
(434,319,o),
(434,205,cs),
(434,97,o),
(381,36,o),
(286,36,cs),
(241,36,o),
(208,48,o),
(168,78,c),
(150,97,l),
(125,39,l),
(167,4,o),
(215,-12,o),
(283,-12,cs)
);
},
{
closed = 1;
nodes = (
(100,-7,l),
(161,56,l),
(168,63,l),
(168,375,l),
(165,375,l),
(168,408,o),
(170,460,o),
(170,546,cs),
(170,720,l),
(152,720,l),
(17,665,l),
(17,653,l),
(100,605,l),
(84,640,l),
(84,-7,l)
);
}
);
width = 555;
},
{
associatedMasterId = m01;
layerId = "190EC7A6-6A16-4F43-9301-0ED72DC66A1F";
name = "29 Oct 22, 13:58";
shapes = (
{
closed = 1;
nodes = (
(405,-12,o),
(503,94,o),
(503,228,cs),
(503,354,o),
(422,442,o),
(306,442,cs),
(252,442,o),
(213,423,o),
(168,375,c),
(155,375,l),
(155,303,l),
(205,363,o),
(238,383,o),
(284,383,cs),
(367,383,o),
(414,319,o),
(414,205,cs),
(414,98,o),
(366,38,o),
(281,38,cs),
(241,38,o),
(213,46,o),
(168,72,c),
(150,97,l),
(125,39,l),
(172,2,o),
(216,-12,o),
(281,-12,cs)
);
},
{
closed = 1;
nodes = (
(100,-7,l),
(161,56,l),
(168,63,l),
(168,375,l),
(165,375,l),
(168,408,o),
(170,460,o),
(170,546,cs),
(170,720,l),
(152,720,l),
(17,665,l),
(17,653,l),
(100,605,l),
(84,640,l),
(84,-7,l)
);
}
);
width = 535;
},
{
associatedMasterId = m01;
layerId = "97D5D555-DDA5-49EA-A5E3-D54F4CF39309";
name = "17 Nov 22, 21:25";
shapes = (
{
closed = 1;
nodes = (
(396,-12,o),
(501,94,o),
(501,228,cs),
(501,354,o),
(422,442,o),
(309,442,cs),
(254,442,o),
(219,427,o),
(166,380,c),
(153,380,l),
(153,319,l),
(199,363,o),
(236,380,o),
(287,380,cs),
(364,380,o),
(412,313,o),
(412,205,cs),
(412,97,o),
(358,36,o),
(262,36,cs),
(227,36,o),
(200,45,o),
(166,68,c),
(148,97,l),
(123,33,l),
(173,-1,o),
(208,-12,o),
(262,-12,cs)
);
},
{
closed = 1;
nodes = (
(98,-7,l),
(159,56,l),
(166,63,l),
(166,380,l),
(163,380,l),
(166,410,o),
(168,483,o),
(168,546,cs),
(168,720,l),
(150,720,l),
(15,665,l),
(15,653,l),
(98,605,l),
(82,640,l),
(82,-7,l)
);
}
);
width = 545;
}
);
metricLeft = "=n-10";
metricRight = "=o";
unicode = 98;
},
{
color = 5;
glyphname = c;
lastChange = "2022-12-12 05:12:42 +0000";
layers = (
{
anchors = (
{
name = bottom;
pos = (235,0);
},
{
name = top;
pos = (270,430);
}
);
background = {
shapes = (
{
closed = 1;
nodes = (
(338,-12,o),
(394,12,o),
(443,68,c),
(424,93,l),
(380,57,o),
(341,43,o),
(285,43,cs),
(189,43,o),
(128,116,o),
(128,233,cs),
(128,338,o),
(171,397,o),
(248,397,cs),
(304,397,o),
(351,346,o),
(354,281,c),
(92,263,l),
(92,228,l),
(445,228,l),
(445,365,o),
(382,442,o),
(270,442,cs),
(141,442,o),
(40,336,o),
(40,200,cs),
(40,76,o),
(130,-12,o),
(259,-12,cs)
);
}
);
};
layerId = m01;
shapes = (
{
closed = 1;
nodes = (
(339,-12,o),
(404,20,o),
(441,78,c),
(420,100,l),
(378,60,o),
(337,43,o),
(285,43,cs),
(189,43,o),
(128,116,o),
(128,233,cs),
(128,338,o),
(171,397,o),
(248,397,c),
(273,397,o),
(295,392,o),
(319,379,c),
(319,415,l),
(263,415,l),
(369,296,l),
(382,296,l),
(432,392,l),
(385,425,o),
(332,442,o),
(270,442,cs),
(141,442,o),
(40,336,o),
(40,200,cs),
(40,76,o),
(130,-12,o),
(259,-12,cs)
);
}
);
width = 471;
},
{
anchors = (
{
name = bottom;
pos = (259,0);
},
{
name = top;
pos = (302,454);
}
);
background = {
shapes = (
{
closed = 0;
nodes = (
(318,398,l),
(396,278,l),
(421,275,l),
(485,395,l)
);
}
);
};
layerId = "778ADD7E-4752-4796-8294-609F841445EC";
shapes = (
{
closed = 1;
nodes = (
(362,-16,o),
(448,31,o),
(484,97,c),
(452,123,l),
(417,97,o),
(379,85,o),
(328,85,cs),
(235,85,o),
(183,154,o),
(183,278,cs),
(183,363,o),
(217,405,o),
(285,405,cs),
(312,405,o),
(334,393,o),
(358,367,c),
(358,432,l),
(275,432,l),
(398,287,l),
(416,287,l),
(478,412,l),
(430,451,o),
(372,470,o),
(302,470,cs),
(147,470,o),
(25,356,o),
(25,212,cs),
(25,78,o),
(128,-16,o),
(275,-16,cs)
);
}
);
width = 503;
},
{
associatedMasterId = "778ADD7E-4752-4796-8294-609F841445EC";
layerId = "BC5F9402-4BBF-4101-8D06-5438B2FA38E7";
name = "29 Oct 22, 18:33";
shapes = (
{
closed = 1;
nodes = (
(381,-16,o),
(444,21,o),
(488,104,c),
(450,125,l),
(423,87,o),
(387,70,o),
(333,70,cs),
(236,70,o),
(188,139,o),
(188,278,cs),
(188,358,o),
(228,403,o),
(300,403,cs),
(321,403,o),
(335,400,o),
(348,394,c),
(403,277,l),
(447,283,l),
(483,412,l),
(434,452,o),
(380,470,o),
(303,470,cs),
(150,470,o),
(30,356,o),
(30,212,cs),
(30,72,o),
(126,-16,o),
(280,-16,cs)
);
}
);
width = 518;
},
{
anchors = (
{
name = bottom;
pos = (237,0);
},
{
name = top;
pos = (237,430);
}
);
associatedMasterId = m01;
layerId = "C40D9770-BA95-4555-8C1F-217C3D99E667";
name = "17 Nov 22, 20:01";
shapes = (
{
closed = 1;
nodes = (
(338,-12,o),
(394,18,o),
(428,80,c),
(405,97,l),
(370,58,o),
(335,43,o),
(277,43,cs),
(187,43,o),
(130,116,o),
(130,233,cs),
(130,330,o),
(178,391,o),
(254,391,cs),
(293,391,o),
(323,380,o),
(352,354,c),
(366,285,l),
(408,289,l),
(424,386,l),
(376,423,o),
(324,442,o),
(268,442,cs),
(141,442,o),
(42,336,o),
(42,200,cs),
(42,76,o),
(132,-12,o),
(261,-12,cs)
);
}
);
width = 470;
},
{
anchors = (
{
name = bottom;
pos = (274,0);
},
{
name = top;
pos = (274,454);
}
);
associatedMasterId = "778ADD7E-4752-4796-8294-609F841445EC";
background = {
shapes = (
{
closed = 0;
nodes = (
(333,398,l),
(411,278,l),
(436,275,l),
(500,395,l)
);
}
);
};
layerId = "BE781C14-7207-4666-AC28-4FB567187A9E";
name = "25 Nov 22, 14:34";
shapes = (
{
closed = 1;
nodes = (
(377,-16,o),
(463,31,o),
(499,97,c),
(467,123,l),
(430,93,o),
(392,80,o),
(343,80,cs),
(246,80,o),
(198,146,o),
(198,278,cs),
(198,358,o),
(238,403,o),
(310,403,cs),
(313,403,o),
(316,403,o),
(320,402,c),
(413,279,l),
(442,281,l),
(493,412,l),
(444,452,o),
(390,470,o),
(313,470,cs),
(160,470,o),
(40,356,o),
(40,212,cs),
(40,72,o),
(136,-16,o),
(290,-16,cs)
);
}
);
width = 539;
}
);
metricLeft = "=o";
metricRight = "=o*0.75";
unicode = 99;
},
{
color = 5;
glyphname = d;
lastChange = "2022-12-10 07:39:38 +0000";
layers = (
{
anchors = (
{
name = bottom;
pos = (274,0);
},
{
name = center;
pos = (323,539);
},
{
name = top;
pos = (274,735);
},
{
name = topright;
pos = (469,735);
}
);
layerId = m01;
shapes = (
{
closed = 1;
nodes = (
(278,-12,o),
(322,9,o),
(383,65,c),
(396,65,l),
(396,123,l),
(353,74,o),
(309,52,o),
(254,52,cs),
(176,52,o),
(127,119,o),
(127,225,cs),
(127,332,o),
(182,399,o),
(270,399,cs),
(348,399,o),
(387,375,o),
(423,302,c),
(423,402,l),
(384,429,o),
(334,442,o),
(274,442,cs),
(143,442,o),
(40,331,o),
(40,190,cs),
(40,77,o),
(121,-12,o),
(224,-12,cs)
);
},
{
closed = 1;
nodes = (
(427,-12,l),
(528,43,l),
(528,56,l),
(441,117,l),
(469,48,l),
(469,735,l),
(446,735,l),
(316,679,l),
(316,666,l),
(420,588,l),
(383,662,l),
(383,567,l),
(387,423,l),
(383,423,l),
(383,65,l),
(391,65,l),
(412,-12,l)
);
}
);
width = 548;
},
{
anchors = (
{
name = bottom;
pos = (299,0);
},
{
name = center;
pos = (372,539);
},
{
name = top;
pos = (299,735);
},
{
name = topright;
pos = (533,735);
}
);
layerId = "778ADD7E-4752-4796-8294-609F841445EC";
shapes = (
{
closed = 1;
nodes = (
(248,-16,o),
(299,7,o),
(363,60,c),
(379,60,l),
(379,116,l),
(356,99,o),
(327,89,o),
(297,89,cs),
(229,89,o),
(200,144,o),
(200,269,cs),
(200,359,o),
(235,410,o),
(297,410,cs),
(340,410,o),
(370,388,o),
(390,343,c),
(481,399,l),
(424,446,o),
(361,470,o),
(291,470,cs),
(135,470,o),
(25,357,o),
(25,197,cs),
(25,72,o),
(96,-16,o),
(196,-16,cs)
);
},
{
closed = 1;
nodes = (
(438,-16,l),
(590,52,l),
(590,70,l),
(493,146,l),
(533,67,l),
(533,739,l),
(502,749,l),
(295,665,l),
(295,647,l),
(393,570,l),
(363,643,l),
(363,594,l),
(371,464,l),
(363,460,l),
(363,60,l),
(374,60,l),
(410,-16,l)
);
}
);
width = 598;
},
{
associatedMasterId = m01;
layerId = "FA78EB34-F677-4D4F-934E-6540DCBCF5B3";
name = "22 Oct 22, 10:51";
shapes = (
{
closed = 1;
nodes = (
(430,-12,l),
(544,39,l),
(544,51,l),
(457,107,l),
(473,78,l),
(473,720,l),
(455,720,l),
(320,665,l),
(320,653,l),
(403,605,l),
(387,634,l),
(387,567,ls),
(387,482,o),
(388,443,o),
(390,409,c),
(387,409,l),
(387,59,l),
(395,59,l),
(415,-12,l)
);
},
{
closed = 1;
nodes = (
(291,-12,o),
(340,11,o),
(389,58,c),
(401,58,l),
(401,121,l),
(353,68,o),
(314,47,o),
(261,47,cs),
(171,47,o),
(121,111,o),
(121,225,cs),
(121,328,o),
(178,392,o),
(269,392,cs),
(315,392,o),
(351,377,o),
(387,342,c),
(405,333,l),
(431,372,l),
(386,419,o),
(333,442,o),
(272,442,cs),
(138,442,o),
(32,336,o),
(32,202,cs),
(32,71,o),
(112,-12,o),
(239,-12,cs)
);
}
);
width = 556;
},
{
associatedMasterId = "778ADD7E-4752-4796-8294-609F841445EC";
layerId = "4E66E7FE-1836-4C30-BAB1-4C58B2824A69";
name = "22 Oct 22, 10:58";
shapes = (
{
closed = 1;
nodes = (
(446,-12,l),
(607,68,l),
(603,87,l),
(527,139,l),
(543,103,l),
(543,717,l),
(515,732,l),
(309,661,l),
(312,639,l),
(389,592,l),
(373,618,l),
(373,581,ls),
(373,528,o),
(375,498,o),
(379,460,c),
(373,460,l),
(373,58,l),
(389,58,l),
(422,-12,l)
);
},
{
closed = 1;
nodes = (
(268,-16,o),
(318,7,o),
(381,58,c),
(398,58,l),
(381,111,l),
(351,88,o),
(323,78,o),
(289,78,cs),
(229,78,o),
(195,144,o),
(195,262,cs),
(195,350,o),
(234,405,o),
(297,405,cs),
(329,405,o),
(353,398,o),
(373,383,c),
(406,357,l),
(471,383,l),
(422,444,o),
(374,470,o),
(312,470,cs),
(154,470,o),
(30,351,o),
(30,200,cs),
(30,79,o),
(112,-16,o),
(216,-16,cs)
);
}
);
width = 622;
},
{
associatedMasterId = m01;
layerId = "A9495A31-85A9-4B6E-ACDA-8228427C7189";
name = "24 Oct 22, 22:36";
shapes = (
{
closed = 1;
nodes = (
(293,-12,o),
(338,8,o),
(387,55,c),
(400,55,l),
(400,127,l),
(352,74,o),
(306,47,o),
(261,47,cs),
(171,47,o),
(121,111,o),
(121,225,cs),
(121,332,o),
(174,392,o),
(269,392,cs),
(319,392,o),
(348,382,o),
(387,352,c),
(405,333,l),
(430,391,l),
(388,426,o),
(340,442,o),
(272,442,cs),
(138,442,o),
(32,336,o),
(32,202,cs),
(32,71,o),
(112,-12,o),
(239,-12,cs)
);
},
{
closed = 1;
nodes = (
(430,-12,l),
(544,39,l),
(544,51,l),
(457,107,l),
(473,78,l),
(473,720,l),
(455,720,l),
(320,665,l),
(320,653,l),
(403,605,l),
(387,634,l),
(387,567,ls),
(387,482,o),
(388,453,o),
(390,419,c),
(387,419,l),
(387,59,l),
(395,59,l),
(415,-12,l)
);
}
);
width = 556;
},
{
associatedMasterId = m01;
layerId = "CC7E22DC-FC06-4AF8-A1C1-F2B074CC1A8F";
name = "25 Oct 22, 08:40";
shapes = (
{
closed = 1;
nodes = (
(293,-12,o),
(338,8,o),
(387,55,c),
(400,55,l),
(400,127,l),
(352,74,o),
(306,47,o),
(261,47,cs),
(171,47,o),
(121,111,o),
(121,225,cs),
(121,333,o),
(174,394,o),
(269,394,cs),
(314,394,o),
(347,382,o),
(387,352,c),
(405,333,l),
(430,391,l),
(388,426,o),
(340,442,o),
(272,442,cs),
(138,442,o),
(32,336,o),
(32,202,cs),
(32,71,o),
(112,-12,o),
(239,-12,cs)
);
},
{
closed = 1;
nodes = (
(430,-12,l),
(544,39,l),
(544,51,l),
(457,107,l),
(473,78,l),
(473,720,l),
(455,720,l),
(320,665,l),
(320,653,l),
(403,605,l),
(387,634,l),
(387,567,ls),
(387,482,o),
(388,453,o),
(390,419,c),
(387,419,l),
(387,59,l),
(395,59,l),
(415,-12,l)
);
}
);
width = 556;
},
{
associatedMasterId = m01;
layerId = "B80EE512-93CC-47A0-A521-ADD5CE53FB9D";
name = "17 Nov 22, 11:02";
shapes = (
{
closed = 1;
nodes = (
(291,-12,o),
(326,3,o),
(379,50,c),
(392,50,l),
(392,111,l),
(346,67,o),
(309,50,o),
(258,50,cs),
(181,50,o),
(133,117,o),
(133,225,cs),
(133,333,o),
(187,394,o),
(283,394,cs),
(318,394,o),
(345,385,o),
(379,362,c),
(397,333,l),
(422,397,l),
(372,431,o),
(337,442,o),
(283,442,cs),
(149,442,o),
(44,336,o),
(44,202,cs),
(44,76,o),
(123,-12,o),
(236,-12,cs)
);
},
{
closed = 1;
nodes = (
(426,-12,l),
(536,39,l),
(536,51,l),
(449,107,l),
(465,78,l),
(465,720,l),
(447,720,l),
(312,665,l),
(312,653,l),
(395,605,l),
(379,634,l),
(379,567,ls),
(379,510,o),
(380,446,o),
(382,422,c),
(379,422,l),
(379,50,l),
(387,50,l),
(411,-12,l)
);
}
);
width = 548;
},
{
associatedMasterId = "778ADD7E-4752-4796-8294-609F841445EC";
layerId = "333B913F-E5A6-4048-81CB-A8A8B53C88A8";
name = "17 Nov 22, 11:21";
shapes = (
{
closed = 1;
nodes = (
(278,-16,o),
(328,7,o),
(391,58,c),
(399,58,l),
(391,120,l),
(362,91,o),
(334,78,o),
(299,78,cs),
(239,78,o),
(205,144,o),
(205,262,cs),
(205,350,o),
(244,405,o),
(307,405,cs),
(340,405,o),
(365,396,o),
(383,378,c),
(416,357,l),
(501,405,l),
(450,447,o),
(386,470,o),
(322,470,cs),
(151,470,o),
(30,363,o),
(30,210,cs),
(30,83,o),
(116,-16,o),
(226,-16,cs)
);
},
{
closed = 1;
nodes = (
(456,-12,l),
(617,48,l),
(613,77,l),
(537,129,l),
(553,93,l),
(553,717,l),
(525,732,l),
(319,681,l),
(322,649,l),
(399,602,l),
(383,628,l),
(383,594,ls),
(383,554,o),
(387,496,o),
(392,463,c),
(383,463,l),
(383,58,l),
(399,58,l),
(432,-12,l)
);
}
);
width = 624;
},
{
associatedMasterId = m01;
layerId = "2891B063-67D2-4C5D-9416-436C2842EBE7";
name = "25 Nov 22, 09:07";
shapes = (
{
closed = 1;
nodes = (
(280,-12,o),
(335,17,o),
(380,68,c),
(393,68,l),
(393,129,l),
(354,77,o),
(307,48,o),
(262,48,cs),
(179,48,o),
(127,116,o),
(127,225,cs),
(127,342,o),
(174,400,o),
(270,400,cs),
(313,400,o),
(353,383,o),
(380,353,c),
(398,327,l),
(423,402,l),
(382,430,o),
(336,442,o),
(274,442,cs),
(143,442,o),
(40,335,o),
(40,199,cs),
(40,69,o),
(112,-12,o),
(227,-12,cs)
);
},
{
closed = 1;
nodes = (
(427,-12,l),
(527,39,l),
(527,51,l),
(450,107,l),
(466,78,l),
(466,720,l),
(448,720,l),
(313,665,l),
(313,653,l),
(396,595,l),
(380,624,l),
(380,567,ls),
(380,493,o),
(381,450,o),
(383,425,c),
(380,425,l),
(380,68,l),
(388,68,l),
(412,-12,l)
);
}
);
width = 556;
},
{
associatedMasterId = "778ADD7E-4752-4796-8294-609F841445EC";
layerId = "A9AC3006-C45A-40EA-BFF0-3678CCB70283";
name = "25 Nov 22, 11:00";
shapes = (
{
closed = 1;
nodes = (
(274,-16,o),
(320,5,o),
(387,60,c),
(395,60,l),
(388,112,l),
(364,96,o),
(341,89,o),
(313,89,cs),
(245,89,o),
(215,144,o),
(215,269,cs),
(215,356,o),
(250,405,o),
(313,405,cs),
(340,405,o),
(360,397,o),
(379,378,c),
(412,357,l),
(497,399,l),
(445,442,o),
(381,467,o),
(318,470,cs),
(162,477,o),
(40,363,o),
(40,210,cs),
(40,71,o),
(110,-16,o),
(222,-16,cs)
);
},
{
closed = 1;
nodes = (
(446,-16,l),
(613,60,l),
(609,84,l),
(533,142,l),
(549,106,l),
(549,724,l),
(526,736,l),
(305,673,l),
(308,644,l),
(395,576,l),
(379,599,l),
(379,577,ls),
(379,524,o),
(381,488,o),
(385,460,c),
(379,460,l),
(379,58,l),
(395,58,l),
(422,-16,l)
);
}
);
width = 639;
}
);
metricLeft = "=o";
metricRight = "=|b";
unicode = 100;
},
{
color = 5;
glyphname = eth;
lastChange = "2022-12-10 09:20:38 +0000";
layers = (
{
background = {
shapes = (
{
closed = 1;
nodes = (
(388,-12,o),
(492,96,o),
(492,234,cs),
(492,356,o),
(403,442,o),
(277,442,cs),
(144,442,o),
(40,334,o),
(40,196,cs),
(40,74,o),
(129,-12,o),
(255,-12,cs)
);
},
{
closed = 1;
nodes = (
(190,33,o),
(127,121,o),
(127,233,cs),
(127,343,o),
(171,397,o),
(261,397,cs),
(342,397,o),
(405,309,o),
(405,197,cs),
(405,87,o),
(361,33,o),
(271,33,cs)
);
}
);
};
layerId = m01;
shapes = (
{
closed = 1;
nodes = (
(457,683,l),
(433,720,l),
(161,555,l),
(185,518,l)
);
},
{
closed = 1;
nodes = (
(384,410,l),
(396,372,o),
(405,307,o),
(405,263,cs),
(405,103,o),
(364,33,o),
(271,33,cs),
(190,33,o),
(127,121,o),
(127,233,cs),
(127,343,o),
(171,397,o),
(261,397,cs),
(331,397,o),
(379,360,o),
(421,276,c),
(421,376,l),
(383,420,o),
(335,442,o),
(277,442,cs),
(144,442,o),
(40,334,o),
(40,196,cs),
(40,74,o),
(129,-12,o),
(255,-12,cs),
(394,-12,o),
(492,106,o),
(492,273,cs),
(492,497,o),
(334,701,o),
(134,735,c),
(125,698,l),
(263,651,o),
(358,548,o),
(388,410,c)
);
}
);
width = 532;
},
{
background = {
shapes = (
{
closed = 1;
nodes = (
(424,-16,o),
(543,101,o),
(543,249,cs),
(543,385,o),
(447,470,o),
(295,470,cs),
(144,470,o),
(25,353,o),
(25,205,cs),
(25,69,o),
(121,-16,o),
(273,-16,cs)
);
},
{
closed = 1;
nodes = (
(239,49,o),
(200,138,o),
(200,296,cs),
(200,375,o),
(217,405,o),
(260,405,cs),
(329,405,o),
(368,316,o),
(368,158,cs),
(368,79,o),
(351,49,o),
(308,49,cs)
);
}
);
};
layerId = "778ADD7E-4752-4796-8294-609F841445EC";
shapes = (
{
closed = 1;
nodes = (
(504,700,l),
(470,751,l),
(180,553,l),
(214,503,l)
);
},
{
closed = 1;
nodes = (
(334,461,l),
(367,401,o),
(379,334,o),
(379,230,cs),
(379,114,o),
(371,49,o),
(308,49,cs),
(242,49,o),
(200,137,o),
(200,278,cs),
(200,362,o),
(232,409,o),
(289,409,cs),
(354,409,o),
(400,377,o),
(427,311,c),
(502,363,l),
(448,429,o),
(368,470,o),
(295,470,cs),
(144,470,o),
(25,353,o),
(25,205,cs),
(25,69,o),
(121,-16,o),
(273,-16,cs),
(424,-16,o),
(543,123,o),
(543,299,cs),
(543,539,o),
(405,713,o),
(185,751,c),
(169,711,l),
(258,676,o),
(332,579,o),
(361,461,c)
);
}
);
width = 568;
},
{
associatedMasterId = m01;
layerId = "AF4F926D-2C41-4F78-B3F9-6DE9A27D9887";
name = "26 Nov 22, 09:01";
shapes = (
{
closed = 1;
nodes = (
(410,-12,o),
(496,90,o),
(496,273,cs),
(496,509,o),
(358,682,o),
(138,720,c),
(129,683,l),
(293,646,o),
(386,540,o),
(411,364,c),
(422,373,l),
(386,417,o),
(335,442,o),
(279,442,cs),
(139,442,o),
(40,342,o),
(40,200,cs),
(40,76,o),
(130,-12,o),
(257,-12,cs)
);
},
{
closed = 1;
nodes = (
(188,36,o),
(129,117,o),
(129,233,cs),
(129,336,o),
(177,394,o),
(263,394,cs),
(348,394,o),
(407,313,o),
(407,197,cs),
(407,94,o),
(359,36,o),
(273,36,cs)
);
},
{
closed = 1;
nodes = (
(456,690,l),
(437,720,l),
(165,555,l),
(184,525,l)
);
}
);
width = 536;
}
);
metricLeft = "=o";
metricRight = "=o";
unicode = 240;
},
{
color = 5;
glyphname = e;
lastChange = "2022-12-12 05:12:47 +0000";
layers = (
{
anchors = (
{
name = bottom;
pos = (243,0);
},
{
name = ogonek;
pos = (343,0);
},
{
name = top;
pos = (270,430);
}
);
layerId = m01;
shapes = (
{
closed = 1;
nodes = (
(338,-12,o),
(394,12,o),
(443,68,c),
(424,93,l),
(380,57,o),
(341,43,o),
(285,43,cs),
(189,43,o),
(128,116,o),
(128,233,cs),
(128,338,o),
(171,397,o),
(248,397,cs),
(307,397,o),
(354,347,o),
(354,283,c),
(92,261,l),
(92,228,l),
(445,228,l),
(445,365,o),
(382,442,o),
(270,442,cs),
(141,442,o),
(40,336,o),
(40,200,cs),
(40,76,o),
(130,-12,o),
(259,-12,cs)
);
}
);
width = 485;
},
{
anchors = (
{
name = bottom;
pos = (261,0);
},
{
name = ogonek;
pos = (364,0);
},
{
name = top;
pos = (301,454);
}
);
layerId = "778ADD7E-4752-4796-8294-609F841445EC";
shapes = (
{
closed = 1;
nodes = (
(362,-16,o),
(448,31,o),
(484,97,c),
(452,123,l),
(421,98,o),
(380,85,o),
(328,85,cs),
(227,85,o),
(188,145,o),
(188,302,cs),
(188,365,o),
(215,405,o),
(257,405,cs),
(301,405,o),
(332,362,o),
(332,301,c),
(132,256,l),
(132,224,l),
(497,224,l),
(497,375,o),
(422,470,o),
(302,470,cs),
(147,470,o),
(25,356,o),
(25,212,cs),
(25,78,o),
(128,-16,o),
(275,-16,cs)
);
}
);
width = 522;
}
);
metricLeft = "=o";
metricRight = "=o";
unicode = 101;
},
{
color = 5;
glyphname = f;
lastChange = "2022-12-09 09:40:54 +0000";
layers = (
{
layerId = m01;
shapes = (
{
closed = 1;
nodes = (
(288,0,l),
(288,20,l),
(174,68,l),
(196,26,l),
(196,569,ls),
(196,659,o),
(232,703,o),
(305,703,cs),
(358,703,l),
(291,725,l),
(386,601,l),
(399,601,l),
(454,699,l),
(454,705,l),
(410,734,o),
(368,747,o),
(316,747,cs),
(195,747,o),
(110,644,o),
(110,497,cs),
(110,28,l),
(131,78,l),
(52,13,l),
(52,0,l)
);
},
{
closed = 1;
nodes = (
(110,370,l),
(110,462,l),
(30,383,l),
(30,370,l)
);
},
{
closed = 1;
nodes = (
(337,442,l),
(193,430,l),
(161,392,l),
(337,376,l)
);
}
);
width = 354;
},
{
layerId = "778ADD7E-4752-4796-8294-609F841445EC";
shapes = (
{
closed = 1;
nodes = (
(362,0,l),
(362,28,l),
(229,93,l),
(273,24,l),
(273,565,ls),
(273,662,o),
(296,699,o),
(355,699,cs),
(404,699,l),
(306,715,l),
(430,550,l),
(448,550,l),
(527,689,l),
(527,699,l),
(476,735,o),
(421,751,o),
(347,751,cs),
(210,751,o),
(103,646,o),
(103,512,cs),
(103,24,l),
(146,126,l),
(57,18,l),
(57,0,l)
);
},
{
closed = 1;
nodes = (
(103,370,l),
(103,479,l),
(18,388,l),
(18,370,l)
);
},
{
closed = 1;
nodes = (
(411,470,l),
(230,435,l),
(200,391,l),
(411,370,l)
);
}
);
width = 427;
}
);
metricLeft = "=n";
unicode = 102;
},
{
color = 5;
glyphname = g;
lastChange = "2022-12-09 09:36:38 +0000";
layers = (
{
anchors = (
{
name = bottom;
pos = (251,-280);
},
{
name = top;
pos = (236,430);
}
);
layerId = m01;
shapes = (
{
closed = 1;
nodes = (
(377,-277,o),
(479,-207,o),
(479,-117,cs),
(479,110,o),
(117,-18,o),
(117,83,cs),
(117,108,o),
(128,128,o),
(153,151,c),
(134,167,l),
(77,128,o),
(52,90,o),
(52,44,cs),
(52,-125,o),
(408,15,o),
(408,-139,cs),
(408,-201,o),
(358,-235,o),
(269,-235,cs),
(174,-235,o),
(107,-191,o),
(107,-128,cs),
(107,-86,o),
(124,-57,o),
(164,-31,c),
(164,-6,l),
(115,-6,l),
(115,-42,l),
(65,-75,o),
(40,-114,o),
(40,-158,cs),
(40,-231,o),
(120,-277,o),
(247,-277,cs)
);
},
{
closed = 1;
nodes = (
(340,114,o),
(423,191,o),
(423,288,cs),
(423,374,o),
(347,442,o),
(250,442,cs),
(145,442,o),
(62,365,o),
(62,268,cs),
(62,182,o),
(138,114,o),
(235,114,cs)
);
},
{
closed = 1;
nodes = (
(192,153,o),
(146,212,o),
(146,287,cs),
(146,368,o),
(173,403,o),
(234,403,cs),
(293,403,o),
(339,344,o),
(339,269,cs),
(339,188,o),
(312,153,o),
(251,153,cs)
);
},
{
closed = 1;
nodes = (
(357,384,l),
(357,414,l),
(479,474,l),
(479,486,l),
(385,556,l),
(378,556,l),
(317,384,l)
);
}
);
width = 481;
},
{
anchors = (
{
name = bottom;
pos = (284,-280);
},
{
name = top;
pos = (263,454);
}
);
guides = (
{
angle = 90;
pos = (547,-109);
}
);
layerId = "778ADD7E-4752-4796-8294-609F841445EC";
shapes = (
{
closed = 1;
nodes = (
(436,-281,o),
(547,-215,o),
(547,-109,cs),
(547,155,o),
(133,-7,o),
(133,123,cs),
(133,141,o),
(146,157,o),
(168,166,c),
(133,198,l),
(65,157,o),
(32,106,o),
(32,46,cs),
(32,-189,o),
(417,-56,o),
(417,-171,cs),
(417,-208,o),
(378,-222,o),
(275,-222,cs),
(162,-222,o),
(118,-201,o),
(118,-148,cs),
(118,-118,o),
(132,-101,o),
(164,-90,c),
(164,-14,l),
(109,-14,l),
(109,-84,l),
(51,-102,o),
(25,-129,o),
(25,-171,cs),
(25,-242,o),
(109,-281,o),
(259,-281,cs)
);
},
{
closed = 1;
nodes = (
(384,128,o),
(490,208,o),
(490,309,cs),
(490,399,o),
(399,470,o),
(284,470,cs),
(149,470,o),
(43,390,o),
(43,289,cs),
(43,199,o),
(134,128,o),
(249,128,cs)
);
},
{
closed = 1;
nodes = (
(234,184,o),
(204,249,o),
(204,353,cs),
(204,395,o),
(218,414,o),
(251,414,cs),
(299,414,o),
(329,349,o),
(329,245,cs),
(329,203,o),
(315,184,o),
(282,184,cs)
);
},
{
closed = 1;
nodes = (
(394,436,l),
(394,451,l),
(547,494,l),
(547,522,l),
(418,636,l),
(400,636,l),
(329,436,l)
);
}
);
width = 549;
},
{
anchors = (
{
name = bottom;
pos = (253,-280);
},
{
name = top;
pos = (238,430);
}
);
associatedMasterId = m01;
layerId = "C847D58A-02FA-4425-9B47-BB67F611F1DF";
name = "15 Nov 22, 08:55";
shapes = (
{
closed = 1;
nodes = (
(392,-292,o),
(491,-225,o),
(491,-130,cs),
(491,-36,o),
(406,30,o),
(284,30,cs),
(218,30,ls),
(156,30,o),
(129,47,o),
(129,85,cs),
(129,107,o),
(141,126,o),
(164,143,c),
(141,159,l),
(92,131,o),
(64,90,o),
(64,45,cs),
(64,-18,o),
(98,-58,o),
(153,-58,cs),
(263,-58,ls),
(362,-58,o),
(417,-92,o),
(417,-152,cs),
(417,-216,o),
(362,-252,o),
(264,-252,cs),
(166,-252,o),
(104,-211,o),
(104,-146,cs),
(104,-109,o),
(120,-80,o),
(153,-58,c),
(165,-36,l),
(118,-43,l),
(118,-54,l),
(68,-73,o),
(37,-115,o),
(37,-163,cs),
(37,-246,o),
(114,-292,o),
(252,-292,cs)
);
},
{
closed = 1;
nodes = (
(341,122,o),
(423,197,o),
(423,292,cs),
(423,384,o),
(357,442,o),
(252,442,cs),
(148,442,o),
(66,367,o),
(66,271,cs),
(66,179,o),
(132,122,o),
(237,122,cs)
);
},
{
closed = 1;
nodes = (
(190,164,o),
(150,214,o),
(150,294,cs),
(150,362,o),
(181,400,o),
(236,400,cs),
(299,400,o),
(339,351,o),
(339,273,cs),
(339,203,o),
(308,164,o),
(253,164,cs)
);
},
{
closed = 1;
nodes = (
(359,419,l),
(467,462,l),
(472,477,l),
(403,552,l),
(331,425,l),
(359,409,l)
);
}
);
width = 506;
},
{
anchors = (
{
name = bottom;
pos = (238,-280);
},
{
name = top;
pos = (223,430);
}
);
associatedMasterId = m01;
layerId = "9ADF3129-AE2E-4183-ACCD-2646D0F3543C";
name = "17 Nov 22, 12:55";
shapes = (
{
closed = 1;
nodes = (
(377,-292,o),
(476,-225,o),
(476,-130,cs),
(476,-36,o),
(391,30,o),
(269,30,cs),
(203,30,ls),
(141,30,o),
(114,47,o),
(114,85,cs),
(114,107,o),
(126,126,o),
(149,143,c),
(126,159,l),
(77,131,o),
(49,90,o),
(49,45,cs),
(49,-18,o),
(83,-58,o),
(138,-58,cs),
(248,-58,ls),
(347,-58,o),
(402,-92,o),
(402,-152,cs),
(402,-216,o),
(347,-252,o),
(249,-252,cs),
(151,-252,o),
(89,-211,o),
(89,-146,cs),
(89,-109,o),
(105,-80,o),
(138,-58,c),
(150,-36,l),
(103,-43,l),
(103,-54,l),
(53,-73,o),
(22,-115,o),
(22,-163,cs),
(22,-246,o),
(99,-292,o),
(237,-292,cs)
);
},
{
closed = 1;
nodes = (
(324,122,o),
(404,197,o),
(404,292,cs),
(404,384,o),
(340,442,o),
(237,442,cs),
(135,442,o),
(55,367,o),
(55,272,cs),
(55,180,o),
(119,122,o),
(222,122,cs)
);
},
{
closed = 1;
nodes = (
(175,164,o),
(135,214,o),
(135,294,cs),
(135,362,o),
(166,400,o),
(221,400,cs),
(284,400,o),
(324,351,o),
(324,273,cs),
(324,203,o),
(293,164,o),
(238,164,cs)
);
},
{
closed = 1;
nodes = (
(344,417,l),
(459,471,l),
(464,486,l),
(388,552,l),
(316,425,l),
(344,409,l)
);
}
);
width = 491;
},
{
anchors = (
{
name = bottom;
pos = (228,-280);
},
{
name = top;
pos = (213,430);
}
);
associatedMasterId = m01;
layerId = "DF1B9152-19C1-45B7-8FA4-D1F62DC92406";
name = "17 Nov 22, 13:51";
shapes = (
{
closed = 1;
nodes = (
(342,-58,o),
(395,-92,o),
(395,-152,cs),
(395,-217,o),
(339,-254,o),
(239,-254,cs),
(147,-254,o),
(89,-211,o),
(89,-142,cs),
(89,-105,o),
(102,-77,o),
(135,-43,c),
(209,-36,l),
(102,-30,l),
(102,-39,l),
(49,-74,o),
(22,-112,o),
(22,-155,cs),
(22,-239,o),
(104,-292,o),
(234,-292,cs),
(364,-292,o),
(466,-221,o),
(466,-130,cs),
(466,-27,o),
(375,30,o),
(212,30,cs),
(134,30,o),
(104,45,o),
(104,85,cs),
(104,107,o),
(116,126,o),
(139,143,c),
(114,159,l),
(60,128,o),
(39,99,o),
(39,56,cs),
(39,-20,o),
(108,-58,o),
(248,-58,cs)
);
},
{
closed = 1;
nodes = (
(314,122,o),
(394,197,o),
(394,292,cs),
(394,384,o),
(330,442,o),
(227,442,cs),
(125,442,o),
(45,367,o),
(45,272,cs),
(45,180,o),
(109,122,o),
(212,122,cs)
);
},
{
closed = 1;
nodes = (
(165,164,o),
(125,214,o),
(125,294,cs),
(125,362,o),
(156,400,o),
(211,400,cs),
(274,400,o),
(314,351,o),
(314,273,cs),
(314,203,o),
(283,164,o),
(228,164,cs)
);
},
{
closed = 1;
nodes = (
(334,417,l),
(445,471,l),
(446,486,l),
(371,553,l),
(309,425,l),
(334,409,l)
);
}
);
width = 446;
},
{
anchors = (
{
name = bottom;
pos = (256,-280);
},
{
name = top;
pos = (241,430);
}
);
associatedMasterId = m01;
layerId = "14FEC683-A876-4146-87AE-A345FFDCD009";
name = "25 Nov 22, 11:23";
shapes = (
{
closed = 1;
nodes = (
(382,-292,o),
(484,-221,o),
(484,-130,cs),
(484,-25,o),
(413,24,o),
(251,31,cs),
(158,35,o),
(122,50,o),
(122,83,cs),
(122,102,o),
(130,118,o),
(151,142,c),
(126,158,l),
(76,119,o),
(57,89,o),
(57,52,cs),
(57,-21,o),
(109,-53,o),
(246,-62,cs),
(367,-71,o),
(413,-96,o),
(413,-152,cs),
(413,-215,o),
(363,-250,o),
(274,-250,cs),
(171,-250,o),
(107,-208,o),
(107,-142,cs),
(107,-104,o),
(121,-77,o),
(158,-43,c),
(227,-36,l),
(120,-33,l),
(120,-42,l),
(64,-79,o),
(40,-116,o),
(40,-163,cs),
(40,-242,o),
(122,-292,o),
(252,-292,cs)
);
},
{
closed = 1;
nodes = (
(343,114,o),
(424,191,o),
(424,288,cs),
(424,378,o),
(354,442,o),
(255,442,cs),
(152,442,o),
(71,365,o),
(71,268,cs),
(71,178,o),
(141,114,o),
(240,114,cs)
);
},
{
closed = 1;
nodes = (
(199,155,o),
(155,213,o),
(155,287,cs),
(155,363,o),
(183,401,o),
(239,401,cs),
(296,401,o),
(340,343,o),
(340,269,cs),
(340,193,o),
(312,155,o),
(256,155,cs)
);
},
{
closed = 1;
nodes = (
(362,414,l),
(473,465,l),
(474,480,l),
(380,556,l),
(375,555,l),
(331,422,l),
(362,402,l)
);
}
);
width = 484;
},
{
anchors = (
{
name = bottom;
pos = (289,-280);
},
{
name = top;
pos = (268,454);
}
);
associatedMasterId = "778ADD7E-4752-4796-8294-609F841445EC";
layerId = "FD37923D-44C6-4DA7-AF31-000831CE5F70";
name = "26 Nov 22, 11:13";
shapes = (
{
closed = 1;
nodes = (
(435,-296,o),
(562,-218,o),
(562,-119,cs),
(562,-23,o),
(480,27,o),
(267,61,cs),
(181,74,o),
(138,91,o),
(138,113,cs),
(138,124,o),
(141,130,o),
(149,138,c),
(111,171,l),
(58,131,o),
(37,93,o),
(37,36,cs),
(37,-46,o),
(108,-93,o),
(269,-120,cs),
(387,-138,o),
(432,-156,o),
(432,-185,cs),
(432,-216,o),
(381,-234,o),
(290,-234,cs),
(190,-234,o),
(134,-203,o),
(134,-148,cs),
(134,-126,o),
(139,-109,o),
(152,-86,c),
(169,-14,l),
(101,-63,l),
(101,-71,l),
(54,-92,o),
(30,-125,o),
(30,-171,cs),
(30,-244,o),
(131,-296,o),
(274,-296,cs)
);
},
{
closed = 1;
nodes = (
(396,108,o),
(495,187,o),
(495,299,cs),
(495,395,o),
(399,470,o),
(289,470,cs),
(147,470,o),
(48,391,o),
(48,279,cs),
(48,183,o),
(144,108,o),
(254,108,cs)
);
},
{
closed = 1;
nodes = (
(239,171,o),
(209,237,o),
(209,343,cs),
(209,386,o),
(225,407,o),
(256,407,cs),
(304,407,o),
(334,341,o),
(334,235,cs),
(334,192,o),
(318,171,o),
(287,171,cs)
);
},
{
closed = 1;
nodes = (
(399,449,l),
(562,494,l),
(562,522,l),
(423,636,l),
(405,636,l),
(341,453,l),
(399,436,l)
);
}
);
width = 564;
}
);
metricLeft = "=o";
metricRight = "=v";
unicode = 103;
},
{
color = 5;
glyphname = h;
lastChange = "2022-12-10 06:18:50 +0000";
layers = (
{
anchors = (
{
name = bottom;
pos = (283,0);
},
{
name = center;
pos = (141,539);
},
{
name = top;
pos = (291,740);
}
);
layerId = m01;
shapes = (
{
closed = 1;
nodes = (
(567,0,l),
(567,20,l),
(469,68,l),
(491,26,l),
(491,273,ls),
(491,381,o),
(444,442,o),
(363,442,cs),
(295,442,o),
(245,419,o),
(183,358,c),
(169,358,l),
(169,296,l),
(209,347,o),
(260,376,o),
(313,376,cs),
(375,376,o),
(405,334,o),
(405,248,cs),
(405,28,l),
(426,78,l),
(347,13,l),
(347,0,l)
);
},
{
closed = 1;
nodes = (
(259,0,l),
(259,20,l),
(161,68,l),
(183,26,l),
(183,358,l),
(175,358,l),
(183,546,l),
(183,735,l),
(160,735,l),
(30,679,l),
(30,666,l),
(134,588,l),
(97,662,l),
(97,28,l),
(118,78,l),
(39,13,l),
(39,0,l)
);
}
);
width = 587;
},
{
anchors = (
{
name = bottom;
pos = (317,0);
},
{
name = center;
pos = (161,539);
},
{
name = top;
pos = (314,740);
}
);
guides = (
{
angle = 90;
pos = (18,27);
}
);
layerId = "778ADD7E-4752-4796-8294-609F841445EC";
shapes = (
{
closed = 1;
nodes = (
(635,0,l),
(635,28,l),
(526,88,l),
(568,24,l),
(568,294,ls),
(568,407,o),
(518,470,o),
(428,470,cs),
(366,470,o),
(314,445,o),
(256,388,c),
(240,388,l),
(240,329,l),
(272,350,o),
(300,359,o),
(330,359,cs),
(377,359,o),
(398,330,o),
(398,265,cs),
(398,24,l),
(441,126,l),
(352,18,l),
(352,0,l)
);
},
{
closed = 1;
nodes = (
(315,0,l),
(315,28,l),
(212,93,l),
(256,24,l),
(256,388,l),
(243,388,l),
(256,589,l),
(256,739,l),
(225,749,l),
(18,665,l),
(18,647,l),
(116,570,l),
(86,638,l),
(86,24,l),
(129,126,l),
(40,18,l),
(40,0,l)
);
}
);
width = 643;
},
{
anchors = (
{
name = bottom;
pos = (288,0);
},
{
name = center;
pos = (288,360);
},
{
name = top;
pos = (363,430);
}
);
associatedMasterId = m01;
layerId = "25B9F6E7-E432-4E7A-8224-52DAB751A29C";
name = "17 Nov 22, 12:38";
shapes = (
{
closed = 1;
nodes = (
(564,0,l),
(566,21,l),
(474,58,l),
(490,34,l),
(490,265,ls),
(490,379,o),
(438,442,o),
(345,442,cs),
(287,442,o),
(242,421,o),
(183,368,c),
(167,368,l),
(167,298,l),
(214,349,o),
(268,378,o),
(316,378,cs),
(375,378,o),
(404,335,o),
(404,248,cs),
(404,47,l),
(418,65,l),
(346,13,l),
(348,0,l)
);
},
{
closed = 1;
nodes = (
(251,0,l),
(253,21,l),
(167,58,l),
(183,37,l),
(183,368,l),
(177,368,l),
(181,411,o),
(183,478,o),
(183,530,cs),
(183,720,l),
(165,720,l),
(30,665,l),
(30,653,l),
(113,605,l),
(97,634,l),
(97,47,l),
(111,65,l),
(39,13,l),
(41,0,l)
);
}
);
width = 578;
},
{
anchors = (
{
name = bottom;
pos = (281,0);
},
{
name = center;
pos = (281,360);
},
{
name = top;
pos = (265,720);
}
);
associatedMasterId = m01;
layerId = "220BB4DB-039D-4D3E-B2CA-352AF2386139";
name = "25 Nov 22, 20:11";
shapes = (
{
closed = 1;
nodes = (
(557,0,l),
(559,21,l),
(467,58,l),
(483,34,l),
(483,273,ls),
(483,381,o),
(437,442,o),
(356,442,cs),
(292,442,o),
(238,416,o),
(176,355,c),
(162,355,l),
(162,290,l),
(198,343,o),
(257,380,o),
(306,380,cs),
(367,380,o),
(397,336,o),
(397,248,cs),
(397,47,l),
(411,65,l),
(339,13,l),
(341,0,l)
);
},
{
closed = 1;
nodes = (
(250,0,l),
(252,21,l),
(160,58,l),
(176,34,l),
(176,355,l),
(170,355,l),
(174,398,o),
(176,478,o),
(176,530,cs),
(176,720,l),
(158,720,l),
(23,665,l),
(23,653,l),
(106,595,l),
(90,624,l),
(90,47,l),
(104,65,l),
(32,13,l),
(34,0,l)
);
}
);
width = 563;
},
{
anchors = (
{
name = bottom;
pos = (326,0);
},
{
name = center;
pos = (326,360);
},
{
name = top;
pos = (458,454);
}
);
associatedMasterId = "778ADD7E-4752-4796-8294-609F841445EC";
guides = (
{
angle = 90;
pos = (27,27);
}
);
layerId = "6609FE01-D765-412E-8836-211660FB688F";
name = "25 Nov 22, 20:15";
shapes = (
{
closed = 1;
nodes = (
(649,0,l),
(651,35,l),
(559,81,l),
(575,47,l),
(575,294,ls),
(575,407,o),
(522,470,o),
(428,470,cs),
(363,470,o),
(305,441,o),
(251,381,c),
(243,381,l),
(251,328,l),
(286,356,o),
(308,365,o),
(340,365,cs),
(382,365,o),
(405,331,o),
(405,269,cs),
(405,37,l),
(419,85,l),
(358,27,l),
(360,0,l)
);
},
{
closed = 1;
nodes = (
(312,0,l),
(314,35,l),
(243,81,l),
(259,57,l),
(259,381,l),
(245,381,l),
(254,457,o),
(259,531,o),
(259,573,cs),
(259,724,l),
(236,736,l),
(13,673,l),
(16,644,l),
(105,573,l),
(89,599,l),
(89,48,l),
(103,85,l),
(27,27,l),
(29,0,l)
);
}
);
width = 655;
}
);
metricLeft = "=n";
metricRight = "=n";
unicode = 104;
},
{
color = 5;
glyphname = idotless;
lastChange = "2022-12-09 09:40:54 +0000";
layers = (
{
anchors = (
{
name = bottom;
pos = (132,0);
},
{
name = ogonek;
pos = (224,0);
},
{
name = top;
pos = (140,430);
}
);
guides = (
{
angle = 90;
pos = (97,416);
},
{
angle = 90;
pos = (183,416);
}
);
layerId = m01;
shapes = (
{
closed = 1;
nodes = (
(259,0,l),
(259,20,l),
(161,68,l),
(183,26,l),
(183,435,l),
(163,435,l),
(30,379,l),
(30,366,l),
(134,288,l),
(97,362,l),
(97,28,l),
(118,78,l),
(39,13,l),
(39,0,l)
);
}
);
width = 279;
},
{
anchors = (
{
name = bottom;
pos = (147,0);
},
{
name = ogonek;
pos = (262,0);
},
{
name = top;
pos = (171,454);
}
);
layerId = "778ADD7E-4752-4796-8294-609F841445EC";
shapes = (
{
closed = 1;
nodes = (
(323,0,l),
(323,28,l),
(214,88,l),
(256,24,l),
(256,458,l),
(225,468,l),
(18,384,l),
(18,366,l),
(116,289,l),
(86,357,l),
(86,24,l),
(129,126,l),
(40,18,l),
(40,0,l)
);
}
);
width = 331;
}
);
metricLeft = "=n";
metricRight = "=n";
unicode = 305;
},
{
color = 5;
glyphname = jdotless;
lastChange = "2022-12-11 11:40:20 +0000";
layers = (
{
anchors = (
{
name = bottom;
pos = (119,-265);
},
{
name = top;
pos = (135,430);
}
);
layerId = m01;
shapes = (
{
closed = 1;
nodes = (
(51,-277,l),
(126,-227,o),
(178,-121,o),
(178,-21,cs),
(178,435,l),
(158,435,l),
(25,379,l),
(25,366,l),
(129,288,l),
(92,362,l),
(92,-201,l),
(108,-164,l),
(-5,-184,l),
(-5,-191,l),
(37,-277,l)
);
}
);
width = 248;
},
{
anchors = (
{
name = bottom;
pos = (156,-265);
},
{
name = top;
pos = (176,454);
}
);
layerId = "778ADD7E-4752-4796-8294-609F841445EC";
shapes = (
{
closed = 1;
nodes = (
(-3,-281,l),
(159,-239,o),
(261,-132,o),
(261,-5,cs),
(261,458,l),
(230,468,l),
(23,384,l),
(23,366,l),
(121,289,l),
(91,357,l),
(91,-232,l),
(107,-193,l),
(-35,-142,l),
(-40,-149,l),
(-17,-281,l)
);
}
);
width = 311;
}
);
unicode = 567;
},
{
color = 5;
glyphname = k;
lastChange = "2022-12-09 09:40:54 +0000";
layers = (
{
layerId = m01;
shapes = (
{
closed = 1;
nodes = (
(259,0,l),
(259,20,l),
(161,68,l),
(183,26,l),
(183,735,l),
(160,735,l),
(30,679,l),
(30,666,l),
(134,588,l),
(97,662,l),
(97,28,l),
(118,78,l),
(39,13,l),
(39,0,l)
);
},
{
closed = 1;
nodes = (
(509,0,l),
(260,275,l),
(200,224,l),
(383,0,l)
);
},
{
closed = 1;
nodes = (
(525,0,l),
(525,20,l),
(417,78,l),
(417,0,l)
);
},
{
closed = 1;
nodes = (
(252,255,l),
(262,256,l),
(469,410,l),
(358,410,l),
(142,192,l),
(178,186,l)
);
},
{
closed = 1;
nodes = (
(506,410,l),
(506,430,l),
(295,430,l),
(295,417,l),
(345,369,l),
(400,362,l)
);
}
);
width = 545;
},
{
layerId = "778ADD7E-4752-4796-8294-609F841445EC";
shapes = (
{
closed = 1;
nodes = (
(323,0,l),
(323,28,l),
(214,88,l),
(256,24,l),
(256,739,l),
(225,749,l),
(18,665,l),
(18,647,l),
(116,570,l),
(86,638,l),
(86,24,l),
(129,126,l),
(40,18,l),
(40,0,l)
);
},
{
closed = 1;
nodes = (
(618,0,l),
(396,333,l),
(266,250,l),
(405,0,l)
);
},
{
closed = 1;
nodes = (
(637,0,l),
(637,28,l),
(528,101,l),
(528,0,l)
);
},
{
closed = 1;
nodes = (
(330,277,l),
(351,277,l),
(580,430,l),
(410,430,l),
(228,241,l),
(242,202,l)
);
},
{
closed = 1;
nodes = (
(617,426,l),
(617,454,l),
(338,454,l),
(338,436,l),
(390,387,l),
(457,358,l)
);
}
);
width = 645;
},
{
associatedMasterId = m01;
layerId = "1FA66F66-78AB-41B7-A419-DADC0E5DC766";
name = "25 Oct 22, 08:55";
shapes = (
{
closed = 1;
nodes = (
(247,0,l),
(249,21,l),
(169,58,l),
(185,34,l),
(185,720,l),
(167,720,l),
(32,665,l),
(32,653,l),
(115,605,l),
(99,634,l),
(99,47,l),
(113,65,l),
(41,13,l),
(43,0,l)
);
},
{
closed = 1;
nodes = (
(529,0,l),
(531,21,l),
(443,70,l),
(445,0,l)
);
},
{
closed = 1;
nodes = (
(515,0,l),
(263,270,l),
(209,225,l),
(389,0,l)
);
},
{
closed = 1;
nodes = (
(254,256,l),
(264,256,l),
(471,410,l),
(360,410,l),
(144,192,l),
(180,187,l)
);
},
{
closed = 1;
nodes = (
(502,407,l),
(500,430,l),
(295,430,l),
(292,415,l),
(341,370,l),
(394,362,l)
);
}
);
width = 536;
},
{
associatedMasterId = "778ADD7E-4752-4796-8294-609F841445EC";
layerId = "3C2C0365-3B3F-4062-8411-F5F2C683C8C5";
name = "29 Oct 22, 13:19";
shapes = (
{
closed = 1;
nodes = (
(294,0,l),
(296,30,l),
(240,65,l),
(256,41,l),
(256,712,l),
(228,727,l),
(22,648,l),
(26,629,l),
(102,577,l),
(86,613,l),
(86,61,l),
(100,79,l),
(37,22,l),
(39,0,l)
);
},
{
closed = 1;
nodes = (
(618,0,l),
(620,30,l),
(545,83,l),
(551,0,l)
);
},
{
closed = 1;
nodes = (
(615,0,l),
(370,327,l),
(261,244,l),
(392,0,l)
);
},
{
closed = 1;
nodes = (
(310,267,l),
(322,267,l),
(567,430,l),
(390,430,l),
(208,207,l),
(222,162,l)
);
},
{
closed = 1;
nodes = (
(589,420,l),
(587,454,l),
(341,454,l),
(339,424,l),
(370,402,l),
(499,388,l)
);
}
);
width = 625;
},
{
associatedMasterId = m01;
layerId = "0C7EDF39-BC9E-4EA2-9580-56E52D3DB013";
name = "26 Nov 22, 10:54";
shapes = (
{
closed = 1;
nodes = (
(253,0,l),
(255,21,l),
(175,58,l),
(191,34,l),
(191,720,l),
(173,720,l),
(38,665,l),
(38,653,l),
(121,595,l),
(105,624,l),
(105,47,l),
(119,65,l),
(47,13,l),
(49,0,l)
);
},
{
closed = 1;
nodes = (
(531,0,l),
(533,21,l),
(445,70,l),
(447,0,l)
);
},
{
closed = 1;
nodes = (
(517,0,l),
(268,275,l),
(208,224,l),
(391,0,l)
);
},
{
closed = 1;
nodes = (
(260,255,l),
(270,256,l),
(477,410,l),
(366,410,l),
(150,192,l),
(186,186,l)
);
},
{
closed = 1;
nodes = (
(508,407,l),
(506,430,l),
(301,430,l),
(298,415,l),
(347,370,l),
(400,362,l)
);
}
);
width = 535;
},
{
associatedMasterId = "778ADD7E-4752-4796-8294-609F841445EC";
layerId = "2D96A52D-E168-4D27-BEAA-999F8FA35C11";
name = "26 Nov 22, 10:54";
shapes = (
{
closed = 1;
nodes = (
(287,0,l),
(289,35,l),
(236,70,l),
(252,46,l),
(252,712,l),
(224,727,l),
(18,668,l),
(22,639,l),
(98,577,l),
(82,613,l),
(82,66,l),
(96,84,l),
(33,27,l),
(35,0,l)
);
},
{
closed = 1;
nodes = (
(632,0,l),
(634,35,l),
(554,78,l),
(560,0,l)
);
},
{
closed = 1;
nodes = (
(614,0,l),
(392,333,l),
(262,250,l),
(401,0,l)
);
},
{
closed = 1;
nodes = (
(326,277,l),
(338,280,l),
(589,430,l),
(406,430,l),
(224,241,l),
(238,202,l)
);
},
{
closed = 1;
nodes = (
(605,415,l),
(603,454,l),
(344,454,l),
(342,419,l),
(386,397,l),
(513,388,l)
);
}
);
width = 636;
}
);
metricLeft = "=n";
metricRight = "=n";
unicode = 107;
},
{
color = 5;
glyphname = l;
lastChange = "2022-12-10 07:25:44 +0000";
layers = (
{
anchors = (
{
name = bottom;
pos = (136,0);
},
{
name = center;
pos = (140,360);
},
{
name = top;
pos = (136,720);
},
{
name = topright;
pos = (183,735);
}
);
layerId = m01;
shapes = (
{
closed = 1;
nodes = (
(259,0,l),
(259,20,l),
(161,68,l),
(183,26,l),
(183,735,l),
(160,735,l),
(30,679,l),
(30,666,l),
(134,588,l),
(97,662,l),
(97,28,l),
(118,78,l),
(39,13,l),
(39,0,l)
);
}
);
width = 279;
},
{
anchors = (
{
name = bottom;
pos = (157,0);
},
{
name = center;
pos = (171,360);
},
{
name = top;
pos = (157,720);
},
{
name = topright;
pos = (256,735);
}
);
layerId = "778ADD7E-4752-4796-8294-609F841445EC";
shapes = (
{
closed = 1;
nodes = (
(323,0,l),
(323,28,l),
(214,88,l),
(256,24,l),
(256,739,l),
(225,749,l),
(18,665,l),
(18,647,l),
(116,570,l),
(86,638,l),
(86,24,l),
(129,126,l),
(40,18,l),
(40,0,l)
);
}
);
width = 331;
}
);
metricLeft = "=n";
metricRight = "=n";
unicode = 108;
},
{
color = 5;
glyphname = m;
lastChange = "2022-12-09 09:40:54 +0000";
layers = (
{
background = {
shapes = (
{
closed = 1;
nodes = (
(567,0,l),
(567,20,l),
(469,68,l),
(491,26,l),
(491,273,ls),
(491,381,o),
(444,442,o),
(363,442,cs),
(299,442,o),
(245,416,o),
(183,355,c),
(169,355,l),
(169,296,l),
(209,347,o),
(260,376,o),
(313,376,cs),
(375,376,o),
(405,334,o),
(405,248,cs),
(405,28,l),
(426,78,l),
(347,13,l),
(347,0,l)
);
},
{
closed = 1;
nodes = (
(259,0,l),
(259,20,l),
(161,68,l),
(183,26,l),
(183,355,l),
(175,355,l),
(180,435,l),
(160,435,l),
(30,379,l),
(30,366,l),
(134,288,l),
(97,362,l),
(97,28,l),
(118,78,l),
(39,13,l),
(39,0,l)
);
}
);
};
layerId = m01;
shapes = (
{
closed = 1;
nodes = (
(857,0,l),
(857,20,l),
(759,68,l),
(781,26,l),
(781,273,ls),
(781,386,o),
(739,442,o),
(655,442,cs),
(591,442,o),
(537,416,o),
(478,358,c),
(468,358,l),
(468,296,l),
(510,349,o),
(557,376,o),
(610,376,cs),
(671,376,o),
(695,341,o),
(695,248,cs),
(695,28,l),
(716,78,l),
(637,13,l),
(637,0,l)
);
},
{
closed = 1;
nodes = (
(259,0,l),
(259,20,l),
(161,68,l),
(183,26,l),
(183,358,l),
(175,358,l),
(180,435,l),
(160,435,l),
(30,379,l),
(30,366,l),
(134,288,l),
(97,362,l),
(97,28,l),
(118,78,l),
(39,13,l),
(39,0,l)
);
},
{
closed = 1;
nodes = (
(558,0,l),
(558,20,l),
(460,68,l),
(482,26,l),
(482,273,ls),
(482,386,o),
(437,442,o),
(356,442,cs),
(294,442,o),
(241,416,o),
(183,358,c),
(169,358,l),
(169,296,l),
(211,349,o),
(258,376,o),
(311,376,cs),
(372,376,o),
(396,341,o),
(396,248,cs),
(396,28,l),
(417,78,l),
(338,13,l),
(338,0,l)
);
},
{
closed = 1;
nodes = (
(482,191,l),
(482,341,l),
(417,341,l),
(417,191,l)
);
}
);
width = 877;
},
{
layerId = "778ADD7E-4752-4796-8294-609F841445EC";
shapes = (
{
closed = 1;
nodes = (
(937,0,l),
(937,28,l),
(828,88,l),
(870,24,l),
(870,294,ls),
(870,412,o),
(825,470,o),
(735,470,cs),
(674,470,o),
(616,443,o),
(560,388,c),
(547,388,l),
(547,329,l),
(578,350,o),
(606,359,o),
(638,359,cs),
(683,359,o),
(700,333,o),
(700,265,cs),
(700,24,l),
(743,126,l),
(657,18,l),
(657,0,l)
);
},
{
closed = 1;
nodes = (
(314,0,l),
(314,28,l),
(212,93,l),
(256,24,l),
(256,388,l),
(243,388,l),
(251,454,l),
(225,468,l),
(18,384,l),
(18,366,l),
(116,289,l),
(86,357,l),
(86,24,l),
(129,126,l),
(40,18,l),
(40,0,l)
);
},
{
closed = 1;
nodes = (
(621,0,l),
(621,28,l),
(519,93,l),
(563,24,l),
(563,294,ls),
(563,412,o),
(518,470,o),
(428,470,cs),
(369,470,o),
(312,443,o),
(256,388,c),
(240,388,l),
(240,329,l),
(271,350,o),
(299,359,o),
(331,359,cs),
(376,359,o),
(393,333,o),
(393,265,cs),
(393,24,l),
(436,126,l),
(350,18,l),
(350,0,l)
);
},
{
closed = 1;
nodes = (
(563,257,l),
(563,371,l),
(499,371,l),
(499,257,l)
);
}
);
width = 945;
},
{
associatedMasterId = m01;
layerId = "392B9AAA-2E38-4A82-A439-532BD2A7035A";
name = "20 Nov 22, 14:25";
shapes = (
{
closed = 1;
nodes = (
(824,0,l),
(826,21,l),
(734,58,l),
(750,34,l),
(750,265,ls),
(750,379,o),
(699,442,o),
(607,442,cs),
(547,442,o),
(507,424,o),
(447,368,c),
(434,368,l),
(440,298,l),
(490,354,o),
(530,378,o),
(570,378,cs),
(628,378,o),
(664,328,o),
(664,248,cs),
(664,47,l),
(678,65,l),
(606,13,l),
(608,0,l)
);
},
{
closed = 1;
nodes = (
(244,0,l),
(246,21,l),
(160,58,l),
(176,34,l),
(176,368,l),
(168,368,l),
(172,435,l),
(154,435,l),
(23,380,l),
(23,368,l),
(106,320,l),
(90,349,l),
(90,47,l),
(104,65,l),
(32,13,l),
(34,0,l)
);
},
{
closed = 1;
nodes = (
(526,0,l),
(528,21,l),
(447,58,l),
(463,34,l),
(463,265,ls),
(463,379,o),
(414,442,o),
(327,442,cs),
(277,442,o),
(239,424,o),
(176,368,c),
(160,368,l),
(160,298,l),
(210,354,o),
(250,378,o),
(290,378,cs),
(346,378,o),
(377,331,o),
(377,248,cs),
(377,47,l),
(391,65,l),
(324,13,l),
(326,0,l)
);
},
{
closed = 1;
nodes = (
(463,253,l),
(463,348,l),
(398,348,l),
(398,253,l)
);
}
);
width = 840;
},
{
associatedMasterId = m01;
layerId = "1DCF5F63-A80D-4CCF-9DBB-759E281B71A2";
name = "25 Nov 22, 20:12";
shapes = (
{
closed = 1;
nodes = (
(824,0,l),
(826,21,l),
(734,58,l),
(750,34,l),
(750,273,ls),
(750,391,o),
(710,442,o),
(618,442,cs),
(564,442,o),
(524,421,o),
(460,358,c),
(449,358,l),
(449,290,l),
(488,348,o),
(534,380,o),
(578,380,cs),
(633,380,o),
(664,333,o),
(664,248,cs),
(664,47,l),
(678,65,l),
(606,13,l),
(608,0,l)
);
},
{
closed = 1;
nodes = (
(250,0,l),
(252,21,l),
(160,58,l),
(176,34,l),
(176,358,l),
(168,358,l),
(172,435,l),
(154,435,l),
(23,380,l),
(23,368,l),
(106,310,l),
(90,339,l),
(90,47,l),
(104,65,l),
(32,13,l),
(34,0,l)
);
},
{
closed = 1;
nodes = (
(526,0,l),
(528,21,l),
(447,58,l),
(463,34,l),
(463,273,ls),
(463,391,o),
(423,442,o),
(331,442,cs),
(279,442,o),
(240,421,o),
(176,358,c),
(162,358,l),
(162,290,l),
(201,348,o),
(247,380,o),
(291,380,cs),
(346,380,o),
(377,333,o),
(377,248,cs),
(377,47,l),
(391,65,l),
(323,13,l),
(325,0,l)
);
},
{
closed = 1;
nodes = (
(463,253,l),
(463,348,l),
(398,348,l),
(398,253,l)
);
}
);
width = 840;
},
{
associatedMasterId = "778ADD7E-4752-4796-8294-609F841445EC";
layerId = "0FB061C1-B4D1-4DC2-A09E-D5EEF09DCA26";
name = "25 Nov 22, 20:17";
shapes = (
{
closed = 1;
nodes = (
(927,0,l),
(929,35,l),
(850,80,l),
(866,46,l),
(866,294,ls),
(866,407,o),
(815,470,o),
(724,470,cs),
(662,470,o),
(611,443,o),
(555,381,c),
(504,381,l),
(555,323,l),
(580,352,o),
(605,365,o),
(635,365,cs),
(674,365,o),
(696,331,o),
(696,269,cs),
(696,36,l),
(710,84,l),
(661,27,l),
(663,0,l)
);
},
{
closed = 1;
nodes = (
(302,0,l),
(304,35,l),
(244,80,l),
(260,56,l),
(260,382,l),
(244,382,l),
(250,456,l),
(222,462,l),
(26,406,l),
(30,377,l),
(106,315,l),
(90,351,l),
(90,47,l),
(104,84,l),
(41,27,l),
(43,0,l)
);
},
{
closed = 1;
nodes = (
(605,0,l),
(607,35,l),
(547,80,l),
(563,56,l),
(563,294,ls),
(563,407,o),
(512,470,o),
(421,470,cs),
(359,470,o),
(308,443,o),
(252,381,c),
(201,381,l),
(252,323,l),
(277,352,o),
(302,365,o),
(332,365,cs),
(371,365,o),
(393,331,o),
(393,269,cs),
(393,36,l),
(407,84,l),
(358,27,l),
(360,0,l)
);
},
{
closed = 1;
nodes = (
(563,273,l),
(563,368,l),
(498,368,l),
(498,273,l)
);
}
);
width = 956;
}
);
metricLeft = "=n";
metricRight = "=n";
unicode = 109;
},
{
color = 5;
glyphname = n;
lastChange = "2022-12-09 09:40:41 +0000";
layers = (
{
anchors = (
{
name = bottom;
pos = (288,0);
},
{
name = top;
pos = (305,430);
}
);
layerId = m01;
shapes = (
{
closed = 1;
nodes = (
(567,0,l),
(567,20,l),
(469,68,l),
(491,26,l),
(491,273,ls),
(491,381,o),
(444,442,o),
(363,442,cs),
(300,442,o),
(240,414,o),
(183,358,c),
(169,358,l),
(169,296,l),
(209,347,o),
(260,376,o),
(313,376,cs),
(375,376,o),
(405,334,o),
(405,248,cs),
(405,28,l),
(426,78,l),
(347,13,l),
(347,0,l)
);
},
{
closed = 1;
nodes = (
(259,0,l),
(259,20,l),
(161,68,l),
(183,26,l),
(183,358,l),
(175,358,l),
(180,435,l),
(160,435,l),
(30,379,l),
(30,366,l),
(134,288,l),
(97,362,l),
(97,28,l),
(118,78,l),
(39,13,l),
(39,0,l)
);
}
);
width = 587;
},
{
anchors = (
{
name = bottom;
pos = (323,0);
},
{
name = top;
pos = (336,454);
}
);
guides = (
{
angle = 90;
pos = (23,27);
},
{
pos = (517,71);
},
{
pos = (153,82);
},
{
pos = (302,25);
}
);
layerId = "778ADD7E-4752-4796-8294-609F841445EC";
shapes = (
{
closed = 1;
nodes = (
(635,0,l),
(635,28,l),
(526,88,l),
(568,24,l),
(568,294,ls),
(568,407,o),
(518,470,o),
(428,470,cs),
(366,470,o),
(314,445,o),
(256,388,c),
(240,388,l),
(240,329,l),
(272,350,o),
(300,359,o),
(330,359,cs),
(377,359,o),
(398,330,o),
(398,265,cs),
(398,24,l),
(441,126,l),
(352,18,l),
(352,0,l)
);
},
{
closed = 1;
nodes = (
(317,0,l),
(317,28,l),
(212,93,l),
(256,24,l),
(256,388,l),
(243,388,l),
(251,454,l),
(225,468,l),
(18,384,l),
(18,366,l),
(116,289,l),
(86,357,l),
(86,24,l),
(129,126,l),
(40,18,l),
(40,0,l)
);
}
);
width = 643;
},
{
anchors = (
{
name = bottom;
pos = (295,0);
},
{
name = top;
pos = (305,430);
}
);
associatedMasterId = m01;
layerId = "78952756-839D-411F-B23C-284E14BD57C2";
name = "15 Nov 22, 07:53";
shapes = (
{
closed = 1;
nodes = (
(571,0,l),
(573,21,l),
(481,58,l),
(497,34,l),
(497,265,ls),
(497,379,o),
(445,442,o),
(352,442,cs),
(294,442,o),
(249,421,o),
(190,368,c),
(174,368,l),
(174,298,l),
(221,349,o),
(275,378,o),
(323,378,cs),
(382,378,o),
(411,335,o),
(411,248,cs),
(411,47,l),
(425,65,l),
(353,13,l),
(355,0,l)
);
},
{
closed = 1;
nodes = (
(258,0,l),
(260,21,l),
(174,58,l),
(190,34,l),
(190,368,l),
(182,368,l),
(186,435,l),
(168,435,l),
(37,380,l),
(37,368,l),
(120,320,l),
(104,349,l),
(104,47,l),
(118,65,l),
(46,13,l),
(48,0,l)
);
}
);
width = 590;
},
{
anchors = (
{
name = bottom;
pos = (290,0);
},
{
name = top;
pos = (300,430);
}
);
associatedMasterId = m01;
background = {
shapes = (
{
closed = 1;
nodes = (
(568,0,l),
(570,21,l),
(478,58,l),
(494,34,l),
(494,265,ls),
(494,379,o),
(442,442,o),
(349,442,cs),
(291,442,o),
(246,421,o),
(187,368,c),
(171,368,l),
(171,298,l),
(218,349,o),
(272,378,o),
(320,378,cs),
(379,378,o),
(408,335,o),
(408,248,cs),
(408,47,l),
(422,65,l),
(350,13,l),
(352,0,l)
);
}
);
};
layerId = "F379C42C-8ED0-46F3-9C2A-9C275EC6497B";
name = "17 Nov 22, 10:06";
shapes = (
{
closed = 1;
nodes = (
(566,0,l),
(568,21,l),
(476,58,l),
(492,34,l),
(492,273,ls),
(492,381,o),
(446,442,o),
(365,442,cs),
(304,442,o),
(259,422,o),
(185,360,c),
(171,360,l),
(171,300,l),
(215,348,o),
(271,378,o),
(315,378,cs),
(376,378,o),
(406,335,o),
(406,248,cs),
(406,47,l),
(420,65,l),
(348,13,l),
(350,0,l)
);
},
{
closed = 1;
nodes = (
(259,0,l),
(261,21,l),
(169,58,l),
(185,34,l),
(185,360,l),
(177,360,l),
(181,435,l),
(163,435,l),
(32,380,l),
(32,368,l),
(115,320,l),
(99,349,l),
(99,47,l),
(113,65,l),
(41,13,l),
(43,0,l)
);
}
);
width = 584;
}
);
unicode = 110;
},
{
color = 5;
glyphname = eng;
lastChange = "2022-12-10 06:37:06 +0000";
layers = (
{
anchors = (
{
name = bottom;
pos = (288,0);
},
{
name = top;
pos = (305,430);
}
);
layerId = m01;
shapes = (
{
closed = 1;
nodes = (
(364,-277,l),
(439,-227,o),
(491,-121,o),
(491,-21,cs),
(491,273,ls),
(491,381,o),
(444,442,o),
(363,442,cs),
(300,442,o),
(240,414,o),
(183,358,c),
(169,358,l),
(169,296,l),
(209,347,o),
(260,376,o),
(313,376,cs),
(375,376,o),
(405,334,o),
(405,248,cs),
(405,-201,l),
(421,-164,l),
(308,-184,l),
(308,-191,l),
(350,-277,l)
);
},
{
closed = 1;
nodes = (
(259,0,l),
(259,20,l),
(161,68,l),
(183,26,l),
(183,358,l),
(175,358,l),
(180,435,l),
(160,435,l),
(30,379,l),
(30,366,l),
(134,288,l),
(97,362,l),
(97,28,l),
(118,78,l),
(39,13,l),
(39,0,l)
);
}
);
width = 544;
},
{
anchors = (
{
name = bottom;
pos = (323,0);
},
{
name = top;
pos = (336,454);
}
);
layerId = "778ADD7E-4752-4796-8294-609F841445EC";
shapes = (
{
closed = 1;
nodes = (
(304,-281,l),
(466,-239,o),
(568,-132,o),
(568,-5,cs),
(568,294,ls),
(568,407,o),
(518,470,o),
(428,470,cs),
(366,470,o),
(314,445,o),
(256,388,c),
(240,388,l),
(240,329,l),
(272,350,o),
(300,359,o),
(330,359,cs),
(377,359,o),
(398,330,o),
(398,265,cs),
(398,-232,l),
(414,-193,l),
(272,-142,l),
(267,-149,l),
(290,-281,l)
);
},
{
closed = 1;
nodes = (
(315,0,l),
(315,28,l),
(212,93,l),
(256,24,l),
(256,388,l),
(243,388,l),
(251,454,l),
(225,468,l),
(18,384,l),
(18,366,l),
(116,289,l),
(86,357,l),
(86,24,l),
(129,126,l),
(40,18,l),
(40,0,l)
);
}
);
width = 611;
}
);
metricLeft = "=n";
metricRight = "=j";
unicode = 331;
},
{
color = 5;
glyphname = o;
lastChange = "2023-02-16 07:06:44 +0000";
layers = (
{
anchors = (
{
name = bottom;
pos = (266,0);
},
{
name = center;
pos = (266,215);
},
{
name = ogonek;
pos = (330,0);
},
{
name = top;
pos = (277,430);
},
{
name = topright;
pos = (506,430);
}
);
layerId = m01;
shapes = (
{
closed = 1;
nodes = (
(388,-12,o),
(492,96,o),
(492,234,cs),
(492,356,o),
(403,442,o),
(277,442,cs),
(144,442,o),
(40,334,o),
(40,196,cs),
(40,74,o),
(129,-12,o),
(255,-12,cs)
);
},
{
closed = 1;
nodes = (
(190,33,o),
(127,121,o),
(127,233,cs),
(127,343,o),
(171,397,o),
(261,397,cs),
(342,397,o),
(405,309,o),
(405,197,cs),
(405,87,o),
(361,33,o),
(271,33,cs)
);
}
);
width = 532;
},
{
anchors = (
{
name = bottom;
pos = (284,0);
},
{
name = center;
pos = (284,227);
},
{
name = ogonek;
pos = (367,0);
},
{
name = top;
pos = (291,454);
},
{
name = topright;
pos = (555,454);
}
);
layerId = "778ADD7E-4752-4796-8294-609F841445EC";
shapes = (
{
closed = 1;
nodes = (
(424,-16,o),
(543,101,o),
(543,249,cs),
(543,385,o),
(447,470,o),
(295,470,cs),
(144,470,o),
(25,353,o),
(25,205,cs),
(25,69,o),
(121,-16,o),
(273,-16,cs)
);
},
{
closed = 1;
nodes = (
(239,49,o),
(200,138,o),
(200,296,cs),
(200,375,o),
(217,405,o),
(260,405,cs),
(329,405,o),
(368,316,o),
(368,158,cs),
(368,79,o),
(351,49,o),
(308,49,cs)
);
}
);
width = 568;
},
{
anchors = (
{
name = bottom;
pos = (272,0);
},
{
name = center;
pos = (272,215);
},
{
name = ogonek;
pos = (341,0);
},
{
name = top;
pos = (272,430);
},
{
name = topright;
pos = (512,430);
}
);
associatedMasterId = m01;
layerId = "96B47452-55F6-4F85-81D9-9F8DCC2FE032";
name = "15 Nov 22, 21:58";
shapes = (
{
closed = 1;
nodes = (
(401,-12,o),
(500,88,o),
(500,230,cs),
(500,354,o),
(410,442,o),
(283,442,cs),
(143,442,o),
(44,342,o),
(44,200,cs),
(44,76,o),
(134,-12,o),
(261,-12,cs)
);
},
{
closed = 1;
nodes = (
(192,36,o),
(133,117,o),
(133,233,cs),
(133,336,o),
(181,394,o),
(267,394,cs),
(352,394,o),
(411,313,o),
(411,197,cs),
(411,94,o),
(363,36,o),
(277,36,cs)
);
}
);
width = 544;
}
);
metricRight = "=|";
unicode = 111;
},
{
color = 5;
glyphname = oe;
lastChange = "2022-11-26 10:50:46 +0000";
layers = (
{
layerId = m01;
shapes = (
{
closed = 1;
nodes = (
(388,-12,o),
(492,96,o),
(492,234,cs),
(492,356,o),
(403,442,o),
(277,442,cs),
(144,442,o),
(40,334,o),
(40,196,cs),
(40,74,o),
(129,-12,o),
(255,-12,cs)
);
},
{
closed = 1;
nodes = (
(190,33,o),
(127,121,o),
(127,233,cs),
(127,343,o),
(171,397,o),
(261,397,cs),
(342,397,o),
(405,309,o),
(405,197,cs),
(405,87,o),
(361,33,o),
(271,33,cs)
);
},
{
closed = 1;
nodes = (
(703,-12,o),
(759,12,o),
(808,68,c),
(789,93,l),
(745,57,o),
(706,43,o),
(650,43,cs),
(554,43,o),
(493,116,o),
(493,233,cs),
(493,338,o),
(536,397,o),
(613,397,cs),
(672,397,o),
(716,350,o),
(719,283,c),
(457,261,l),
(457,228,l),
(810,228,l),
(810,365,o),
(747,442,o),
(635,442,cs),
(506,442,o),
(405,336,o),
(405,200,cs),
(405,76,o),
(495,-12,o),
(624,-12,cs)
);
}
);
width = 850;
},
{
layerId = "778ADD7E-4752-4796-8294-609F841445EC";
shapes = (
{
closed = 1;
nodes = (
(424,-16,o),
(543,101,o),
(543,249,cs),
(543,385,o),
(447,470,o),
(295,470,cs),
(144,470,o),
(25,353,o),
(25,205,cs),
(25,69,o),
(121,-16,o),
(273,-16,cs)
);
},
{
closed = 1;
nodes = (
(239,49,o),
(200,138,o),
(200,296,cs),
(200,375,o),
(217,405,o),
(260,405,cs),
(329,405,o),
(368,316,o),
(368,158,cs),
(368,79,o),
(351,49,o),
(308,49,cs)
);
},
{
closed = 1;
nodes = (
(717,-16,o),
(803,31,o),
(839,97,c),
(807,123,l),
(770,93,o),
(732,80,o),
(683,80,cs),
(586,80,o),
(543,148,o),
(543,302,cs),
(543,365,o),
(570,405,o),
(612,405,cs),
(656,405,o),
(687,362,o),
(687,301,c),
(487,256,l),
(487,224,l),
(852,224,l),
(852,375,o),
(777,470,o),
(657,470,cs),
(502,470,o),
(380,356,o),
(380,212,cs),
(380,72,o),
(476,-16,o),
(630,-16,cs)
);
}
);
width = 877;
}
);
metricLeft = "=o";
unicode = 339;
},
{
color = 5;
glyphname = p;
lastChange = "2022-12-09 09:40:54 +0000";
layers = (
{
background = {
shapes = (
{
closed = 1;
nodes = (
(425,-12,o),
(529,96,o),
(529,234,cs),
(529,356,o),
(440,442,o),
(314,442,cs),
(181,442,o),
(77,334,o),
(77,196,cs),
(77,74,o),
(166,-12,o),
(292,-12,cs)
);
},
{
closed = 1;
nodes = (
(227,33,o),
(164,121,o),
(164,233,cs),
(164,343,o),
(208,397,o),
(298,397,cs),
(379,397,o),
(442,309,o),
(442,197,cs),
(442,87,o),
(398,33,o),
(308,33,cs)
);
}
);
};
layerId = m01;
shapes = (
{
closed = 1;
nodes = (
(423,-12,o),
(526,99,o),
(526,240,cs),
(526,353,o),
(445,442,o),
(342,442,cs),
(288,442,o),
(244,421,o),
(183,365,c),
(170,365,l),
(170,307,l),
(213,356,o),
(257,378,o),
(312,378,cs),
(390,378,o),
(439,311,o),
(439,205,cs),
(439,98,o),
(384,31,o),
(296,31,cs),
(218,31,o),
(179,55,o),
(143,128,c),
(143,28,l),
(182,1,o),
(232,-12,o),
(292,-12,cs)
);
},
{
closed = 1;
nodes = (
(275,-265,l),
(275,-245,l),
(161,-197,l),
(183,-239,l),
(183,-137,l),
(179,7,l),
(183,7,l),
(183,365,l),
(175,365,l),
(180,435,l),
(160,435,l),
(30,379,l),
(30,366,l),
(134,288,l),
(97,362,l),
(97,-237,l),
(118,-187,l),
(39,-252,l),
(39,-265,l)
);
}
);
width = 566;
},
{
background = {
shapes = (
{
closed = 1;
nodes = (
(635,0,l),
(635,28,l),
(526,98,l),
(568,24,l),
(568,294,ls),
(568,407,o),
(518,470,o),
(428,470,cs),
(366,470,o),
(314,445,o),
(256,388,c),
(240,388,l),
(240,329,l),
(272,350,o),
(300,359,o),
(330,359,cs),
(377,359,o),
(398,330,o),
(398,265,cs),
(398,24,l),
(441,136,l),
(352,18,l),
(352,0,l)
);
}
);
};
layerId = "778ADD7E-4752-4796-8294-609F841445EC";
shapes = (
{
closed = 1;
nodes = (
(484,-16,o),
(594,97,o),
(594,257,cs),
(594,382,o),
(523,470,o),
(423,470,cs),
(371,470,o),
(320,447,o),
(256,394,c),
(240,394,l),
(240,338,l),
(263,355,o),
(292,365,o),
(322,365,cs),
(390,365,o),
(419,310,o),
(419,185,cs),
(419,95,o),
(384,44,o),
(322,44,cs),
(279,44,o),
(249,66,o),
(229,111,c),
(138,55,l),
(195,8,o),
(258,-16,o),
(328,-16,cs)
);
},
{
closed = 1;
nodes = (
(343,-265,l),
(343,-237,l),
(214,-177,l),
(256,-241,l),
(256,-183,l),
(248,-10,l),
(256,-6,l),
(256,394,l),
(243,394,l),
(251,454,l),
(225,468,l),
(18,384,l),
(18,366,l),
(116,289,l),
(86,357,l),
(86,-241,l),
(129,-139,l),
(40,-247,l),
(40,-265,l)
);
}
);
width = 619;
},
{
associatedMasterId = m01;
layerId = "78ACDEB3-AB82-4D9F-AFDC-8F6096E09489";
name = "22 Oct 22, 10:48";
shapes = (
{
closed = 1;
nodes = (
(273,-280,l),
(275,-259,l),
(169,-222,l),
(185,-246,l),
(185,-137,ls),
(185,-52,o),
(184,-13,o),
(182,21,c),
(185,21,l),
(185,368,l),
(177,368,l),
(181,435,l),
(163,435,l),
(32,380,l),
(32,368,l),
(115,320,l),
(99,349,l),
(99,-233,l),
(113,-215,l),
(41,-267,l),
(43,-280,l)
);
},
{
closed = 1;
nodes = (
(434,-12,o),
(540,94,o),
(540,228,cs),
(540,359,o),
(460,442,o),
(333,442,cs),
(281,442,o),
(232,419,o),
(183,372,c),
(171,372,l),
(171,309,l),
(219,362,o),
(258,383,o),
(311,383,cs),
(401,383,o),
(451,319,o),
(451,205,cs),
(451,102,o),
(394,38,o),
(303,38,cs),
(257,38,o),
(221,53,o),
(185,88,c),
(167,97,l),
(141,58,l),
(186,11,o),
(239,-12,o),
(300,-12,cs)
);
}
);
width = 540;
},
{
associatedMasterId = "778ADD7E-4752-4796-8294-609F841445EC";
layerId = "33B5A7E0-5236-4DB2-9B44-236E70766365";
name = "22 Oct 22, 10:55";
shapes = (
{
closed = 1;
nodes = (
(334,-280,l),
(336,-250,l),
(245,-205,l),
(261,-229,l),
(261,-188,ls),
(261,-86,o),
(260,-48,o),
(255,-6,c),
(261,-6,l),
(261,396,l),
(245,396,l),
(251,470,l),
(223,476,l),
(27,400,l),
(31,381,l),
(107,329,l),
(91,351,l),
(91,-219,l),
(105,-201,l),
(42,-258,l),
(44,-280,l)
);
},
{
closed = 1;
nodes = (
(480,-16,o),
(604,103,o),
(604,254,cs),
(604,375,o),
(522,470,o),
(418,470,cs),
(366,470,o),
(316,447,o),
(253,396,c),
(236,396,l),
(253,343,l),
(283,366,o),
(311,376,o),
(345,376,cs),
(405,376,o),
(439,310,o),
(439,192,cs),
(439,104,o),
(400,49,o),
(337,49,cs),
(303,49,o),
(280,56,o),
(260,71,c),
(228,97,l),
(163,71,l),
(212,10,o),
(260,-16,o),
(322,-16,cs)
);
}
);
width = 644;
},
{
associatedMasterId = "778ADD7E-4752-4796-8294-609F841445EC";
layerId = "CB456A07-E94F-4043-9CD1-A5562902F52D";
name = "22 Oct 22, 11:02";
shapes = (
{
closed = 1;
nodes = (
(329,-280,l),
(331,-250,l),
(240,-205,l),
(256,-229,l),
(256,-188,ls),
(256,-86,o),
(255,-51,o),
(250,-9,c),
(256,-9,l),
(256,396,l),
(240,396,l),
(246,470,l),
(218,476,l),
(22,400,l),
(26,381,l),
(102,329,l),
(86,351,l),
(86,-219,l),
(100,-201,l),
(37,-258,l),
(39,-280,l)
);
},
{
closed = 1;
nodes = (
(490,-16,o),
(599,88,o),
(599,254,cs),
(599,375,o),
(517,470,o),
(413,470,cs),
(361,470,o),
(311,447,o),
(248,396,c),
(240,396,l),
(248,334,l),
(277,363,o),
(305,376,o),
(340,376,cs),
(400,376,o),
(434,310,o),
(434,192,cs),
(434,104,o),
(395,49,o),
(332,49,cs),
(299,49,o),
(274,58,o),
(256,76,c),
(223,97,l),
(138,49,l),
(189,7,o),
(253,-16,o),
(317,-16,cs)
);
}
);
width = 629;
},
{
associatedMasterId = m01;
layerId = "F363D5C6-6289-41BE-9EED-A0E7ECBCCE37";
name = "25 Oct 22, 08:32";
shapes = (
{
closed = 1;
nodes = (
(273,-280,l),
(275,-259,l),
(169,-222,l),
(185,-246,l),
(185,-137,ls),
(185,-52,o),
(184,-23,o),
(182,11,c),
(185,11,l),
(185,368,l),
(177,368,l),
(181,435,l),
(163,435,l),
(32,380,l),
(32,368,l),
(115,320,l),
(99,349,l),
(99,-233,l),
(113,-215,l),
(41,-267,l),
(43,-280,l)
);
},
{
closed = 1;
nodes = (
(434,-12,o),
(540,94,o),
(540,228,cs),
(540,359,o),
(460,442,o),
(333,442,cs),
(279,442,o),
(234,422,o),
(185,375,c),
(172,375,l),
(172,303,l),
(220,356,o),
(266,383,o),
(311,383,cs),
(401,383,o),
(451,319,o),
(451,205,cs),
(451,97,o),
(398,36,o),
(303,36,cs),
(258,36,o),
(225,48,o),
(185,78,c),
(167,97,l),
(142,39,l),
(184,4,o),
(232,-12,o),
(300,-12,cs)
);
}
);
width = 572;
},
{
associatedMasterId = m01;
layerId = "702CA5DD-4161-4BD8-824D-789FBF134CF7";
name = "25 Oct 22, 08:47";
shapes = (
{
closed = 1;
nodes = (
(273,-280,l),
(275,-259,l),
(169,-222,l),
(185,-246,l),
(185,-137,ls),
(185,-52,o),
(184,-23,o),
(182,11,c),
(185,11,l),
(185,368,l),
(177,368,l),
(181,435,l),
(163,435,l),
(32,380,l),
(32,368,l),
(115,320,l),
(99,349,l),
(99,-233,l),
(113,-215,l),
(41,-267,l),
(43,-280,l)
);
},
{
closed = 1;
nodes = (
(422,-12,o),
(520,94,o),
(520,228,cs),
(520,359,o),
(447,442,o),
(331,442,cs),
(276,442,o),
(235,423,o),
(185,375,c),
(172,375,l),
(172,303,l),
(224,361,o),
(262,383,o),
(309,383,cs),
(387,383,o),
(431,319,o),
(431,205,cs),
(431,98,o),
(383,38,o),
(298,38,cs),
(258,38,o),
(230,46,o),
(185,72,c),
(167,97,l),
(142,39,l),
(189,2,o),
(233,-12,o),
(298,-12,cs)
);
}
);
width = 552;
},
{
associatedMasterId = m01;
layerId = "221A8906-BBD9-4418-B048-336271AB4F22";
name = "29 Oct 22, 13:54";
shapes = (
{
closed = 1;
nodes = (
(273,-280,l),
(275,-259,l),
(169,-222,l),
(185,-246,l),
(185,-137,ls),
(185,-52,o),
(184,-23,o),
(182,11,c),
(185,11,l),
(185,368,l),
(177,368,l),
(181,435,l),
(163,435,l),
(32,380,l),
(32,368,l),
(115,320,l),
(99,349,l),
(99,-233,l),
(113,-215,l),
(41,-267,l),
(43,-280,l)
);
},
{
closed = 1;
nodes = (
(422,-12,o),
(520,94,o),
(520,228,cs),
(520,354,o),
(439,442,o),
(323,442,cs),
(269,442,o),
(230,423,o),
(185,375,c),
(172,375,l),
(172,303,l),
(222,363,o),
(255,383,o),
(301,383,cs),
(384,383,o),
(431,319,o),
(431,205,cs),
(431,98,o),
(383,38,o),
(298,38,cs),
(258,38,o),
(230,46,o),
(185,72,c),
(167,97,l),
(142,39,l),
(189,2,o),
(233,-12,o),
(298,-12,cs)
);
}
);
width = 552;
},
{
associatedMasterId = m01;
layerId = "5DF781E9-A3EA-4466-A17B-9D170794458B";
name = "29 Oct 22, 14:07";
shapes = (
{
closed = 1;
nodes = (
(273,-280,l),
(275,-259,l),
(169,-222,l),
(185,-246,l),
(185,-137,ls),
(185,-83,o),
(184,-18,o),
(182,11,c),
(185,11,l),
(185,380,l),
(177,380,l),
(181,435,l),
(163,435,l),
(32,380,l),
(32,368,l),
(115,320,l),
(99,349,l),
(99,-233,l),
(113,-215,l),
(41,-267,l),
(43,-280,l)
);
},
{
closed = 1;
nodes = (
(422,-12,o),
(520,94,o),
(520,228,cs),
(520,354,o),
(441,442,o),
(328,442,cs),
(273,442,o),
(238,427,o),
(185,380,c),
(172,380,l),
(172,317,l),
(222,367,o),
(255,383,o),
(306,383,cs),
(386,383,o),
(431,319,o),
(431,205,cs),
(431,98,o),
(383,38,o),
(298,38,cs),
(258,38,o),
(230,46,o),
(185,72,c),
(167,97,l),
(142,39,l),
(189,2,o),
(233,-12,o),
(298,-12,cs)
);
}
);
width = 552;
},
{
associatedMasterId = m01;
layerId = "4B3EF0D4-9A57-43FB-80E3-6524846970FB";
name = "15 Nov 22, 07:58";
shapes = (
{
closed = 1;
nodes = (
(278,-280,l),
(280,-259,l),
(174,-222,l),
(190,-246,l),
(190,-137,ls),
(190,-81,o),
(189,-17,o),
(187,8,c),
(190,8,l),
(190,380,l),
(182,380,l),
(186,435,l),
(168,435,l),
(37,380,l),
(37,368,l),
(120,320,l),
(104,349,l),
(104,-233,l),
(118,-215,l),
(46,-267,l),
(48,-280,l)
);
},
{
closed = 1;
nodes = (
(420,-12,o),
(525,94,o),
(525,228,cs),
(525,354,o),
(446,442,o),
(333,442,cs),
(278,442,o),
(243,427,o),
(190,380,c),
(177,380,l),
(177,319,l),
(223,363,o),
(260,380,o),
(311,380,cs),
(388,380,o),
(436,313,o),
(436,205,cs),
(436,97,o),
(382,36,o),
(286,36,cs),
(251,36,o),
(224,45,o),
(190,68,c),
(172,97,l),
(147,33,l),
(197,-1,o),
(232,-12,o),
(286,-12,cs)
);
}
);
width = 562;
},
{
associatedMasterId = m01;
layerId = "817ACD89-5DB7-4C90-8CC6-3EDE4EC57B2D";
name = "15 Nov 22, 09:33";
shapes = (
{
closed = 1;
nodes = (
(278,-280,l),
(280,-259,l),
(174,-222,l),
(190,-246,l),
(190,-137,ls),
(190,-81,o),
(189,-17,o),
(187,8,c),
(190,8,l),
(190,380,l),
(182,380,l),
(186,435,l),
(168,435,l),
(37,380,l),
(37,368,l),
(120,320,l),
(104,349,l),
(104,-233,l),
(118,-215,l),
(46,-267,l),
(48,-280,l)
);
},
{
closed = 1;
nodes = (
(420,-12,o),
(525,94,o),
(525,228,cs),
(525,359,o),
(451,442,o),
(333,442,cs),
(278,442,o),
(243,427,o),
(190,380,c),
(177,380,l),
(177,319,l),
(223,363,o),
(260,380,o),
(311,380,cs),
(388,380,o),
(436,313,o),
(436,205,cs),
(436,97,o),
(382,36,o),
(286,36,cs),
(251,36,o),
(224,45,o),
(190,68,c),
(172,97,l),
(147,33,l),
(197,-1,o),
(232,-12,o),
(286,-12,cs)
);
}
);
width = 562;
},
{
associatedMasterId = m01;
layerId = "48014473-0572-42E6-A0C1-68C5EE95AF9B";
name = "23 Nov 22, 18:00";
shapes = (
{
closed = 1;
nodes = (
(419,-12,o),
(516,88,o),
(516,231,cs),
(516,361,o),
(444,442,o),
(329,442,cs),
(276,442,o),
(221,413,o),
(176,362,c),
(163,362,l),
(163,301,l),
(202,353,o),
(249,382,o),
(294,382,cs),
(377,382,o),
(429,314,o),
(429,205,cs),
(429,85,o),
(385,32,o),
(286,32,cs),
(241,32,o),
(202,48,o),
(176,77,c),
(158,103,l),
(133,28,l),
(174,0,o),
(220,-12,o),
(282,-12,cs)
);
},
{
closed = 1;
nodes = (
(264,-280,l),
(266,-259,l),
(160,-222,l),
(176,-246,l),
(176,-137,ls),
(176,-61,o),
(175,-22,o),
(173,5,c),
(176,5,l),
(176,362,l),
(168,362,l),
(172,435,l),
(154,435,l),
(23,380,l),
(23,368,l),
(106,310,l),
(90,339,l),
(90,-233,l),
(104,-215,l),
(32,-267,l),
(34,-280,l)
);
}
);
width = 556;
},
{
associatedMasterId = m01;
layerId = "F88CEEC5-DB41-43AE-840B-98AC93ADE395";
name = "24 Nov 22, 15:39";
shapes = (
{
closed = 1;
nodes = (
(426,-12,o),
(524,88,o),
(524,231,cs),
(524,355,o),
(455,442,o),
(356,442,cs),
(296,442,o),
(233,413,o),
(181,362,c),
(168,362,l),
(168,305,l),
(210,356,o),
(256,382,o),
(306,382,cs),
(390,382,o),
(437,319,o),
(437,205,cs),
(437,90,o),
(391,33,o),
(298,33,cs),
(248,33,o),
(206,49,o),
(181,77,c),
(163,103,l),
(138,28,l),
(179,0,o),
(224,-12,o),
(287,-12,cs)
);
},
{
closed = 1;
nodes = (
(269,-280,l),
(271,-259,l),
(159,-214,l),
(181,-254,l),
(181,-137,ls),
(181,-61,o),
(180,-25,o),
(178,5,c),
(181,5,l),
(181,362,l),
(173,362,l),
(178,435,l),
(159,435,l),
(28,380,l),
(28,366,l),
(111,304,l),
(95,333,l),
(95,-252,l),
(116,-202,l),
(37,-267,l),
(38,-280,l)
);
}
);
width = 564;
},
{
associatedMasterId = "778ADD7E-4752-4796-8294-609F841445EC";
layerId = "873619B1-A363-462A-B111-FD063A4E021C";
name = "24 Nov 22, 16:35";
shapes = (
{
closed = 1;
nodes = (
(353,-280,l),
(355,-245,l),
(244,-199,l),
(260,-223,l),
(260,-184,l),
(252,-10,l),
(260,-6,l),
(260,394,l),
(244,394,l),
(250,470,l),
(222,476,l),
(13,416,l),
(17,387,l),
(106,313,l),
(90,335,l),
(90,-213,l),
(104,-195,l),
(28,-253,l),
(30,-280,l)
);
},
{
closed = 1;
nodes = (
(477,-23,o),
(599,91,o),
(599,244,cs),
(599,383,o),
(529,470,o),
(417,470,cs),
(365,470,o),
(319,449,o),
(252,394,c),
(244,394,l),
(251,342,l),
(275,358,o),
(298,365,o),
(326,365,cs),
(394,365,o),
(424,310,o),
(424,185,cs),
(424,98,o),
(389,49,o),
(326,49,cs),
(299,49,o),
(279,57,o),
(260,76,c),
(227,97,l),
(142,55,l),
(194,12,o),
(258,-13,o),
(321,-16,cs)
);
}
);
width = 639;
},
{
associatedMasterId = m01;
background = {
shapes = (
{
closed = 1;
nodes = (
(423,-12,o),
(527,96,o),
(527,234,cs),
(527,356,o),
(438,442,o),
(312,442,cs),
(179,442,o),
(75,334,o),
(75,196,cs),
(75,74,o),
(164,-12,o),
(290,-12,cs)
);
},
{
closed = 1;
nodes = (
(225,33,o),
(162,121,o),
(162,233,cs),
(162,343,o),
(206,397,o),
(296,397,cs),
(377,397,o),
(440,309,o),
(440,197,cs),
(440,87,o),
(396,33,o),
(306,33,cs)
);
}
);
};
layerId = "06EDDF29-CA04-4430-91A1-1433E41794E8";
name = "25 Nov 22, 10:52";
shapes = (
{
closed = 1;
nodes = (
(273,-280,l),
(273,-260,l),
(159,-212,l),
(181,-254,l),
(181,-137,l),
(177,5,l),
(181,5,l),
(181,362,l),
(173,362,l),
(178,435,l),
(158,435,l),
(28,379,l),
(28,366,l),
(132,288,l),
(95,362,l),
(95,-252,l),
(116,-202,l),
(37,-267,l),
(37,-280,l)
);
},
{
closed = 1;
nodes = (
(429,-12,o),
(524,89,o),
(524,249,cs),
(524,362,o),
(455,442,o),
(357,442,cs),
(298,442,o),
(235,413,o),
(181,362,c),
(168,362,l),
(168,307,l),
(213,359,o),
(258,382,o),
(315,382,cs),
(393,382,o),
(437,317,o),
(437,200,cs),
(437,92,o),
(386,32,o),
(296,32,cs),
(250,32,o),
(212,44,o),
(181,68,c),
(163,103,l),
(138,28,l),
(175,2,o),
(225,-12,o),
(278,-12,cs)
);
}
);
width = 564;
},
{
associatedMasterId = "778ADD7E-4752-4796-8294-609F841445EC";
background = {
shapes = (
{
closed = 1;
nodes = (
(644,0,l),
(644,28,l),
(535,98,l),
(577,24,l),
(577,294,ls),
(577,407,o),
(527,470,o),
(437,470,cs),
(375,470,o),
(323,445,o),
(265,388,c),
(249,388,l),
(249,329,l),
(281,350,o),
(309,359,o),
(339,359,cs),
(386,359,o),
(407,330,o),
(407,265,cs),
(407,24,l),
(450,136,l),
(361,18,l),
(361,0,l)
);
}
);
};
layerId = "123DA09F-C779-4F00-90E7-7BF9B4AE0812";
name = "25 Nov 22, 10:53";
shapes = (
{
closed = 1;
nodes = (
(352,-280,l),
(352,-252,l),
(223,-192,l),
(265,-256,l),
(265,-184,l),
(257,-10,l),
(265,-6,l),
(265,394,l),
(252,394,l),
(260,454,l),
(234,468,l),
(27,384,l),
(27,366,l),
(125,289,l),
(95,357,l),
(95,-256,l),
(138,-154,l),
(49,-262,l),
(49,-280,l)
);
},
{
closed = 1;
nodes = (
(486,-16,o),
(603,104,o),
(603,257,cs),
(603,382,o),
(532,470,o),
(432,470,cs),
(380,470,o),
(329,447,o),
(265,394,c),
(249,394,l),
(249,338,l),
(272,355,o),
(301,365,o),
(331,365,cs),
(399,365,o),
(428,310,o),
(428,185,cs),
(428,95,o),
(393,44,o),
(331,44,cs),
(303,44,o),
(283,53,o),
(265,74,c),
(232,97,l),
(147,55,l),
(204,8,o),
(267,-16,o),
(337,-16,cs)
);
}
);
width = 643;
}
);
metricLeft = "=n";
metricRight = "=o";
unicode = 112;
},
{
color = 5;
glyphname = thorn;
lastChange = "2022-12-09 09:41:28 +0000";
layers = (
{
layerId = m01;
shapes = (
{
closed = 1;
nodes = (
(265,-265,l),
(265,-245,l),
(151,-197,l),
(173,-239,l),
(173,-137,l),
(169,7,l),
(173,7,l),
(173,365,l),
(165,365,l),
(173,541,l),
(173,735,l),
(150,735,l),
(20,679,l),
(20,666,l),
(124,588,l),
(87,662,l),
(87,-237,l),
(108,-187,l),
(29,-252,l),
(29,-265,l)
);
},
{
closed = 1;
nodes = (
(413,-12,o),
(516,99,o),
(516,240,cs),
(516,353,o),
(435,442,o),
(332,442,cs),
(278,442,o),
(234,421,o),
(173,365,c),
(160,365,l),
(160,307,l),
(203,356,o),
(247,378,o),
(302,378,cs),
(380,378,o),
(429,311,o),
(429,205,cs),
(429,98,o),
(374,31,o),
(286,31,cs),
(208,31,o),
(169,55,o),
(133,128,c),
(133,28,l),
(172,1,o),
(222,-12,o),
(282,-12,cs)
);
}
);
width = 556;
},
{
layerId = "778ADD7E-4752-4796-8294-609F841445EC";
shapes = (
{
closed = 1;
nodes = (
(333,-265,l),
(333,-237,l),
(204,-177,l),
(246,-241,l),
(246,-183,l),
(238,-10,l),
(246,-6,l),
(246,394,l),
(237,394,l),
(246,589,l),
(246,739,l),
(215,749,l),
(8,665,l),
(8,647,l),
(106,570,l),
(76,638,l),
(76,-241,l),
(119,-139,l),
(30,-247,l),
(30,-265,l)
);
},
{
closed = 1;
nodes = (
(474,-16,o),
(584,97,o),
(584,257,cs),
(584,382,o),
(513,470,o),
(413,470,cs),
(361,470,o),
(310,447,o),
(246,394,c),
(230,394,l),
(230,338,l),
(253,355,o),
(282,365,o),
(312,365,cs),
(380,365,o),
(409,310,o),
(409,185,cs),
(409,95,o),
(374,44,o),
(312,44,cs),
(269,44,o),
(239,66,o),
(219,111,c),
(128,55,l),
(185,8,o),
(248,-16,o),
(318,-16,cs)
);
}
);
width = 609;
}
);
metricLeft = "=b";
metricRight = "=o";
unicode = 254;
},
{
color = 5;
glyphname = q;
lastChange = "2022-12-02 08:10:52 +0000";
layers = (
{
layerId = m01;
shapes = (
{
closed = 1;
nodes = (
(278,-12,o),
(322,9,o),
(383,65,c),
(396,65,l),
(396,123,l),
(353,74,o),
(309,52,o),
(254,52,cs),
(176,52,o),
(127,119,o),
(127,225,cs),
(127,332,o),
(182,399,o),
(270,399,cs),
(348,399,o),
(387,375,o),
(423,302,c),
(423,402,l),
(384,429,o),
(334,442,o),
(274,442,cs),
(143,442,o),
(40,331,o),
(40,190,cs),
(40,77,o),
(121,-12,o),
(224,-12,cs)
);
},
{
closed = 1;
nodes = (
(523,-265,l),
(523,-245,l),
(445,-197,l),
(467,-245,l),
(467,435,l),
(455,435,l),
(390,371,l),
(383,371,l),
(383,65,l),
(388,65,l),
(381,-119,l),
(381,-237,l),
(402,-187,l),
(303,-252,l),
(303,-265,l)
);
}
);
width = 535;
},
{
layerId = "778ADD7E-4752-4796-8294-609F841445EC";
shapes = (
{
closed = 1;
nodes = (
(248,-16,o),
(299,7,o),
(363,60,c),
(379,60,l),
(379,116,l),
(356,99,o),
(327,89,o),
(297,89,cs),
(229,89,o),
(200,144,o),
(200,269,cs),
(200,359,o),
(235,410,o),
(297,410,cs),
(340,410,o),
(370,388,o),
(390,343,c),
(481,399,l),
(424,446,o),
(361,470,o),
(291,470,cs),
(135,470,o),
(25,357,o),
(25,197,cs),
(25,72,o),
(96,-16,o),
(196,-16,cs)
);
},
{
closed = 1;
nodes = (
(580,-265,l),
(580,-237,l),
(491,-177,l),
(533,-241,l),
(533,466,l),
(515,466,l),
(431,392,l),
(363,392,l),
(363,60,l),
(372,60,l),
(363,-139,l),
(363,-241,l),
(406,-139,l),
(297,-247,l),
(297,-265,l)
);
}
);
width = 582;
},
{
associatedMasterId = "778ADD7E-4752-4796-8294-609F841445EC";
layerId = "36591530-8636-4125-B9DD-42767EB178BD";
name = "18 Oct 22, 21:34";
shapes = (
{
closed = 1;
nodes = (
(268,-16,o),
(318,7,o),
(381,58,c),
(398,58,l),
(381,111,l),
(351,88,o),
(323,78,o),
(289,78,cs),
(229,78,o),
(195,144,o),
(195,262,cs),
(195,350,o),
(234,405,o),
(297,405,cs),
(329,405,o),
(353,398,o),
(373,383,c),
(406,357,l),
(471,383,l),
(422,444,o),
(374,470,o),
(312,470,cs),
(154,470,o),
(30,351,o),
(30,200,cs),
(30,79,o),
(112,-16,o),
(216,-16,cs)
);
},
{
closed = 1;
nodes = (
(599,-280,l),
(601,-250,l),
(527,-205,l),
(543,-239,l),
(543,461,l),
(511,466,l),
(451,393,l),
(373,392,l),
(373,52,l),
(378,52,l),
(375,19,o),
(373,-33,o),
(373,-119,cs),
(373,-249,l),
(387,-201,l),
(291,-258,l),
(293,-280,l)
);
}
);
width = 600;
},
{
associatedMasterId = m01;
layerId = "4C2691E7-C658-4646-8C09-39314CFD3E4D";
name = "22 Oct 22, 10:50";
shapes = (
{
closed = 1;
nodes = (
(291,-12,o),
(338,8,o),
(387,55,c),
(401,55,l),
(401,118,l),
(354,67,o),
(315,47,o),
(261,47,cs),
(171,47,o),
(121,111,o),
(121,225,cs),
(121,328,o),
(178,392,o),
(269,392,cs),
(314,392,o),
(347,377,o),
(387,338,c),
(405,333,l),
(430,357,l),
(384,416,o),
(336,442,o),
(272,442,cs),
(138,442,o),
(32,336,o),
(32,202,cs),
(32,71,o),
(112,-12,o),
(239,-12,cs)
);
},
{
closed = 1;
nodes = (
(529,-280,l),
(531,-259,l),
(455,-219,l),
(471,-243,l),
(471,433,l),
(447,437,l),
(404,382,l),
(387,371,l),
(387,55,l),
(390,55,l),
(387,22,o),
(385,-42,o),
(385,-100,cs),
(385,-233,l),
(399,-215,l),
(296,-267,l),
(298,-280,l)
);
}
);
width = 527;
},
{
associatedMasterId = m01;
layerId = "27CC6EC9-6ED0-4700-8FFE-584A4BDACB9A";
name = "25 Oct 22, 08:40";
shapes = (
{
closed = 1;
nodes = (
(293,-12,o),
(338,8,o),
(387,55,c),
(400,55,l),
(400,127,l),
(352,74,o),
(306,47,o),
(261,47,cs),
(171,47,o),
(121,111,o),
(121,225,cs),
(121,333,o),
(174,394,o),
(269,394,cs),
(314,394,o),
(347,382,o),
(387,352,c),
(405,333,l),
(430,391,l),
(388,426,o),
(340,442,o),
(272,442,cs),
(138,442,o),
(32,336,o),
(32,202,cs),
(32,71,o),
(112,-12,o),
(239,-12,cs)
);
},
{
closed = 1;
nodes = (
(529,-280,l),
(531,-259,l),
(455,-219,l),
(471,-243,l),
(471,433,l),
(447,437,l),
(404,382,l),
(387,371,l),
(387,55,l),
(390,55,l),
(387,22,o),
(385,-42,o),
(385,-100,cs),
(385,-233,l),
(399,-215,l),
(296,-267,l),
(298,-280,l)
);
}
);
width = 527;
}
);
metricLeft = "=o";
unicode = 113;
},
{
color = 5;
glyphname = r;
lastChange = "2022-12-10 06:11:16 +0000";
layers = (
{
anchors = (
{
name = bottom;
pos = (143,0);
},
{
name = top;
pos = (202,430);
}
);
layerId = m01;
shapes = (
{
closed = 1;
nodes = (
(275,0,l),
(275,20,l),
(161,68,l),
(183,26,l),
(183,352,l),
(175,352,l),
(180,435,l),
(160,435,l),
(30,379,l),
(30,366,l),
(134,288,l),
(97,362,l),
(97,28,l),
(118,78,l),
(39,13,l),
(39,0,l)
);
},
{
closed = 1;
nodes = (
(201,327,o),
(233,352,o),
(265,352,c),
(326,310,l),
(339,310,l),
(378,430,l),
(361,438,o),
(344,442,o),
(326,442,cs),
(278,442,o),
(231,412,o),
(183,352,c),
(169,352,l),
(169,277,l)
);
}
);
width = 403;
},
{
anchors = (
{
name = bottom;
pos = (181,0);
},
{
name = top;
pos = (240,454);
}
);
layerId = "778ADD7E-4752-4796-8294-609F841445EC";
shapes = (
{
closed = 1;
nodes = (
(345,0,l),
(345,28,l),
(212,93,l),
(256,24,l),
(256,379,l),
(243,379,l),
(251,454,l),
(225,468,l),
(18,384,l),
(18,366,l),
(116,289,l),
(86,357,l),
(86,24,l),
(129,126,l),
(40,18,l),
(40,0,l)
);
},
{
closed = 1;
nodes = (
(253,319,o),
(285,336,o),
(318,336,c),
(386,286,l),
(404,286,l),
(465,452,l),
(444,465,o),
(426,470,o),
(400,470,cs),
(346,470,o),
(290,435,o),
(256,379,c),
(235,379,l),
(235,293,l)
);
}
);
width = 480;
},
{
associatedMasterId = m01;
layerId = "E3AD0F2A-2CFD-4B40-9B57-A8120128D61D";
name = "10 Nov 22, 21:23";
shapes = (
{
closed = 1;
nodes = (
(278,0,l),
(280,21,l),
(174,58,l),
(190,34,l),
(190,339,l),
(182,339,l),
(186,435,l),
(168,435,l),
(37,380,l),
(37,368,l),
(120,320,l),
(104,349,l),
(104,47,l),
(118,65,l),
(46,13,l),
(48,0,l)
);
},
{
closed = 1;
nodes = (
(217,333,o),
(263,354,o),
(336,346,c),
(346,439,l),
(339,441,o),
(331,442,o),
(322,442,cs),
(269,442,o),
(222,405,o),
(190,339,c),
(174,339,l),
(186,276,l)
);
}
);
width = 366;
},
{
associatedMasterId = m01;
layerId = "889647CE-5C36-4D79-BD7F-6BE2E2124A1D";
name = "25 Nov 22, 09:01";
shapes = (
{
closed = 1;
nodes = (
(264,0,l),
(266,21,l),
(160,58,l),
(176,34,l),
(176,339,l),
(168,339,l),
(172,435,l),
(154,435,l),
(23,380,l),
(23,368,l),
(106,310,l),
(90,339,l),
(90,47,l),
(104,65,l),
(32,13,l),
(34,0,l)
);
},
{
closed = 1;
nodes = (
(198,328,o),
(228,349,o),
(257,354,c),
(308,302,l),
(323,304,l),
(371,422,l),
(350,436,o),
(330,442,o),
(304,442,cs),
(261,442,o),
(209,401,o),
(177,343,c),
(163,343,l),
(175,296,l)
);
}
);
width = 391;
}
);
metricLeft = "=n";
unicode = 114;
},
{
color = 5;
glyphname = s;
lastChange = "2022-12-12 05:13:17 +0000";
layers = (
{
anchors = (
{
name = bottom;
pos = (216,0);
},
{
name = top;
pos = (217,430);
}
);
layerId = m01;
shapes = (
{
closed = 1;
nodes = (
(288,-12,o),
(356,44,o),
(356,123,c),
(356,271,o),
(125,254,o),
(125,344,cs),
(125,383,o),
(158,405,o),
(217,405,cs),
(288,405,l),
(202,422,l),
(292,318,l),
(305,318,l),
(353,397,l),
(310,427,o),
(265,442,o),
(217,442,cs),
(124,442,o),
(59,387,o),
(59,309,c),
(59,172,o),
(285,199,o),
(285,88,cs),
(285,49,o),
(250,24,o),
(195,24,cs),
(105,24,l),
(195,9,l),
(87,116,l),
(74,116,l),
(40,31,l),
(86,1,o),
(132,-12,o),
(191,-12,cs)
);
}
);
width = 396;
},
{
anchors = (
{
name = bottom;
pos = (208,0);
},
{
name = top;
pos = (228,454);
}
);
layerId = "778ADD7E-4752-4796-8294-609F841445EC";
shapes = (
{
closed = 1;
nodes = (
(313,-16,o),
(399,60,o),
(399,156,c),
(399,310,o),
(155,303,o),
(155,381,cs),
(155,408,o),
(176,422,o),
(217,422,cs),
(303,422,l),
(207,432,l),
(337,306,l),
(355,306,l),
(401,420,l),
(336,455,o),
(284,470,o),
(228,470,cs),
(123,470,o),
(41,402,o),
(41,316,c),
(41,141,o),
(266,174,o),
(266,79,cs),
(266,54,o),
(244,37,o),
(213,37,cs),
(123,37,l),
(219,23,l),
(83,160,l),
(65,160,l),
(25,34,l),
(88,-3,o),
(133,-16,o),
(204,-16,cs)
);
}
);
width = 426;
},
{
anchors = (
{
name = bottom;
pos = (202,0);
},
{
name = top;
pos = (202,430);
}
);
associatedMasterId = m01;
layerId = "68D77137-C094-43C9-8D74-B92FC87AF0FA";
name = "1 Nov 22, 09:23";
shapes = (
{
closed = 1;
nodes = (
(302,-12,o),
(371,43,o),
(371,121,c),
(371,185,o),
(327,228,o),
(227,260,cs),
(140,289,o),
(111,310,o),
(111,342,cs),
(111,372,o),
(142,391,o),
(192,391,cs),
(236,391,o),
(267,382,o),
(294,360,c),
(305,297,l),
(340,300,l),
(368,387,l),
(321,424,o),
(269,442,o),
(210,442,cs),
(111,442,o),
(42,392,o),
(42,321,c),
(42,254,o),
(76,217,o),
(164,188,cs),
(266,155,o),
(300,132,o),
(300,99,cs),
(300,58,o),
(275,40,o),
(217,40,cs),
(162,40,o),
(123,51,o),
(100,73,c),
(84,142,l),
(50,149,l),
(32,43,l),
(72,5,o),
(125,-12,o),
(204,-12,cs)
);
}
);
width = 403;
},
{
anchors = (
{
name = bottom;
pos = (222,0);
},
{
name = top;
pos = (222,454);
}
);
associatedMasterId = "778ADD7E-4752-4796-8294-609F841445EC";
layerId = "9CFD71A8-E283-4590-A44F-2B920E23417A";
name = "1 Nov 22, 09:29";
shapes = (
{
closed = 1;
nodes = (
(322,-16,o),
(413,52,o),
(413,139,c),
(413,220,o),
(367,270,o),
(261,303,cs),
(193,326,o),
(160,348,o),
(160,371,cs),
(160,396,o),
(178,408,o),
(215,408,cs),
(243,408,o),
(257,406,o),
(269,399,c),
(339,300,l),
(378,305,l),
(393,412,l),
(353,449,o),
(292,470,o),
(224,470,cs),
(114,470,o),
(36,404,o),
(36,309,c),
(36,235,o),
(76,185,o),
(158,158,cs),
(247,129,o),
(277,111,o),
(277,87,cs),
(277,61,o),
(259,49,o),
(218,49,cs),
(191,49,o),
(171,53,o),
(147,64,c),
(92,153,l),
(48,162,l),
(30,43,l),
(87,2,o),
(144,-16,o),
(218,-16,cs)
);
}
);
width = 443;
},
{
anchors = (
{
name = bottom;
pos = (204,0);
},
{
name = top;
pos = (204,430);
}
);
associatedMasterId = m01;
layerId = "D0363E03-A3AB-4349-8346-32B9B8078158";
name = "15 Nov 22, 08:25";
shapes = (
{
closed = 1;
nodes = (
(305,-12,o),
(373,43,o),
(373,121,c),
(373,183,o),
(325,229,o),
(229,260,cs),
(150,287,o),
(123,307,o),
(123,342,cs),
(123,373,o),
(150,393,o),
(194,393,cs),
(223,393,o),
(247,388,o),
(265,377,c),
(306,297,l),
(317,298,l),
(357,387,l),
(308,425,o),
(264,442,o),
(212,442,cs),
(121,442,o),
(57,392,o),
(57,321,c),
(57,253,o),
(90,213,o),
(166,188,cs),
(264,156,o),
(302,130,o),
(302,93,cs),
(302,58,o),
(273,38,o),
(221,38,cs),
(167,38,o),
(134,49,o),
(105,75,c),
(89,148,l),
(55,155,l),
(37,49,l),
(81,8,o),
(137,-12,o),
(208,-12,cs)
);
}
);
width = 410;
},
{
anchors = (
{
name = bottom;
pos = (226,0);
},
{
name = top;
pos = (226,454);
}
);
associatedMasterId = "778ADD7E-4752-4796-8294-609F841445EC";
layerId = "72017B56-F42B-4687-AB14-7192600CCD87";
name = "17 Nov 22, 10:33";
shapes = (
{
closed = 1;
nodes = (
(336,-16,o),
(417,51,o),
(417,146,c),
(417,222,o),
(366,275,o),
(263,307,cs),
(194,330,o),
(167,350,o),
(167,378,cs),
(167,401,o),
(184,413,o),
(219,413,cs),
(243,413,o),
(262,406,o),
(278,391,c),
(322,322,l),
(365,327,l),
(395,418,l),
(352,453,o),
(297,470,o),
(228,470,cs),
(130,470,o),
(53,399,o),
(53,309,c),
(53,240,o),
(92,189,o),
(162,166,cs),
(242,140,o),
(281,114,o),
(281,87,cs),
(281,60,o),
(261,46,o),
(222,46,cs),
(193,46,o),
(168,53,o),
(145,67,c),
(105,145,l),
(61,154,l),
(34,43,l),
(87,5,o),
(154,-16,o),
(222,-16,cs)
);
}
);
width = 451;
},
{
anchors = (
{
name = bottom;
pos = (218,0);
},
{
name = top;
pos = (218,454);
}
);
associatedMasterId = "778ADD7E-4752-4796-8294-609F841445EC";
layerId = "C23D9B46-E3F3-42C4-80EE-63EF5458BDC0";
name = "17 Nov 22, 10:46";
shapes = (
{
closed = 1;
nodes = (
(328,-16,o),
(409,51,o),
(409,146,c),
(409,209,o),
(363,258,o),
(259,306,cs),
(191,335,o),
(165,355,o),
(165,378,cs),
(165,402,o),
(179,413,o),
(211,413,cs),
(243,413,o),
(266,406,o),
(294,386,c),
(320,304,l),
(345,305,l),
(387,418,l),
(344,453,o),
(289,470,o),
(220,470,cs),
(122,470,o),
(45,407,o),
(45,326,c),
(45,246,o),
(79,205,o),
(182,163,cs),
(246,138,o),
(267,118,o),
(267,84,cs),
(267,59,o),
(252,46,o),
(223,46,cs),
(189,46,o),
(160,53,o),
(121,72,c),
(99,154,l),
(74,157,l),
(34,41,l),
(86,3,o),
(146,-16,o),
(214,-16,cs)
);
}
);
width = 443;
},
{
anchors = (
{
name = bottom;
pos = (204,0);
},
{
name = top;
pos = (204,430);
}
);
associatedMasterId = m01;
layerId = "352DEE22-C134-4F65-9542-127DC0C7D805";
name = "17 Nov 22, 13:31";
shapes = (
{
closed = 1;
nodes = (
(299,-12,o),
(370,45,o),
(370,117,c),
(370,179,o),
(325,223,o),
(223,262,cs),
(148,290,o),
(123,311,o),
(123,344,cs),
(123,375,o),
(151,396,o),
(191,396,cs),
(220,396,o),
(245,389,o),
(272,374,c),
(300,299,l),
(316,300,l),
(352,396,l),
(311,428,o),
(268,442,o),
(212,442,cs),
(121,442,o),
(57,390,o),
(57,319,c),
(56,251,o),
(92,215,o),
(199,175,cs),
(271,148,o),
(299,124,o),
(299,88,cs),
(299,56,o),
(269,36,o),
(221,36,cs),
(178,36,o),
(149,44,o),
(117,64,c),
(88,149,l),
(72,150,l),
(44,44,l),
(84,7,o),
(139,-12,o),
(208,-12,cs)
);
}
);
width = 414;
}
);
metricLeft = "=o";
metricRight = "=o";
unicode = 115;
},
{
color = 5;
glyphname = germandbls;
lastChange = "2022-12-09 09:40:54 +0000";
layers = (
{
background = {
shapes = (
{
pos = (67,0);
ref = o;
}
);
};
layerId = m01;
shapes = (
{
closed = 1;
nodes = (
(479,-16,o),
(568,85,o),
(568,214,cs),
(568,329,o),
(477,410,o),
(334,410,c),
(334,402,l),
(425,402,o),
(497,476,o),
(497,571,cs),
(497,674,o),
(417,747,o),
(303,747,cs),
(182,747,o),
(97,644,o),
(97,497,cs),
(97,28,l),
(118,78,l),
(39,13,l),
(39,0,l),
(183,0,l),
(183,569,ls),
(183,651,o),
(225,703,o),
(292,703,cs),
(363,703,o),
(413,643,o),
(413,558,cs),
(413,479,o),
(378,430,o),
(321,430,cs),
(306,430,l),
(298,422,l),
(298,364,l),
(315,364,l),
(411,364,o),
(479,285,o),
(479,172,cs),
(479,82,o),
(429,19,o),
(358,19,cs),
(271,19,l),
(380,0,l),
(291,121,l),
(277,121,l),
(236,24,l),
(286,-5,o),
(316,-16,o),
(366,-16,cs)
);
},
{
closed = 1;
nodes = (
(161,316,l),
(161,441,l),
(30,386,l),
(30,374,l),
(113,316,l)
);
}
);
width = 608;
},
{
layerId = "778ADD7E-4752-4796-8294-609F841445EC";
shapes = (
{
closed = 1;
nodes = (
(584,-16,o),
(701,88,o),
(701,220,cs),
(701,357,o),
(594,433,o),
(402,433,c),
(402,417,l),
(529,417,o),
(619,493,o),
(619,590,cs),
(619,685,o),
(512,751,o),
(360,751,cs),
(212,751,o),
(95,646,o),
(95,512,cs),
(95,24,l),
(138,126,l),
(49,18,l),
(49,0,l),
(265,0,l),
(265,565,ls),
(265,644,o),
(304,699,o),
(360,699,cs),
(423,699,o),
(462,649,o),
(462,569,cs),
(462,501,o),
(426,454,o),
(376,454,cs),
(372,454,l),
(356,435,l),
(356,373,l),
(366,373,l),
(465,373,o),
(535,295,o),
(535,184,cs),
(535,112,o),
(507,56,o),
(463,38,c),
(406,38,l),
(490,15,l),
(396,183,l),
(374,183,l),
(325,32,l),
(360,1,o),
(398,-16,o),
(448,-16,cs)
);
},
{
closed = 1;
nodes = (
(227,304,l),
(227,467,l),
(18,407,l),
(22,378,l),
(111,304,l)
);
}
);
width = 726;
},
{
associatedMasterId = m01;
layerId = "B0FB3A10-EF20-4A25-A0C2-0653A9161EC1";
name = "30 Oct 22, 15:04";
shapes = (
{
closed = 1;
nodes = (
(116,380,l),
(116,457,l),
(36,392,l),
(38,380,l)
);
},
{
closed = 1;
nodes = (
(463,-12,o),
(522,43,o),
(522,121,c),
(522,185,o),
(484,181,o),
(404,253,cs),
(335,315,o),
(343,331,o),
(343,363,cs),
(343,393,o),
(470,490,o),
(470,549,cs),
(470,666,o),
(406,732,o),
(302,732,cs),
(191,732,o),
(116,644,o),
(116,503,cs),
(116,47,l),
(130,65,l),
(58,13,l),
(60,0,l),
(202,0,l),
(202,570,ls),
(202,645,o),
(235,678,o),
(296,678,cs),
(352,678,o),
(398,639,o),
(398,570,cs),
(398,471,o),
(271,413,o),
(271,342,c),
(271,279,o),
(292,236,o),
(345,188,cs),
(427,115,o),
(451,132,o),
(451,99,cs),
(451,58,o),
(436,40,o),
(378,40,cs),
(323,40,o),
(344,51,o),
(321,73,c),
(306,118,l),
(272,125,l),
(253,43,l),
(293,5,o),
(286,-12,o),
(365,-12,cs)
);
}
);
width = 554;
},
{
associatedMasterId = m01;
layerId = "8846F8E6-1E45-4ABC-9E10-D54C4AC8F36B";
name = "30 Oct 22, 15:20";
shapes = (
{
closed = 1;
nodes = (
(469,-12,o),
(548,66,o),
(548,166,cs),
(548,256,o),
(475,343,o),
(370,375,c),
(426,393,o),
(470,473,o),
(470,556,cs),
(470,659,o),
(401,732,o),
(302,732,cs),
(191,732,o),
(116,644,o),
(116,503,cs),
(116,47,l),
(130,65,l),
(58,13,l),
(60,0,l),
(202,0,l),
(202,570,ls),
(202,645,o),
(235,678,o),
(296,678,cs),
(359,678,o),
(398,631,o),
(398,556,cs),
(398,447,o),
(371,400,o),
(299,387,c),
(283,350,l),
(387,329,o),
(460,254,o),
(460,168,cs),
(460,83,o),
(427,36,o),
(369,36,cs),
(325,36,o),
(294,63,o),
(289,105,cs),
(283,154,l),
(257,160,l),
(235,61,l),
(262,14,o),
(310,-12,o),
(369,-12,cs)
);
},
{
closed = 1;
nodes = (
(116,380,l),
(116,457,l),
(36,392,l),
(38,380,l)
);
}
);
width = 580;
},
{
associatedMasterId = "778ADD7E-4752-4796-8294-609F841445EC";
layerId = "0E8893DF-E241-42DF-AD4D-5156EF3FB77B";
name = "30 Oct 22, 15:20";
shapes = (
{
closed = 1;
nodes = (
(569,-16,o),
(654,68,o),
(654,187,cs),
(654,297,o),
(571,385,o),
(454,399,c),
(542,428,o),
(586,480,o),
(586,556,cs),
(586,667,o),
(495,736,o),
(350,736,cs),
(210,736,o),
(111,647,o),
(111,520,cs),
(111,66,l),
(125,84,l),
(62,27,l),
(64,0,l),
(281,0,l),
(281,590,ls),
(281,631,o),
(309,659,o),
(350,659,cs),
(397,659,o),
(427,619,o),
(427,556,cs),
(427,462,o),
(410,423,o),
(367,415,c),
(345,335,l),
(440,315,o),
(481,264,o),
(481,168,cs),
(481,85,o),
(469,53,o),
(438,53,cs),
(415,53,o),
(400,71,o),
(396,104,cs),
(389,161,l),
(337,169,l),
(313,30,l),
(365,-4,o),
(399,-16,o),
(448,-16,cs)
);
},
{
closed = 1;
nodes = (
(111,361,l),
(111,470,l),
(26,394,l),
(33,361,l)
);
}
);
width = 684;
},
{
associatedMasterId = m01;
background = {
shapes = (
{
closed = 0;
nodes = (
(188,569,ls),
(188,659,o),
(224,703,o),
(297,703,cs),
(350,703,l),
(283,725,l),
(378,601,l),
(391,601,l),
(446,699,l),
(446,705,l),
(402,734,o),
(360,747,o),
(308,747,cs),
(187,747,o),
(102,644,o),
(102,497,cs)
);
}
);
};
layerId = "D5860341-D013-4190-955E-1A93B7E74D90";
name = "2 Dec 22, 16:00";
shapes = (
{
closed = 1;
nodes = (
(468,-12,o),
(549,69,o),
(549,171,cs),
(549,265,o),
(483,338,o),
(366,375,c),
(434,388,o),
(481,461,o),
(481,552,cs),
(481,653,o),
(398,732,o),
(293,732,cs),
(181,732,o),
(102,637,o),
(102,503,cs),
(102,47,l),
(116,65,l),
(44,13,l),
(46,0,l),
(188,0,l),
(188,547,ls),
(188,636,o),
(218,678,o),
(287,678,cs),
(356,678,o),
(404,628,o),
(404,547,cs),
(404,445,o),
(374,401,o),
(295,387,c),
(279,350,l),
(386,328,o),
(461,255,o),
(461,173,cs),
(461,64,o),
(429,28,o),
(343,28,c),
(390,10,l),
(301,138,l),
(288,140,l),
(238,30,l),
(273,1,o),
(312,-12,o),
(365,-12,cs)
);
},
{
closed = 1;
nodes = (
(166,310,l),
(166,435,l),
(35,380,l),
(35,368,l),
(118,310,l)
);
}
);
width = 589;
}
);
metricLeft = "=n";
metricRight = "=o";
unicode = 223;
},
{
color = 5;
glyphname = t;
lastChange = "2022-12-10 07:41:24 +0000";
layers = (
{
anchors = (
{
name = bottom;
pos = (233,0);
},
{
name = center;
pos = (204,215);
},
{
name = top;
pos = (204,430);
},
{
name = topright;
pos = (191,735);
}
);
layerId = m01;
shapes = (
{
closed = 1;
nodes = (
(293,-12,o),
(337,12,o),
(387,67,c),
(369,89,l),
(333,62,o),
(303,51,o),
(262,51,cs),
(209,51,o),
(191,81,o),
(191,172,cs),
(191,545,l),
(171,545,l),
(30,383,l),
(30,370,l),
(140,370,l),
(105,423,l),
(105,152,ls),
(105,42,o),
(150,-12,o),
(241,-12,cs)
);
},
{
closed = 1;
nodes = (
(359,442,l),
(163,428,l),
(163,394,l),
(359,377,l)
);
}
);
width = 407;
},
{
anchors = (
{
name = bottom;
pos = (241,0);
},
{
name = center;
pos = (227,227);
},
{
name = top;
pos = (227,454);
},
{
name = topright;
pos = (270,735);
}
);
layerId = "778ADD7E-4752-4796-8294-609F841445EC";
shapes = (
{
closed = 1;
nodes = (
(326,-16,o),
(396,18,o),
(445,71,c),
(422,105,l),
(396,86,o),
(364,76,o),
(327,76,cs),
(285,76,o),
(269,99,o),
(269,158,cs),
(269,607,l),
(241,607,l),
(18,388,l),
(18,370,l),
(114,370,l),
(93,423,l),
(93,171,ls),
(93,46,o),
(149,-16,o),
(263,-16,cs)
);
},
{
closed = 1;
nodes = (
(420,470,l),
(209,437,l),
(205,389,l),
(420,371,l)
);
}
);
width = 453;
}
);
metricLeft = "=n";
metricRight = "=n";
unicode = 116;
},
{
color = 5;
glyphname = u;
lastChange = "2022-12-10 07:37:24 +0000";
layers = (
{
anchors = (
{
name = bottom;
pos = (291,0);
},
{
name = ogonek;
pos = (455,0);
},
{
name = top;
pos = (281,430);
},
{
name = topright;
pos = (534,430);
}
);
background = {
shapes = (
{
closed = 0;
nodes = (
(97,157,l),
(97,49,o),
(144,-12,o),
(225,-12,cs),
(289,-12,o),
(343,14,o),
(405,75,c),
(419,75,l),
(419,134,l),
(379,83,o),
(328,54,o),
(275,54,cs),
(213,54,o),
(183,96,o),
(183,182,c)
);
}
);
};
layerId = m01;
shapes = (
{
closed = 1;
nodes = (
(287,-12,o),
(332,9,o),
(385,62,c),
(399,62,l),
(399,121,l),
(363,76,o),
(319,54,o),
(265,54,cs),
(210,54,o),
(183,96,o),
(183,182,cs),
(183,435,l),
(160,435,l),
(30,379,l),
(30,366,l),
(134,288,l),
(97,362,l),
(97,157,ls),
(97,53,o),
(146,-12,o),
(225,-12,cs)
);
},
{
closed = 1;
nodes = (
(430,-12,l),
(530,36,l),
(530,49,l),
(443,108,l),
(471,48,l),
(471,435,l),
(448,435,l),
(318,379,l),
(318,366,l),
(422,288,l),
(385,362,l),
(385,62,l),
(393,62,l),
(415,-12,l)
);
}
);
width = 550;
},
{
anchors = (
{
name = bottom;
pos = (312,0);
},
{
name = ogonek;
pos = (485,0);
},
{
name = top;
pos = (304,454);
},
{
name = topright;
pos = (603,454);
}
);
layerId = "778ADD7E-4752-4796-8294-609F841445EC";
shapes = (
{
closed = 1;
nodes = (
(267,-16,o),
(323,9,o),
(374,59,c),
(389,59,l),
(389,118,l),
(361,102,o),
(335,95,o),
(304,95,cs),
(260,95,o),
(241,124,o),
(241,189,cs),
(241,454,l),
(215,468,l),
(18,404,l),
(18,386,l),
(101,309,l),
(71,377,l),
(71,160,ls),
(71,47,o),
(119,-16,o),
(205,-16,cs)
);
},
{
closed = 1;
nodes = (
(449,-16,l),
(601,52,l),
(601,70,l),
(504,146,l),
(544,67,l),
(544,454,l),
(518,468,l),
(321,404,l),
(321,386,l),
(404,309,l),
(374,377,l),
(374,59,l),
(384,59,l),
(421,-16,l)
);
}
);
width = 609;
},
{
anchors = (
{
name = bottom;
pos = (284,0);
},
{
name = ogonek;
pos = (494,10);
},
{
name = top;
pos = (274,430);
},
{
name = topright;
pos = (527,430);
}
);
associatedMasterId = m01;
layerId = "A1BCA110-C08A-44CF-A17A-79335E1167F1";
name = "25 Nov 22, 20:21";
shapes = (
{
closed = 1;
nodes = (
(270,-12,o),
(326,11,o),
(380,52,c),
(391,52,l),
(391,106,l),
(345,67,o),
(306,50,o),
(262,50,cs),
(207,50,o),
(176,97,o),
(176,182,cs),
(176,435,l),
(158,435,l),
(27,387,l),
(27,375,l),
(110,314,l),
(90,356,l),
(90,157,ls),
(90,39,o),
(130,-12,o),
(222,-12,cs)
);
},
{
closed = 1;
nodes = (
(421,-12,l),
(523,36,l),
(523,48,l),
(448,110,l),
(464,88,l),
(464,435,l),
(446,435,l),
(315,387,l),
(315,375,l),
(398,314,l),
(378,356,l),
(378,56,l),
(386,52,l),
(406,-12,l)
);
}
);
width = 554;
}
);
metricLeft = "=n";
metricRight = "=d";
unicode = 117;
},
{
color = 5;
glyphname = v;
lastChange = "2022-12-09 09:36:27 +0000";
layers = (
{
guides = (
{
pos = (52,369);
},
{
pos = (145,375);
}
);
layerId = m01;
shapes = (
{
closed = 1;
nodes = (
(266,0,l),
(434,375,l),
(490,410,l),
(490,430,l),
(310,430,l),
(310,417,l),
(369,369,l),
(265,73,l),
(272,73,l),
(145,375,l),
(213,410,l),
(213,430,l),
(2,430,l),
(2,417,l),
(52,369,l),
(215,0,l)
);
}
);
width = 492;
},
{
guides = (
{
pos = (55,381);
},
{
pos = (236,395);
}
);
layerId = "778ADD7E-4752-4796-8294-609F841445EC";
shapes = (
{
closed = 1;
nodes = (
(339,0,l),
(512,394,l),
(562,426,l),
(562,454,l),
(365,454,l),
(365,436,l),
(408,381,l),
(338,83,l),
(363,83,l),
(236,395,l),
(293,426,l),
(293,454,l),
(2,454,l),
(2,436,l),
(55,381,l),
(225,0,l)
);
}
);
width = 564;
},
{
associatedMasterId = "778ADD7E-4752-4796-8294-609F841445EC";
layerId = "3660C1EB-CB6C-4A4B-B432-13E40393BFAD";
name = "24 Nov 22, 16:49";
shapes = (
{
closed = 1;
nodes = (
(336,0,l),
(503,381,l),
(554,415,l),
(552,454,l),
(375,454,l),
(373,419,l),
(412,390,l),
(343,124,l),
(350,124,l),
(245,390,l),
(295,419,l),
(293,454,l),
(4,454,l),
(2,424,l),
(52,381,l),
(222,0,l)
);
}
);
width = 556;
}
);
unicode = 118;
},
{
color = 5;
glyphname = w;
lastChange = "2022-12-10 07:36:24 +0000";
layers = (
{
anchors = (
{
name = bottom;
pos = (353,0);
},
{
name = top;
pos = (353,430);
}
);
guides = (
{
pos = (73,92);
}
);
layerId = m01;
shapes = (
{
closed = 1;
nodes = (
(257,0,l),
(386,373,l),
(386,430,l),
(345,430,l),
(249,73,l),
(260,73,l),
(146,375,l),
(214,410,l),
(214,430,l),
(2,430,l),
(2,417,l),
(55,369,l),
(201,0,l)
);
},
{
closed = 1;
nodes = (
(497,0,l),
(642,369,l),
(704,410,l),
(704,430,l),
(524,430,l),
(524,417,l),
(583,373,l),
(492,73,l),
(502,73,l),
(392,430,l),
(357,430,l),
(329,328,l),
(446,0,l)
);
}
);
width = 706;
},
{
anchors = (
{
name = bottom;
pos = (393,0);
},
{
name = top;
pos = (393,454);
}
);
background = {
shapes = (
{
closed = 1;
nodes = (
(560,0,l),
(733,394,l),
(783,426,l),
(783,454,l),
(596,454,l),
(596,436,l),
(639,381,l),
(556,83,l),
(584,83,l),
(457,395,l),
(514,426,l),
(514,454,l),
(223,454,l),
(223,436,l),
(276,381,l),
(446,0,l)
);
}
);
};
guides = (
{
pos = (91,141);
}
);
layerId = "778ADD7E-4752-4796-8294-609F841445EC";
shapes = (
{
closed = 1;
nodes = (
(293,0,l),
(465,371,l),
(465,454,l),
(389,454,l),
(304,109,l),
(317,109,l),
(229,399,l),
(278,426,l),
(278,454,l),
(2,454,l),
(2,436,l),
(54,381,l),
(202,0,l)
);
},
{
closed = 1;
nodes = (
(582,0,l),
(733,392,l),
(784,426,l),
(784,454,l),
(591,454,l),
(591,436,l),
(634,384,l),
(585,119,l),
(593,119,l),
(479,454,l),
(407,454,l),
(370,264,l),
(483,0,l)
);
}
);
width = 786;
},
{
associatedMasterId = "778ADD7E-4752-4796-8294-609F841445EC";
layerId = "C5DB457B-98E7-49AB-93C8-C8ECFB1FDD03";
name = "20 Oct 22, 12:37";
shapes = (
{
closed = 1;
nodes = (
(306,0,l),
(455,371,l),
(460,454,l),
(383,454,l),
(307,119,l),
(335,119,l),
(244,395,l),
(292,424,l),
(290,454,l),
(4,454,l),
(2,429,l),
(52,386,l),
(207,0,l)
);
},
{
closed = 1;
nodes = (
(560,0,l),
(713,386,l),
(765,420,l),
(763,454,l),
(586,454,l),
(584,424,l),
(623,395,l),
(561,119,l),
(589,119,l),
(478,454,l),
(406,454,l),
(356,264,l),
(461,0,l)
);
}
);
width = 767;
},
{
associatedMasterId = m01;
background = {
shapes = (
{
closed = 1;
nodes = (
(470,0,l),
(638,375,l),
(694,410,l),
(694,430,l),
(514,430,l),
(514,417,l),
(573,369,l),
(469,73,l),
(476,73,l),
(349,375,l),
(417,410,l),
(417,430,l),
(206,430,l),
(206,417,l),
(256,369,l),
(419,0,l)
);
}
);
};
guides = (
{
pos = (58,92);
}
);
layerId = "929944E6-84C5-4BC2-97CA-224B199F4CF1";
name = "9 Dec 22, 19:31";
shapes = (
{
closed = 1;
nodes = (
(247,0,l),
(371,373,l),
(371,430,l),
(330,430,l),
(239,73,l),
(250,73,l),
(146,375,l),
(214,410,l),
(214,430,l),
(2,430,l),
(2,417,l),
(55,369,l),
(191,0,l)
);
},
{
closed = 1;
nodes = (
(477,0,l),
(612,369,l),
(674,410,l),
(674,430,l),
(494,430,l),
(494,417,l),
(553,373,l),
(472,73,l),
(482,73,l),
(377,430,l),
(342,430,l),
(317,328,l),
(429,0,l)
);
}
);
width = 676;
},
{
associatedMasterId = "778ADD7E-4752-4796-8294-609F841445EC";
background = {
shapes = (
{
closed = 1;
nodes = (
(532,0,l),
(705,394,l),
(755,426,l),
(755,454,l),
(568,454,l),
(568,436,l),
(611,381,l),
(528,83,l),
(556,83,l),
(429,395,l),
(486,426,l),
(486,454,l),
(195,454,l),
(195,436,l),
(248,381,l),
(418,0,l)
);
}
);
};
guides = (
{
pos = (63,141);
}
);
layerId = "357563A2-325C-4EE7-8801-F3A70AE7AFC3";
name = "9 Dec 22, 19:34";
shapes = (
{
closed = 1;
nodes = (
(265,0,l),
(437,371,l),
(437,454,l),
(361,454,l),
(276,109,l),
(289,109,l),
(219,399,l),
(268,426,l),
(268,454,l),
(-8,454,l),
(-8,436,l),
(44,381,l),
(174,0,l)
);
},
{
closed = 1;
nodes = (
(554,0,l),
(687,392,l),
(738,426,l),
(738,454,l),
(545,454,l),
(545,436,l),
(588,384,l),
(557,119,l),
(565,119,l),
(451,454,l),
(379,454,l),
(342,264,l),
(455,0,l)
);
}
);
width = 730;
}
);
metricLeft = "=v";
metricRight = "=v";
unicode = 119;
},
{
color = 5;
glyphname = x;
lastChange = "2022-12-10 00:54:02 +0000";
layers = (
{
background = {
shapes = (
{
closed = 1;
nodes = (
(523,0,l),
(523,20,l),
(425,68,l),
(447,26,l),
(447,355,l),
(439,355,l),
(444,435,l),
(424,435,l),
(294,379,l),
(294,366,l),
(398,288,l),
(361,362,l),
(361,28,l),
(382,78,l),
(303,13,l),
(303,0,l)
);
}
);
};
layerId = m01;
shapes = (
{
closed = 1;
nodes = (
(516,0,l),
(516,21,l),
(458,49,l),
(293,240,l),
(226,216,l),
(347,48,l),
(298,13,l),
(298,0,l)
);
},
{
closed = 1;
nodes = (
(226,0,l),
(226,20,l),
(151,56,l),
(263,212,l),
(245,237,l),
(87,63,l),
(15,13,l),
(15,0,l)
);
},
{
closed = 1;
nodes = (
(289,233,l),
(187,375,l),
(246,410,l),
(246,430,l),
(27,430,l),
(27,417,l),
(85,368,l),
(227,199,l)
);
},
{
closed = 1;
nodes = (
(433,375,l),
(493,410,l),
(493,430,l),
(309,430,l),
(309,417,l),
(363,369,l),
(276,233,l),
(292,208,l)
);
}
);
width = 531;
},
{
background = {
shapes = (
{
closed = 1;
nodes = (
(563,0,l),
(563,28,l),
(460,93,l),
(504,24,l),
(504,388,l),
(491,388,l),
(499,454,l),
(473,468,l),
(266,384,l),
(266,366,l),
(364,289,l),
(334,357,l),
(334,24,l),
(377,126,l),
(288,18,l),
(288,0,l)
);
}
);
};
layerId = "778ADD7E-4752-4796-8294-609F841445EC";
shapes = (
{
closed = 1;
nodes = (
(590,0,l),
(590,28,l),
(512,77,l),
(360,265,l),
(209,237,l),
(330,57,l),
(295,18,l),
(295,0,l)
);
},
{
closed = 1;
nodes = (
(201,0,l),
(201,28,l),
(157,57,l),
(266,209,l),
(243,240,l),
(79,77,l),
(5,18,l),
(5,0,l)
);
},
{
closed = 1;
nodes = (
(377,242,l),
(264,398,l),
(300,426,l),
(300,454,l),
(17,454,l),
(17,436,l),
(77,381,l),
(235,195,l)
);
},
{
closed = 1;
nodes = (
(497,382,l),
(557,424,l),
(557,454,l),
(390,454,l),
(390,435,l),
(419,398,l),
(314,237,l),
(330,213,l)
);
}
);
width = 595;
}
);
unicode = 120;
},
{
color = 5;
glyphname = y;
lastChange = "2022-12-09 09:36:38 +0000";
layers = (
{
anchors = (
{
name = bottom;
pos = (242,0);
},
{
name = top;
pos = (259,430);
}
);
background = {
shapes = (
{
closed = 1;
nodes = (
(266,0,l),
(434,375,l),
(490,410,l),
(490,430,l),
(310,430,l),
(310,417,l),
(369,369,l),
(265,73,l),
(272,73,l),
(145,375,l),
(213,410,l),
(213,430,l),
(2,430,l),
(2,417,l),
(52,369,l),
(215,0,l)
);
}
);
};
layerId = m01;
shapes = (
{
closed = 1;
nodes = (
(142,-277,l),
(434,375,l),
(490,410,l),
(490,430,l),
(310,430,l),
(310,417,l),
(369,369,l),
(265,73,l),
(272,73,l),
(145,375,l),
(213,410,l),
(213,430,l),
(2,430,l),
(2,417,l),
(52,369,l),
(217,-4,l),
(49,-208,l),
(49,-213,l),
(129,-277,l)
);
}
);
width = 492;
},
{
anchors = (
{
name = bottom;
pos = (283,0);
},
{
name = top;
pos = (334,454);
}
);
background = {
shapes = (
{
closed = 1;
nodes = (
(339,0,l),
(512,394,l),
(562,426,l),
(562,454,l),
(375,454,l),
(375,436,l),
(418,381,l),
(335,83,l),
(363,83,l),
(236,395,l),
(293,426,l),
(293,454,l),
(2,454,l),
(2,436,l),
(55,381,l),
(225,0,l)
);
}
);
};
layerId = "778ADD7E-4752-4796-8294-609F841445EC";
shapes = (
{
closed = 1;
nodes = (
(216,-281,l),
(512,394,l),
(562,426,l),
(562,454,l),
(365,454,l),
(365,436,l),
(408,381,l),
(338,83,l),
(363,83,l),
(236,395,l),
(293,426,l),
(293,454,l),
(2,454,l),
(2,436,l),
(55,380,l),
(254,-65,l),
(44,-169,l),
(44,-184,l),
(188,-281,l)
);
}
);
width = 564;
},
{
associatedMasterId = m01;
layerId = "7BDC2410-AA00-4A59-A18D-D81C24CFCC97";
name = "25 Oct 22, 08:43";
shapes = (
{
closed = 1;
nodes = (
(154,-280,l),
(438,369,l),
(496,407,l),
(494,430,l),
(312,430,l),
(310,414,l),
(365,374,l),
(269,73,l),
(279,73,l),
(152,375,l),
(224,407,l),
(222,430,l),
(4,430,l),
(2,415,l),
(59,369,l),
(220,4,l),
(64,-211,l),
(133,-284,l)
);
}
);
width = 498;
},
{
associatedMasterId = "778ADD7E-4752-4796-8294-609F841445EC";
layerId = "09D99572-1D43-408D-9E5E-AA9A50F6A75A";
name = "25 Oct 22, 08:43";
shapes = (
{
closed = 1;
nodes = (
(205,-280,l),
(493,386,l),
(544,420,l),
(542,454,l),
(365,454,l),
(363,424,l),
(402,395,l),
(329,124,l),
(340,124,l),
(235,395,l),
(285,424,l),
(283,454,l),
(-6,454,l),
(-8,429,l),
(42,386,l),
(234,-52,l),
(51,-200,l),
(172,-294,l)
);
}
);
width = 536;
},
{
associatedMasterId = "778ADD7E-4752-4796-8294-609F841445EC";
layerId = "73671955-3B79-4154-8D18-DDBA1A02D111";
name = "29 Oct 22, 14:12";
shapes = (
{
closed = 1;
nodes = (
(215,-280,l),
(503,386,l),
(554,420,l),
(552,454,l),
(375,454,l),
(373,424,l),
(412,395,l),
(339,124,l),
(350,124,l),
(245,395,l),
(295,424,l),
(293,454,l),
(4,454,l),
(2,429,l),
(52,386,l),
(244,-52,l),
(55,-209,l),
(182,-294,l)
);
}
);
width = 556;
}
);
metricLeft = "=v";
metricRight = "=v";
unicode = 121;
},
{
color = 5;
glyphname = z;
lastChange = "2022-12-09 09:55:47 +0000";
layers = (
{
anchors = (
{
name = bottom;
pos = (220,0);
},
{
name = center;
pos = (220,215);
},
{
name = top;
pos = (220,430);
}
);
layerId = m01;
shapes = (
{
closed = 1;
nodes = (
(137,0,l),
(413,404,l),
(399,430,l),
(338,430,l),
(40,18,l),
(40,0,l)
);
},
{
closed = 1;
nodes = (
(385,0,l),
(385,49,l),
(111,39,l),
(111,0,l)
);
},
{
closed = 1;
nodes = (
(171,400,l),
(160,430,l),
(46,430,l),
(62,290,l),
(75,290,l)
);
},
{
closed = 1;
nodes = (
(412,0,l),
(423,146,l),
(410,146,l),
(305,44,l),
(317,0,l)
);
},
{
closed = 1;
nodes = (
(352,392,l),
(352,430,l),
(94,430,l),
(94,381,l)
);
}
);
width = 463;
},
{
anchors = (
{
name = bottom;
pos = (242,0);
},
{
name = center;
pos = (242,227);
},
{
name = top;
pos = (242,454);
}
);
layerId = "778ADD7E-4752-4796-8294-609F841445EC";
shapes = (
{
closed = 1;
nodes = (
(225,0,l),
(493,431,l),
(481,454,l),
(332,454,l),
(25,25,l),
(25,0,l)
);
},
{
closed = 1;
nodes = (
(463,0,l),
(463,62,l),
(175,40,l),
(175,0,l)
);
},
{
closed = 1;
nodes = (
(225,424,l),
(145,454,l),
(38,454,l),
(75,268,l),
(93,268,l)
);
},
{
closed = 1;
nodes = (
(489,0,l),
(502,208,l),
(484,208,l),
(319,30,l),
(382,0,l)
);
},
{
closed = 1;
nodes = (
(405,417,l),
(405,454,l),
(97,454,l),
(97,394,l)
);
}
);
width = 527;
},
{
anchors = (
{
name = bottom;
pos = (210,0);
},
{
name = center;
pos = (210,215);
},
{
name = top;
pos = (210,430);
}
);
associatedMasterId = m01;
layerId = "2158E6B1-1575-4FBD-91B0-FFBA364DF8C5";
name = "26 Nov 22, 13:32";
shapes = (
{
closed = 1;
nodes = (
(127,0,l),
(403,411,l),
(389,430,l),
(328,430,l),
(30,13,l),
(33,0,l)
);
},
{
closed = 1;
nodes = (
(375,0,l),
(375,49,l),
(101,39,l),
(101,0,l)
);
},
{
closed = 1;
nodes = (
(143,400,l),
(132,430,l),
(43,430,l),
(57,291,l),
(68,290,l)
);
},
{
closed = 1;
nodes = (
(402,0,l),
(408,136,l),
(397,139,l),
(315,44,l),
(327,0,l)
);
},
{
closed = 1;
nodes = (
(342,392,l),
(342,430,l),
(84,430,l),
(84,381,l)
);
}
);
width = 438;
},
{
anchors = (
{
name = bottom;
pos = (235,0);
},
{
name = center;
pos = (235,227);
},
{
name = top;
pos = (235,454);
}
);
associatedMasterId = "778ADD7E-4752-4796-8294-609F841445EC";
layerId = "DA84740F-E186-4DF8-BB05-965F0061E5A9";
name = "26 Nov 22, 13:34";
shapes = (
{
closed = 1;
nodes = (
(203,0,l),
(473,435,l),
(451,454,l),
(330,454,l),
(23,13,l),
(26,0,l)
);
},
{
closed = 1;
nodes = (
(456,0,l),
(456,63,l),
(168,41,l),
(168,0,l)
);
},
{
closed = 1;
nodes = (
(192,424,l),
(138,454,l),
(31,454,l),
(65,272,l),
(94,268,l)
);
},
{
closed = 1;
nodes = (
(482,0,l),
(490,194,l),
(461,198,l),
(333,30,l),
(375,0,l)
);
},
{
closed = 1;
nodes = (
(398,414,l),
(398,454,l),
(90,454,l),
(90,391,l)
);
}
);
width = 513;
}
);
metricLeft = "=o";
metricRight = "=o";
unicode = 122;
},
